<?xml version="1.0" standalone="no"?>
 <!DOCTYPE svg PUBLIC "-//W3C//DTD SVG 1.1//EN" 
 "http://www.w3.org/Graphics/SVG/1.1/DTD/svg11.dtd"> 
<svg
  xmlns:svg="http://www.w3.org/2000/svg"
  xmlns="http://www.w3.org/2000/svg"
  xmlns:xlink="http://www.w3.org/1999/xlink"
  version="1.1"
  width="297.0022mm" height="210.0072mm" viewBox="0.0000 0.0000 297.0022 210.0072">
<title>SVG Image created as TL494-B_Cu.svg date 2023/04/07 17:10:58 </title>
  <desc>Image generated by PCBNEW </desc>
<g style="fill:#000000; fill-opacity:1.0000;stroke:#000000; stroke-opacity:1.0000;
stroke-linecap:round; stroke-linejoin:round;"
 transform="translate(0 0) scale(1 1)">
</g>
<g style="fill:#000000; fill-opacity:0.0; 
stroke:#000000; stroke-width:0.0000; stroke-opacity:1; 
stroke-linecap:round; stroke-linejoin:round;">
</g>
<g style="fill:#000000; fill-opacity:1.0000; 
stroke:#000000; stroke-width:0.0212; stroke-opacity:1; 
stroke-linecap:round; stroke-linejoin:round;">
<rect x="117.452978" y="66.852500" width="68.522022" height="49.647500" rx="0.000000" />
</g>
<g style="fill:#FFFFFF; fill-opacity:1.0000; 
stroke:#FFFFFF; stroke-width:0.0212; stroke-opacity:1; 
stroke-linecap:round; stroke-linejoin:round;">
<g >
</g>
<g style="fill:#FFFFFF; fill-opacity:1.0000; 
stroke:#FFFFFF; stroke-width:0.0000; stroke-opacity:1; 
stroke-linecap:round; stroke-linejoin:round;">
<circle cx="143.1000" cy="95.8000" r="0.8000" /> 
</g>
<g style="fill:#FFFFFF; fill-opacity:1.0000; 
stroke:#FFFFFF; stroke-width:0.0212; stroke-opacity:1; 
stroke-linecap:round; stroke-linejoin:round;">
</g>
<g style="fill:#FFFFFF; fill-opacity:1.0000; 
stroke:#FFFFFF; stroke-width:0.0000; stroke-opacity:1; 
stroke-linecap:round; stroke-linejoin:round;">
<circle cx="138.1000" cy="95.8000" r="0.8000" /> 
</g>
<g style="fill:#FFFFFF; fill-opacity:1.0000; 
stroke:#FFFFFF; stroke-width:0.0212; stroke-opacity:1; 
stroke-linecap:round; stroke-linejoin:round;">
</g>
<g >
</g>
<g style="fill:#FFFFFF; fill-opacity:1.0000; 
stroke:#FFFFFF; stroke-width:0.0212; stroke-opacity:1; 
stroke-linecap:round; stroke-linejoin:round;">
</g>
<g style="fill:#FFFFFF; fill-opacity:1.0000; 
stroke:#FFFFFF; stroke-width:0.0000; stroke-opacity:1; 
stroke-linecap:round; stroke-linejoin:round;">
<path style="fill:#FFFFFF; fill-opacity:1.0000; 
stroke:#FFFFFF; stroke-width:0.0000; stroke-opacity:1; 
stroke-linecap:round; stroke-linejoin:round;fill-rule:evenodd;"
d="M 169.5500,86.6500
169.5500,84.9500
171.2500,84.9500
171.2500,86.6500
Z" /> 
<circle cx="170.4000" cy="88.3400" r="0.8500" /> 
<circle cx="170.4000" cy="90.8800" r="0.8500" /> 
<circle cx="170.4000" cy="93.4200" r="0.8500" /> 
<circle cx="170.4000" cy="95.9600" r="0.8500" /> 
<circle cx="170.4000" cy="98.5000" r="0.8500" /> 
<circle cx="170.4000" cy="101.0400" r="0.8500" /> 
</g>
<g >
</g>
<g style="fill:#FFFFFF; fill-opacity:1.0000; 
stroke:#FFFFFF; stroke-width:0.0000; stroke-opacity:1; 
stroke-linecap:round; stroke-linejoin:round;">
<path style="fill:#FFFFFF; fill-opacity:1.0000; 
stroke:#FFFFFF; stroke-width:0.0000; stroke-opacity:1; 
stroke-linecap:round; stroke-linejoin:round;fill-rule:evenodd;"
d="M 145.1800,84.2200
145.1800,82.6200
147.5800,82.6200
147.5800,84.2200
Z" /> 
</g>
<g style="fill:#FFFFFF; fill-opacity:1.0000; 
stroke:#FFFFFF; stroke-width:1.6000; stroke-opacity:1; 
stroke-linecap:round; stroke-linejoin:round;">
</g>
<g style="fill:#FFFFFF; fill-opacity:0.0; 
stroke:#FFFFFF; stroke-width:1.6000; stroke-opacity:1; 
stroke-linecap:round; stroke-linejoin:round;">
<path d="M145.9800 85.9600
L146.7800 85.9600
" />
<path d="M145.9800 88.5000
L146.7800 88.5000
" />
<path d="M145.9800 91.0400
L146.7800 91.0400
" />
<path d="M145.9800 93.5800
L146.7800 93.5800
" />
<path d="M145.9800 96.1200
L146.7800 96.1200
" />
<path d="M145.9800 98.6600
L146.7800 98.6600
" />
<path d="M145.9800 101.2000
L146.7800 101.2000
" />
<path d="M153.6000 101.2000
L154.4000 101.2000
" />
<path d="M153.6000 98.6600
L154.4000 98.6600
" />
<path d="M153.6000 96.1200
L154.4000 96.1200
" />
<path d="M153.6000 93.5800
L154.4000 93.5800
" />
<path d="M153.6000 91.0400
L154.4000 91.0400
" />
<path d="M153.6000 88.5000
L154.4000 88.5000
" />
<path d="M153.6000 85.9600
L154.4000 85.9600
" />
<path d="M153.6000 83.4200
L154.4000 83.4200
" />
</g>
<g >
</g>
<g style="fill:#FFFFFF; fill-opacity:0.0; 
stroke:#FFFFFF; stroke-width:1.6000; stroke-opacity:1; 
stroke-linecap:round; stroke-linejoin:round;">
</g>
<g style="fill:#FFFFFF; fill-opacity:0.0; 
stroke:#FFFFFF; stroke-width:0.0000; stroke-opacity:1; 
stroke-linecap:round; stroke-linejoin:round;">
</g>
<g style="fill:#FFFFFF; fill-opacity:1.0000; 
stroke:#FFFFFF; stroke-width:0.0000; stroke-opacity:1; 
stroke-linecap:round; stroke-linejoin:round;">
<path style="fill:#FFFFFF; fill-opacity:1.0000; 
stroke:#FFFFFF; stroke-width:0.0000; stroke-opacity:1; 
stroke-linecap:round; stroke-linejoin:round;fill-rule:evenodd;"
d="M 166.6900,99.6400
166.6900,101.4400
165.5900,101.4400
165.5900,99.6400
Z" /> 
<path style="fill:#FFFFFF; fill-opacity:1.0000; 
stroke:#FFFFFF; stroke-width:0.0000; stroke-opacity:1; 
stroke-linecap:round; stroke-linejoin:round;fill-rule:evenodd;"
d="M 165.4200,103.2350
165.3991,103.3402
165.3395,103.4295
165.2502,103.4891
165.1450,103.5100
164.5950,103.5100
164.4898,103.4891
164.4005,103.4295
164.3409,103.3402
164.3200,103.2350
164.3200,101.9850
164.3409,101.8798
164.4005,101.7905
164.4898,101.7309
164.5950,101.7100
165.1450,101.7100
165.2502,101.7309
165.3395,101.7905
165.3991,101.8798
165.4200,101.9850
Z" /> 
<path style="fill:#FFFFFF; fill-opacity:1.0000; 
stroke:#FFFFFF; stroke-width:0.0000; stroke-opacity:1; 
stroke-linecap:round; stroke-linejoin:round;fill-rule:evenodd;"
d="M 164.1500,101.1650
164.1291,101.2702
164.0695,101.3595
163.9802,101.4191
163.8750,101.4400
163.3250,101.4400
163.2198,101.4191
163.1305,101.3595
163.0709,101.2702
163.0500,101.1650
163.0500,99.9150
163.0709,99.8098
163.1305,99.7205
163.2198,99.6609
163.3250,99.6400
163.8750,99.6400
163.9802,99.6609
164.0695,99.7205
164.1291,99.8098
164.1500,99.9150
Z" /> 
</g>
<g >
</g>
<g style="fill:#FFFFFF; fill-opacity:1.0000; 
stroke:#FFFFFF; stroke-width:0.0000; stroke-opacity:1; 
stroke-linecap:round; stroke-linejoin:round;">
<circle cx="139.8000" cy="83.1200" r="0.8000" /> 
</g>
<g style="fill:#FFFFFF; fill-opacity:1.0000; 
stroke:#FFFFFF; stroke-width:0.0212; stroke-opacity:1; 
stroke-linecap:round; stroke-linejoin:round;">
</g>
<g style="fill:#FFFFFF; fill-opacity:1.0000; 
stroke:#FFFFFF; stroke-width:0.0000; stroke-opacity:1; 
stroke-linecap:round; stroke-linejoin:round;">
<circle cx="139.8000" cy="93.2800" r="0.8000" /> 
</g>
<g >
</g>
<g style="fill:#FFFFFF; fill-opacity:1.0000; 
stroke:#FFFFFF; stroke-width:0.0000; stroke-opacity:1; 
stroke-linecap:round; stroke-linejoin:round;">
<circle cx="153.3000" cy="80.2000" r="0.8000" /> 
</g>
<g style="fill:#FFFFFF; fill-opacity:1.0000; 
stroke:#FFFFFF; stroke-width:0.0212; stroke-opacity:1; 
stroke-linecap:round; stroke-linejoin:round;">
</g>
<g style="fill:#FFFFFF; fill-opacity:1.0000; 
stroke:#FFFFFF; stroke-width:0.0000; stroke-opacity:1; 
stroke-linecap:round; stroke-linejoin:round;">
<circle cx="143.1400" cy="80.2000" r="0.8000" /> 
</g>
<g >
</g>
<g style="fill:#FFFFFF; fill-opacity:1.0000; 
stroke:#FFFFFF; stroke-width:0.0000; stroke-opacity:1; 
stroke-linecap:round; stroke-linejoin:round;">
<circle cx="136.6000" cy="93.2800" r="0.8000" /> 
</g>
<g style="fill:#FFFFFF; fill-opacity:1.0000; 
stroke:#FFFFFF; stroke-width:0.0212; stroke-opacity:1; 
stroke-linecap:round; stroke-linejoin:round;">
</g>
<g style="fill:#FFFFFF; fill-opacity:1.0000; 
stroke:#FFFFFF; stroke-width:0.0000; stroke-opacity:1; 
stroke-linecap:round; stroke-linejoin:round;">
<circle cx="136.6000" cy="83.1200" r="0.8000" /> 
</g>
<g >
</g>
<g style="fill:#FFFFFF; fill-opacity:1.0000; 
stroke:#FFFFFF; stroke-width:0.0000; stroke-opacity:1; 
stroke-linecap:round; stroke-linejoin:round;">
<path style="fill:#FFFFFF; fill-opacity:1.0000; 
stroke:#FFFFFF; stroke-width:0.0000; stroke-opacity:1; 
stroke-linecap:round; stroke-linejoin:round;fill-rule:evenodd;"
d="M 166.6200,83.5800
166.6200,85.3800
165.5200,85.3800
165.5200,83.5800
Z" /> 
<path style="fill:#FFFFFF; fill-opacity:1.0000; 
stroke:#FFFFFF; stroke-width:0.0000; stroke-opacity:1; 
stroke-linecap:round; stroke-linejoin:round;fill-rule:evenodd;"
d="M 165.3500,87.1750
165.3291,87.2802
165.2695,87.3695
165.1802,87.4291
165.0750,87.4500
164.5250,87.4500
164.4198,87.4291
164.3305,87.3695
164.2709,87.2802
164.2500,87.1750
164.2500,85.9250
164.2709,85.8198
164.3305,85.7305
164.4198,85.6709
164.5250,85.6500
165.0750,85.6500
165.1802,85.6709
165.2695,85.7305
165.3291,85.8198
165.3500,85.9250
Z" /> 
<path style="fill:#FFFFFF; fill-opacity:1.0000; 
stroke:#FFFFFF; stroke-width:0.0000; stroke-opacity:1; 
stroke-linecap:round; stroke-linejoin:round;fill-rule:evenodd;"
d="M 164.0800,85.1050
164.0591,85.2102
163.9995,85.2995
163.9102,85.3591
163.8050,85.3800
163.2550,85.3800
163.1498,85.3591
163.0605,85.2995
163.0009,85.2102
162.9800,85.1050
162.9800,83.8550
163.0009,83.7498
163.0605,83.6605
163.1498,83.6009
163.2550,83.5800
163.8050,83.5800
163.9102,83.6009
163.9995,83.6605
164.0591,83.7498
164.0800,83.8550
Z" /> 
</g>
<g >
</g>
<g style="fill:#FFFFFF; fill-opacity:1.0000; 
stroke:#FFFFFF; stroke-width:0.0000; stroke-opacity:1; 
stroke-linecap:round; stroke-linejoin:round;">
<path style="fill:#FFFFFF; fill-opacity:1.0000; 
stroke:#FFFFFF; stroke-width:0.0000; stroke-opacity:1; 
stroke-linecap:round; stroke-linejoin:round;fill-rule:evenodd;"
d="M 166.6200,88.9800
166.6200,90.7800
165.5200,90.7800
165.5200,88.9800
Z" /> 
<path style="fill:#FFFFFF; fill-opacity:1.0000; 
stroke:#FFFFFF; stroke-width:0.0000; stroke-opacity:1; 
stroke-linecap:round; stroke-linejoin:round;fill-rule:evenodd;"
d="M 165.3500,92.5750
165.3291,92.6802
165.2695,92.7695
165.1802,92.8291
165.0750,92.8500
164.5250,92.8500
164.4198,92.8291
164.3305,92.7695
164.2709,92.6802
164.2500,92.5750
164.2500,91.3250
164.2709,91.2198
164.3305,91.1305
164.4198,91.0709
164.5250,91.0500
165.0750,91.0500
165.1802,91.0709
165.2695,91.1305
165.3291,91.2198
165.3500,91.3250
Z" /> 
<path style="fill:#FFFFFF; fill-opacity:1.0000; 
stroke:#FFFFFF; stroke-width:0.0000; stroke-opacity:1; 
stroke-linecap:round; stroke-linejoin:round;fill-rule:evenodd;"
d="M 164.0800,90.5050
164.0591,90.6102
163.9995,90.6995
163.9102,90.7591
163.8050,90.7800
163.2550,90.7800
163.1498,90.7591
163.0605,90.6995
163.0009,90.6102
162.9800,90.5050
162.9800,89.2550
163.0009,89.1498
163.0605,89.0605
163.1498,89.0009
163.2550,88.9800
163.8050,88.9800
163.9102,89.0009
163.9995,89.0605
164.0591,89.1498
164.0800,89.2550
Z" /> 
</g>
<g >
</g>
<g style="fill:#FFFFFF; fill-opacity:1.0000; 
stroke:#FFFFFF; stroke-width:0.0000; stroke-opacity:1; 
stroke-linecap:round; stroke-linejoin:round;">
<circle cx="158.9800" cy="92.6200" r="0.8000" /> 
</g>
<g style="fill:#FFFFFF; fill-opacity:1.0000; 
stroke:#FFFFFF; stroke-width:0.0212; stroke-opacity:1; 
stroke-linecap:round; stroke-linejoin:round;">
</g>
<g style="fill:#FFFFFF; fill-opacity:1.0000; 
stroke:#FFFFFF; stroke-width:0.0000; stroke-opacity:1; 
stroke-linecap:round; stroke-linejoin:round;">
<circle cx="158.9800" cy="82.4600" r="0.8000" /> 
</g>
<g >
</g>
<g style="fill:#FFFFFF; fill-opacity:1.0000; 
stroke:#FFFFFF; stroke-width:0.0000; stroke-opacity:1; 
stroke-linecap:round; stroke-linejoin:round;">
<circle cx="143.1100" cy="102.5400" r="0.8000" /> 
</g>
<g style="fill:#FFFFFF; fill-opacity:1.0000; 
stroke:#FFFFFF; stroke-width:0.0212; stroke-opacity:1; 
stroke-linecap:round; stroke-linejoin:round;">
</g>
<g style="fill:#FFFFFF; fill-opacity:1.0000; 
stroke:#FFFFFF; stroke-width:0.0000; stroke-opacity:1; 
stroke-linecap:round; stroke-linejoin:round;">
<circle cx="132.9500" cy="102.5400" r="0.8000" /> 
</g>
<g >
</g>
<g style="fill:#FFFFFF; fill-opacity:1.0000; 
stroke:#FFFFFF; stroke-width:0.0000; stroke-opacity:1; 
stroke-linecap:round; stroke-linejoin:round;">
<circle cx="143.0800" cy="98.8000" r="0.8000" /> 
</g>
<g style="fill:#FFFFFF; fill-opacity:1.0000; 
stroke:#FFFFFF; stroke-width:0.0212; stroke-opacity:1; 
stroke-linecap:round; stroke-linejoin:round;">
</g>
<g style="fill:#FFFFFF; fill-opacity:1.0000; 
stroke:#FFFFFF; stroke-width:0.0000; stroke-opacity:1; 
stroke-linecap:round; stroke-linejoin:round;">
<circle cx="132.9200" cy="98.8000" r="0.8000" /> 
</g>
<g >
</g>
<g style="fill:#FFFFFF; fill-opacity:1.0000; 
stroke:#FFFFFF; stroke-width:0.0000; stroke-opacity:1; 
stroke-linecap:round; stroke-linejoin:round;">
<circle cx="143.0000" cy="83.1200" r="0.8000" /> 
</g>
<g style="fill:#FFFFFF; fill-opacity:1.0000; 
stroke:#FFFFFF; stroke-width:0.0212; stroke-opacity:1; 
stroke-linecap:round; stroke-linejoin:round;">
</g>
<g style="fill:#FFFFFF; fill-opacity:1.0000; 
stroke:#FFFFFF; stroke-width:0.0000; stroke-opacity:1; 
stroke-linecap:round; stroke-linejoin:round;">
<circle cx="143.0000" cy="93.2800" r="0.8000" /> 
</g>
<g >
</g>
<g style="fill:#FFFFFF; fill-opacity:1.0000; 
stroke:#FFFFFF; stroke-width:0.0000; stroke-opacity:1; 
stroke-linecap:round; stroke-linejoin:round;">
<circle cx="156.0800" cy="104.4000" r="0.8000" /> 
</g>
<g style="fill:#FFFFFF; fill-opacity:1.0000; 
stroke:#FFFFFF; stroke-width:0.0212; stroke-opacity:1; 
stroke-linecap:round; stroke-linejoin:round;">
</g>
<g style="fill:#FFFFFF; fill-opacity:1.0000; 
stroke:#FFFFFF; stroke-width:0.0000; stroke-opacity:1; 
stroke-linecap:round; stroke-linejoin:round;">
<circle cx="145.9200" cy="104.4000" r="0.8000" /> 
</g>
<g >
</g>
<g style="fill:#FFFFFF; fill-opacity:1.0000; 
stroke:#FFFFFF; stroke-width:0.0000; stroke-opacity:1; 
stroke-linecap:round; stroke-linejoin:round;">
<path style="fill:#FFFFFF; fill-opacity:1.0000; 
stroke:#FFFFFF; stroke-width:0.0000; stroke-opacity:1; 
stroke-linecap:round; stroke-linejoin:round;fill-rule:evenodd;"
d="M 143.5726,105.8000
143.5726,107.0000
142.3726,107.0000
142.3726,105.8000
Z" /> 
<circle cx="140.9726" cy="106.4000" r="0.6000" /> 
</g>
<g style="fill:#FFFFFF; fill-opacity:1.0000; 
stroke:#FFFFFF; stroke-width:0.0212; stroke-opacity:1; 
stroke-linecap:round; stroke-linejoin:round;">
</g>
<g >
</g>
<g style="fill:#FFFFFF; fill-opacity:1.0000; 
stroke:#FFFFFF; stroke-width:0.0212; stroke-opacity:1; 
stroke-linecap:round; stroke-linejoin:round;">
</g>
<g style="fill:#FFFFFF; fill-opacity:1.0000; 
stroke:#FFFFFF; stroke-width:0.0000; stroke-opacity:1; 
stroke-linecap:round; stroke-linejoin:round;">
<path style="fill:#FFFFFF; fill-opacity:1.0000; 
stroke:#FFFFFF; stroke-width:0.0000; stroke-opacity:1; 
stroke-linecap:round; stroke-linejoin:round;fill-rule:evenodd;"
d="M 166.6200,94.3200
166.6200,96.1200
165.5200,96.1200
165.5200,94.3200
Z" /> 
<path style="fill:#FFFFFF; fill-opacity:1.0000; 
stroke:#FFFFFF; stroke-width:0.0000; stroke-opacity:1; 
stroke-linecap:round; stroke-linejoin:round;fill-rule:evenodd;"
d="M 165.3500,97.9150
165.3291,98.0202
165.2695,98.1095
165.1802,98.1691
165.0750,98.1900
164.5250,98.1900
164.4198,98.1691
164.3305,98.1095
164.2709,98.0202
164.2500,97.9150
164.2500,96.6650
164.2709,96.5598
164.3305,96.4705
164.4198,96.4109
164.5250,96.3900
165.0750,96.3900
165.1802,96.4109
165.2695,96.4705
165.3291,96.5598
165.3500,96.6650
Z" /> 
<path style="fill:#FFFFFF; fill-opacity:1.0000; 
stroke:#FFFFFF; stroke-width:0.0000; stroke-opacity:1; 
stroke-linecap:round; stroke-linejoin:round;fill-rule:evenodd;"
d="M 164.0800,95.8450
164.0591,95.9502
163.9995,96.0395
163.9102,96.0991
163.8050,96.1200
163.2550,96.1200
163.1498,96.0991
163.0605,96.0395
163.0009,95.9502
162.9800,95.8450
162.9800,94.5950
163.0009,94.4898
163.0605,94.4005
163.1498,94.3409
163.2550,94.3200
163.8050,94.3200
163.9102,94.3409
163.9995,94.4005
164.0591,94.4898
164.0800,94.5950
Z" /> 
</g>
<g >
</g>
<g style="fill:#FFFFFF; fill-opacity:1.0000; 
stroke:#FFFFFF; stroke-width:0.0000; stroke-opacity:1; 
stroke-linecap:round; stroke-linejoin:round;">
<circle cx="158.9800" cy="94.8700" r="0.8000" /> 
</g>
<g style="fill:#FFFFFF; fill-opacity:1.0000; 
stroke:#FFFFFF; stroke-width:0.0212; stroke-opacity:1; 
stroke-linecap:round; stroke-linejoin:round;">
</g>
<g style="fill:#FFFFFF; fill-opacity:1.0000; 
stroke:#FFFFFF; stroke-width:0.0000; stroke-opacity:1; 
stroke-linecap:round; stroke-linejoin:round;">
<circle cx="158.9800" cy="105.0300" r="0.8000" /> 
</g>
<g >
</g>
<g style="fill:#FFFFFF; fill-opacity:1.0000; 
stroke:#FFFFFF; stroke-width:0.0000; stroke-opacity:1; 
stroke-linecap:round; stroke-linejoin:round;">
<circle cx="169.6000" cy="77.2600" r="0.7500" /> 
</g>
<g style="fill:#FFFFFF; fill-opacity:1.0000; 
stroke:#FFFFFF; stroke-width:0.0212; stroke-opacity:1; 
stroke-linecap:round; stroke-linejoin:round;">
</g>
<g style="fill:#FFFFFF; fill-opacity:1.0000; 
stroke:#FFFFFF; stroke-width:0.0000; stroke-opacity:1; 
stroke-linecap:round; stroke-linejoin:round;">
<circle cx="161.5000" cy="86.0000" r="0.7500" /> 
</g>
<g style="fill:#FFFFFF; fill-opacity:1.0000; 
stroke:#FFFFFF; stroke-width:0.0212; stroke-opacity:1; 
stroke-linecap:round; stroke-linejoin:round;">
</g>
<g style="fill:#FFFFFF; fill-opacity:1.0000; 
stroke:#FFFFFF; stroke-width:0.0000; stroke-opacity:1; 
stroke-linecap:round; stroke-linejoin:round;">
<circle cx="161.5000" cy="94.9000" r="0.7500" /> 
</g>
<g style="fill:#FFFFFF; fill-opacity:1.0000; 
stroke:#FFFFFF; stroke-width:0.0212; stroke-opacity:1; 
stroke-linecap:round; stroke-linejoin:round;">
</g>
<g style="fill:#FFFFFF; fill-opacity:1.0000; 
stroke:#FFFFFF; stroke-width:0.0000; stroke-opacity:1; 
stroke-linecap:round; stroke-linejoin:round;">
<circle cx="164.8000" cy="81.9700" r="0.7500" /> 
</g>
<g style="fill:#FFFFFF; fill-opacity:1.0000; 
stroke:#FFFFFF; stroke-width:0.0212; stroke-opacity:1; 
stroke-linecap:round; stroke-linejoin:round;">
</g>
<g >
</g>
<g style="fill:#FFFFFF; fill-opacity:1.0000; 
stroke:#FFFFFF; stroke-width:0.0212; stroke-opacity:1; 
stroke-linecap:round; stroke-linejoin:round;">
</g>
<g style="fill:#FFFFFF; fill-opacity:1.0000; 
stroke:#FFFFFF; stroke-width:0.5000; stroke-opacity:1; 
stroke-linecap:round; stroke-linejoin:round;">
</g>
<g style="fill:#FFFFFF; fill-opacity:0.0; 
stroke:#FFFFFF; stroke-width:0.5000; stroke-opacity:1; 
stroke-linecap:round; stroke-linejoin:round;">
<path d="M154.0000 88.5000
L152.6100 88.5000
" />
<path d="M153.5000 104.4000
L156.0800 104.4000
" />
<path d="M154.0000 88.5000
L152.5000 88.5000
" />
<path d="M151.8000 89.2000
L151.8000 90.2400
" />
<path d="M166.7500 80.2000
L170.4000 83.8500
" />
<path d="M151.8000 81.0700
L152.6700 80.2000
" />
<path d="M142.9726 106.4000
L150.0000 106.4000
" />
<path d="M151.8000 87.6900
L151.8000 81.0700
" />
<path d="M152.0000 104.4000
L153.5000 104.4000
" />
<path d="M151.8000 90.2400
L152.6000 91.0400
" />
<path d="M150.0000 106.4000
L152.0000 104.4000
" />
<path d="M152.6700 80.2000
L153.3000 80.2000
" />
<path d="M153.5000 104.4000
L152.0700 104.4000
" />
<path d="M150.6000 102.9300
L150.6000 92.7900
" />
<path d="M152.6100 88.5000
L151.8000 87.6900
" />
<path d="M152.0700 104.4000
L150.6000 102.9300
" />
<path d="M152.6000 91.0400
L154.0000 91.0400
" />
<path d="M150.6000 92.7900
L152.3500 91.0400
" />
<path d="M153.3000 80.2000
L166.7500 80.2000
" />
<path d="M170.4000 83.8500
L170.4000 85.8000
" />
<path d="M152.5000 88.5000
L151.8000 89.2000
" />
<path d="M152.3500 91.0400
L154.0000 91.0400
" />
<path d="M149.5000 92.2000
L148.3400 91.0400
" />
<path d="M149.5000 102.7000
L149.5000 92.2000
" />
<path d="M143.1100 102.5400
L143.5200 102.5400
" />
<path d="M147.8000 104.4000
L149.5000 102.7000
" />
<path d="M148.3400 91.0400
L146.3800 91.0400
" />
<path d="M145.9200 104.4000
L147.8000 104.4000
" />
<path d="M140.9726 106.4000
L140.9726 103.2274
" />
<path d="M143.5200 102.5400
L145.3800 104.4000
" />
<path d="M141.6600 102.5400
L143.1100 102.5400
" />
<path d="M145.3800 104.4000
L145.9200 104.4000
" />
<path d="M140.9726 103.2274
L141.6600 102.5400
" />
<path d="M145.3200 93.5800
L146.3800 93.5800
" />
<path d="M143.1000 95.8000
L145.3200 93.5800
" />
</g>
<g style="fill:#FFFFFF; fill-opacity:0.0; 
stroke:#FFFFFF; stroke-width:0.2500; stroke-opacity:1; 
stroke-linecap:round; stroke-linejoin:round;">
<path d="M158.9800 82.4600
L159.1300 82.3100
" />
<path d="M139.7400 100.2400
L138.1000 98.6000
" />
<path d="M132.9500 102.5400
L132.9200 102.5100
" />
<path d="M138.1000 107.4400
L138.1000 95.8000
" />
<path d="M144.1600 100.2400
L139.7400 100.2400
" />
<path d="M163.5300 95.6200
L163.1200 95.6200
" />
<path d="M159.1200 108.8500
L139.5100 108.8500
" />
<path d="M164.4000 81.9700
L163.5300 82.8400
" />
<path d="M137.0000 77.0000
L132.9200 81.0800
" />
<path d="M132.9200 98.8000
L132.9200 97.1800
" />
<path d="M138.1000 95.8000
L138.1000 93.8000
" />
<path d="M171.9600 101.0400
L173.5000 99.5000
" />
<path d="M158.9800 106.6100
L160.1700 107.8000
" />
<path d="M173.5000 81.1600
L169.3400 77.0000
" />
<path d="M170.4000 101.0400
L170.4000 104.1000
" />
<path d="M159.1300 82.3100
L163.0000 82.3100
" />
<path d="M163.0000 82.3100
L163.5300 82.8400
" />
<path d="M169.3400 77.0000
L137.0000 77.0000
" />
<path d="M132.9200 97.1800
L134.3000 95.8000
" />
<path d="M132.9200 81.0800
L132.9200 98.8000
" />
<path d="M132.9200 102.5100
L132.9200 98.8000
" />
<path d="M146.3800 98.6600
L145.7400 98.6600
" />
<path d="M166.7000 107.8000
L160.1700 107.8000
" />
<path d="M170.4000 104.1000
L166.7000 107.8000
" />
<path d="M134.3000 95.8000
L138.1000 95.8000
" />
<path d="M139.5100 108.8500
L138.1000 107.4400
" />
<path d="M138.6200 93.2800
L139.8000 93.2800
" />
<path d="M173.5000 99.5000
L173.5000 81.1600
" />
<path d="M138.1000 93.8000
L138.6200 93.2800
" />
<path d="M138.1000 98.6000
L138.1000 95.8000
" />
<path d="M163.5300 82.8400
L163.5300 84.8800
" />
<path d="M160.1700 107.8000
L159.1200 108.8500
" />
<path d="M164.8000 81.9700
L164.4000 81.9700
" />
<path d="M158.9800 105.0300
L158.9800 106.6100
" />
<path d="M170.4000 101.0400
L171.9600 101.0400
" />
</g>
<g style="fill:#FFFFFF; fill-opacity:0.0; 
stroke:#FFFFFF; stroke-width:0.5000; stroke-opacity:1; 
stroke-linecap:round; stroke-linejoin:round;">
<path d="M144.2100 85.9600
L146.3800 85.9600
" />
<path d="M143.0000 83.1200
L143.0000 84.7500
" />
<path d="M136.6000 89.6400
L140.2800 85.9600
" />
<path d="M140.2800 85.9600
L146.3800 85.9600
" />
<path d="M136.6000 93.2800
L136.6000 89.6400
" />
<path d="M143.0000 84.7500
L144.2100 85.9600
" />
<path d="M143.0000 90.3800
L144.8800 88.5000
" />
<path d="M144.8800 88.5000
L146.3800 88.5000
" />
<path d="M143.0000 93.2800
L143.0000 90.3800
" />
<path d="M145.7600 96.1200
L143.0800 98.8000
" />
<path d="M146.3800 96.1200
L145.7600 96.1200
" />
<path d="M167.5000 103.5900
L166.5000 104.5900
" />
<path d="M151.7400 97.2800
L151.7400 102.3400
" />
<path d="M154.0000 96.1200
L152.9000 96.1200
" />
<path d="M154.4600 93.5800
L157.7600 90.2800
" />
<path d="M146.3800 101.2000
L146.3300 101.1500
" />
<path d="M157.5100 101.9800
L158.5500 100.9400
" />
<path d="M166.5000 104.5900
L164.4450 104.5900
" />
<path d="M170.4000 98.5000
L168.3300 98.5000
" />
<path d="M140.7000 101.1500
L139.2100 102.6400
" />
<path d="M152.9000 96.1200
L151.7400 97.2800
" />
<path d="M158.5500 100.9400
L163.6000 100.9400
" />
<path d="M146.3300 101.1500
L140.7000 101.1500
" />
<path d="M167.5000 99.3300
L167.5000 103.5900
" />
<path d="M164.4450 104.5900
L163.6000 103.7450
" />
<path d="M154.9000 103.1500
L155.5900 102.4600
" />
<path d="M154.0000 96.1200
L154.0000 93.5800
" />
<path d="M157.5100 106.2000
L157.5100 101.9800
" />
<path d="M139.2100 106.6736
L140.5564 108.0200
" />
<path d="M140.5564 108.0200
L155.6900 108.0200
" />
<path d="M139.2100 102.6400
L139.2100 106.6736
" />
<path d="M152.5500 103.1500
L154.9000 103.1500
" />
<path d="M151.7400 102.3400
L152.5500 103.1500
" />
<path d="M155.5900 102.4600
L157.0300 102.4600
" />
<path d="M168.3300 98.5000
L167.5000 99.3300
" />
<path d="M154.0000 93.5800
L154.4600 93.5800
" />
<path d="M157.0300 102.4600
L157.5100 101.9800
" />
<path d="M163.6000 103.7450
L163.6000 100.9400
" />
<path d="M157.7600 90.2800
L163.5300 90.2800
" />
<path d="M155.6900 108.0200
L157.5100 106.2000
" />
<path d="M155.9800 101.2000
L158.9800 98.2000
" />
<path d="M158.9800 98.2000
L158.9800 94.8700
" />
<path d="M164.8700 96.9600
L164.8000 96.8900
" />
<path d="M158.9800 94.8700
L158.9800 96.2200
" />
<path d="M164.8700 102.2100
L164.8700 96.9600
" />
<path d="M158.9800 96.2200
L159.6500 96.8900
" />
<path d="M159.6500 96.8900
L164.8000 96.8900
" />
<path d="M154.0000 101.2000
L155.9800 101.2000
" />
<path d="M158.9800 92.6200
L163.7300 92.6200
" />
<path d="M157.3200 92.6200
L158.9800 92.6200
" />
<path d="M164.8000 86.1500
L164.8000 91.5500
" />
<path d="M155.6200 98.6600
L156.5900 97.6900
" />
<path d="M154.0000 98.6600
L155.6200 98.6600
" />
<path d="M156.5900 93.3500
L157.3200 92.6200
" />
<path d="M163.7300 92.6200
L164.8000 91.5500
" />
<path d="M156.5900 97.6900
L156.5900 93.3500
" />
<path d="M139.8000 81.5800
L141.1800 80.2000
" />
<path d="M141.1800 80.2000
L143.1400 80.2000
" />
<path d="M139.8000 83.1200
L136.6000 83.1200
" />
<path d="M139.8000 83.1200
L139.8000 81.5800
" />
<path d="M166.9900 78.9500
L172.2000 84.1600
" />
<path d="M146.3800 80.7900
L148.2200 78.9500
" />
<path d="M146.3800 83.4200
L146.3800 80.7900
" />
<path d="M171.6100 93.4200
L170.4000 93.4200
" />
<path d="M172.2000 92.8300
L171.6100 93.4200
" />
<path d="M148.2200 78.9500
L166.9900 78.9500
" />
<path d="M172.2000 84.1600
L172.2000 92.8300
" />
<path d="M168.0100 88.3400
L170.4000 88.3400
" />
<path d="M166.0700 84.8800
L166.0700 90.2800
" />
<path d="M166.0700 90.2800
L168.0100 88.3400
" />
<path d="M166.0700 95.6200
L166.1400 95.6900
" />
<path d="M170.0600 95.6200
L170.4000 95.9600
" />
<path d="M166.0700 95.6200
L170.0600 95.6200
" />
<path d="M166.1400 95.6900
L166.1400 100.9400
" />
</g>
<g >
</g>
<g style="fill:#FFFFFF; fill-opacity:0.0; 
stroke:#FFFFFF; stroke-width:0.5000; stroke-opacity:1; 
stroke-linecap:round; stroke-linejoin:round;">
<g >
</g>
<g style="fill:#FFFFFF; fill-opacity:1.0000; 
stroke:#FFFFFF; stroke-width:0.0000; stroke-opacity:1; 
stroke-linecap:round; stroke-linejoin:round;">
<path style="fill:#FFFFFF; fill-opacity:1.0000; 
stroke:#FFFFFF; stroke-width:0.0000; stroke-opacity:1; 
stroke-linecap:round; stroke-linejoin:round;fill-rule:evenodd;"
d="M 169.2696,89.1045
169.3139,89.1434
169.3615,89.2114
169.5286,89.3785
169.7142,89.5084
169.7530,89.5527
169.7670,89.6100
169.7530,89.6673
169.7142,89.7116
169.5356,89.8366
169.5286,89.8415
169.3615,90.0086
169.2260,90.2022
169.1261,90.4163
169.0649,90.6446
169.0443,90.8800
169.0649,91.1154
169.0898,91.2081
169.1261,91.3437
169.2260,91.5578
169.3615,91.7514
169.5286,91.9185
169.7142,92.0484
169.7530,92.0927
169.7670,92.1500
169.7530,92.2073
169.7142,92.2516
169.5356,92.3766
169.5286,92.3815
169.3615,92.5486
169.2260,92.7422
169.1261,92.9563
169.0649,93.1846
169.0443,93.4200
169.0649,93.6554
169.1043,93.8023
169.1261,93.8837
169.2260,94.0978
169.3615,94.2914
169.5286,94.4585
169.7142,94.5884
169.7530,94.6327
169.7670,94.6900
169.7530,94.7473
169.7142,94.7916
169.6349,94.8471
169.6011,94.8638
169.5638,94.8695
167.2445,94.8695
167.1825,94.8529
167.1371,94.8075
167.1205,94.7455
167.1205,94.2721
167.1205,94.2721
167.1141,94.2125
167.0638,94.0777
166.9775,93.9625
166.8623,93.8762
166.7275,93.8259
166.6679,93.8195
166.6679,93.8195
165.4721,93.8195
165.4125,93.8259
165.2777,93.8762
165.1625,93.9625
165.0762,94.0777
165.0259,94.2125
165.0259,94.2125
165.0195,94.2721
165.0195,95.0745
165.0195,95.7655
165.0029,95.8275
164.9575,95.8729
164.8955,95.8895
164.7040,95.8895
164.6420,95.8729
164.5966,95.8275
164.5800,95.7655
164.5800,95.4700
162.4800,95.4700
162.4800,95.8885
162.4927,96.0016
162.4812,96.0693
162.4355,96.1205
162.3695,96.1395
160.0122,96.1395
159.9648,96.1301
159.9245,96.1032
159.8430,96.0216
159.8109,95.9660
159.8109,95.9018
159.8430,95.8462
159.9800,95.7091
160.1106,95.5227
160.2067,95.3165
160.2656,95.0967
160.2767,94.9700
162.4800,94.9700
163.2800,94.9700
163.2800,93.8200
163.7800,93.8200
163.7800,94.9700
164.5800,94.9700
164.5800,94.5515
164.5653,94.4215
164.5077,94.2566
164.4148,94.1087
164.2913,93.9852
164.1434,93.8923
163.9785,93.8346
163.8485,93.8200
163.7800,93.8200
163.2800,93.8200
163.2115,93.8200
163.0815,93.8346
162.9166,93.8923
162.7687,93.9852
162.6452,94.1087
162.5523,94.2566
162.4946,94.4215
162.4800,94.5515
162.4800,94.9700
160.2767,94.9700
160.2855,94.8700
160.2656,94.6433
160.2067,94.4235
160.1106,94.2173
160.1072,94.2125
159.9800,94.0309
159.8191,93.8700
159.8191,93.8700
159.7857,93.8466
159.7469,93.8023
159.7329,93.7450
159.7469,93.6877
159.7857,93.6434
159.8191,93.6200
159.9800,93.4591
160.0051,93.4234
160.0494,93.3845
160.1067,93.3705
163.6663,93.3705
163.6843,93.3718
163.6883,93.3724
163.7080,93.3753
163.7574,93.3710
163.7682,93.3705
163.7737,93.3705
163.7737,93.3705
163.8046,93.3669
163.8080,93.3665
163.8828,93.3600
163.8828,93.3600
163.8841,93.3599
163.9031,93.3557
163.9042,93.3552
163.9043,93.3552
163.9748,93.3296
163.9781,93.3284
164.0493,93.3048
164.0493,93.3048
164.0505,93.3044
164.0681,93.2959
164.0691,93.2952
164.0691,93.2952
164.0756,93.2910
164.1286,93.2715
164.1847,93.2775
164.3513,93.3358
164.4814,93.3505
164.4814,93.3505
165.1186,93.3505
165.1186,93.3505
165.2337,93.3375
165.2487,93.3358
165.4136,93.2781
165.5616,93.1851
165.6851,93.0616
165.7781,92.9136
165.8358,92.7487
165.8495,92.6275
165.8505,92.6186
165.8505,91.4045
165.8671,91.3425
165.9125,91.2971
165.9745,91.2805
166.6679,91.2805
166.6679,91.2805
166.7275,91.2741
166.8623,91.2238
166.9775,91.1375
167.0638,91.0223
167.1141,90.8875
167.1205,90.8279
167.1205,90.3422
167.1299,90.2948
167.1568,90.2545
168.2845,89.1268
168.3248,89.0999
168.3722,89.0905
169.2123,89.0905
Z" /> 
<path style="fill:#FFFFFF; fill-opacity:1.0000; 
stroke:#FFFFFF; stroke-width:0.0000; stroke-opacity:1; 
stroke-linecap:round; stroke-linejoin:round;fill-rule:evenodd;"
d="M 158.7061,80.9645
158.7504,81.0034
158.7718,81.0583
158.7654,81.1169
158.7326,81.1659
158.6809,81.1943
158.5337,81.2337
158.3275,81.3299
158.1412,81.4603
157.9803,81.6212
157.8499,81.8075
157.7537,82.0137
157.7011,82.2100
157.7011,82.2100
160.2589,82.2100
160.2589,82.2100
160.2063,82.0137
160.1101,81.8075
159.9797,81.6212
159.8188,81.4603
159.6325,81.3299
159.4263,81.2337
159.2791,81.1943
159.2274,81.1659
159.1946,81.1169
159.1882,81.0583
159.2096,81.0034
159.2539,80.9645
159.3112,80.9505
166.3878,80.9505
166.4352,80.9599
166.4755,80.9868
169.6132,84.1245
169.6401,84.1648
169.6495,84.2122
169.6495,84.3255
169.6329,84.3875
169.5875,84.4329
169.5255,84.4495
169.5021,84.4495
169.4723,84.4527
169.4425,84.4559
169.3077,84.5062
169.1925,84.5925
169.1062,84.7077
169.0559,84.8425
169.0495,84.9021
169.0495,86.6979
169.0559,86.7575
169.1062,86.8923
169.1925,87.0075
169.3077,87.0938
169.4199,87.1357
169.4391,87.1428
169.4895,87.1778
169.5169,87.2326
169.5147,87.2939
169.4834,87.3467
169.3615,87.4686
169.3139,87.5366
169.2696,87.5755
169.2123,87.5895
168.0737,87.5895
168.0557,87.5882
168.0419,87.5862
168.0320,87.5847
168.0320,87.5847
167.9826,87.5890
167.9718,87.5895
167.9663,87.5895
167.9355,87.5931
167.9319,87.5935
167.8559,87.6001
167.8369,87.6043
167.7653,87.6304
167.7619,87.6316
167.6895,87.6556
167.6719,87.6641
167.6082,87.7060
167.6052,87.7079
167.5403,87.7479
167.5252,87.7603
167.4728,87.8157
167.4703,87.8183
167.0322,88.2565
166.9828,88.2867
166.9251,88.2912
166.8716,88.2691
166.8340,88.2251
166.8205,88.1688
166.8205,85.9172
166.8336,85.8617
166.8702,85.8179
166.9775,85.7375
167.0638,85.6223
167.1141,85.4875
167.1205,85.4279
167.1205,83.5321
167.1141,83.4725
167.0638,83.3377
166.9775,83.2225
166.8623,83.1362
166.7275,83.0859
166.6679,83.0795
166.6679,83.0795
165.4721,83.0795
165.4125,83.0859
165.2777,83.1362
165.1625,83.2225
165.0762,83.3377
165.0259,83.4725
165.0259,83.4725
165.0195,83.5321
165.0195,84.3275
165.0195,85.0255
165.0029,85.0875
164.9575,85.1329
164.8955,85.1495
164.7040,85.1495
164.6420,85.1329
164.5966,85.0875
164.5800,85.0255
164.5800,84.7300
163.7800,84.7300
163.7800,85.6850
163.7730,85.7260
163.7642,85.7513
163.7495,85.8814
163.7495,87.2186
163.7642,87.3487
163.8219,87.5136
163.9149,87.6616
163.9149,87.6616
163.9149,87.6616
164.0132,87.7599
164.0401,87.8001
164.0495,87.8476
164.0495,88.3634
164.0305,88.4294
163.9793,88.4751
163.9116,88.4866
163.8486,88.4795
163.8486,88.4795
163.2114,88.4795
163.2114,88.4795
163.0813,88.4942
162.9164,88.5519
162.7684,88.6449
162.6449,88.7684
162.5519,88.9164
162.4942,89.0813
162.4795,89.2114
162.4795,89.4055
162.4629,89.4675
162.4175,89.5129
162.3555,89.5295
157.8237,89.5295
157.8057,89.5282
157.7919,89.5262
157.7820,89.5247
157.7820,89.5247
157.7326,89.5290
157.7218,89.5295
157.7163,89.5295
157.6855,89.5331
157.6819,89.5335
157.6060,89.5401
157.5869,89.5443
157.5152,89.5704
157.5118,89.5716
157.4395,89.5956
157.4219,89.6041
157.3582,89.6460
157.3552,89.6479
157.2903,89.6879
157.2752,89.7003
157.2228,89.7557
157.2203,89.7583
155.9123,91.0664
155.8514,91.0998
155.7822,91.0952
155.7262,91.0542
155.7010,90.9895
155.6856,90.8133
155.6856,90.8133
155.6267,90.5935
155.5306,90.3873
155.4990,90.3422
155.4000,90.2009
155.2391,90.0400
155.0527,89.9094
154.9947,89.8824
154.9425,89.8366
154.9231,89.7700
154.9425,89.7034
154.9947,89.6576
155.0527,89.6306
155.2391,89.5000
155.4000,89.3391
155.5306,89.1527
155.6267,88.9465
155.6856,88.7267
155.7055,88.5000
155.7037,88.4795
155.6856,88.2733
155.6856,88.2733
155.6267,88.0535
155.5306,87.8473
155.5148,87.8248
155.4000,87.6609
155.2391,87.5000
155.0527,87.3694
154.9947,87.3424
154.9425,87.2966
154.9231,87.2300
154.9425,87.1634
154.9947,87.1176
155.0527,87.0906
155.2391,86.9600
155.4000,86.7991
155.5306,86.6127
155.6267,86.4065
155.6856,86.1867
155.7055,85.9600
155.6856,85.7333
155.6267,85.5135
155.5306,85.3073
155.5148,85.2848
155.4000,85.1209
155.2391,84.9600
155.0527,84.8294
154.9947,84.8024
154.9425,84.7566
154.9348,84.7300
162.4800,84.7300
162.4800,85.1485
162.4946,85.2785
162.5523,85.4434
162.6452,85.5913
162.7687,85.7148
162.9166,85.8077
163.0815,85.8653
163.2115,85.8800
163.2800,85.8800
163.2800,84.7300
162.4800,84.7300
154.9348,84.7300
154.9231,84.6900
154.9425,84.6234
154.9947,84.5776
155.0527,84.5506
155.2391,84.4200
155.4000,84.2591
155.4204,84.2300
162.4800,84.2300
163.2800,84.2300
163.2800,83.0800
163.7800,83.0800
163.7800,84.2300
164.5800,84.2300
164.5800,83.8115
164.5653,83.6815
164.5077,83.5166
164.4148,83.3687
164.2913,83.2452
164.1434,83.1523
163.9785,83.0946
163.8485,83.0800
163.7800,83.0800
163.2800,83.0800
163.2115,83.0800
163.0815,83.0946
162.9166,83.1523
162.7687,83.2452
162.6452,83.3687
162.5523,83.5166
162.4946,83.6815
162.4800,83.8115
162.4800,84.2300
155.4204,84.2300
155.5306,84.0727
155.6267,83.8665
155.6856,83.6467
155.7055,83.4200
155.6856,83.1933
155.6267,82.9735
155.5306,82.7673
155.4905,82.7100
157.7011,82.7100
157.7537,82.9063
157.8499,83.1125
157.9803,83.2988
158.1412,83.4597
158.3275,83.5901
158.5337,83.6863
158.7300,83.7389
158.7300,83.7389
158.7300,82.7100
159.2300,82.7100
159.2300,83.7389
159.4263,83.6863
159.6325,83.5901
159.8188,83.4597
159.9797,83.2988
160.1101,83.1125
160.2063,82.9063
160.2589,82.7100
159.2300,82.7100
158.7300,82.7100
157.7011,82.7100
155.4905,82.7100
155.4000,82.5809
155.2391,82.4200
155.0527,82.2894
154.8465,82.1933
154.6267,82.1344
154.4568,82.1195
154.4568,82.1195
153.5432,82.1195
153.5432,82.1195
153.3733,82.1344
153.1535,82.1933
152.9473,82.2894
152.7520,82.4262
152.7513,82.4253
152.7128,82.4489
152.6551,82.4534
152.6016,82.4313
152.5640,82.3872
152.5505,82.3310
152.5505,81.4801
152.5658,81.4204
152.6079,81.3755
152.6664,81.3564
152.7269,81.3677
152.8535,81.4267
153.0733,81.4856
153.3000,81.5055
153.5267,81.4856
153.7465,81.4267
153.9527,81.3306
154.1391,81.2000
154.3000,81.0391
154.3245,81.0043
154.3251,81.0034
154.3694,80.9645
154.4267,80.9505
158.6488,80.9505
Z" /> 
<path style="fill:#FFFFFF; fill-opacity:1.0000; 
stroke:#FFFFFF; stroke-width:0.0000; stroke-opacity:1; 
stroke-linecap:round; stroke-linejoin:round;fill-rule:evenodd;"
d="M 174.4375,76.0171
174.4829,76.0625
174.4995,76.1245
174.4995,110.8755
174.4829,110.9375
174.4375,110.9829
174.3755,110.9995
130.6245,110.9995
130.5625,110.9829
130.5171,110.9375
130.5005,110.8755
130.5005,102.7900
131.6711,102.7900
131.7237,102.9863
131.8199,103.1925
131.9503,103.3788
132.1112,103.5397
132.2975,103.6701
132.5037,103.7663
132.7000,103.8189
132.7000,103.8189
132.7000,102.7900
133.2000,102.7900
133.2000,103.8189
133.3963,103.7663
133.6025,103.6701
133.7888,103.5397
133.9497,103.3788
134.0801,103.1925
134.1763,102.9863
134.2289,102.7900
133.2000,102.7900
132.7000,102.7900
131.6711,102.7900
130.5005,102.7900
130.5005,102.2900
131.6711,102.2900
132.7000,102.2900
132.7000,101.2611
133.2000,101.2611
133.2000,102.2900
134.2289,102.2900
134.2289,102.2900
134.1763,102.0937
134.0801,101.8875
133.9497,101.7012
133.7888,101.5403
133.6025,101.4099
133.3963,101.3137
133.2000,101.2611
132.7000,101.2611
132.7000,101.2611
132.5037,101.3137
132.2975,101.4099
132.1112,101.5403
131.9503,101.7012
131.8199,101.8875
131.7237,102.0937
131.6711,102.2900
131.6711,102.2900
130.5005,102.2900
130.5005,99.0500
131.6411,99.0500
131.6937,99.2463
131.7899,99.4525
131.9203,99.6388
132.0812,99.7997
132.2675,99.9301
132.4737,100.0263
132.6700,100.0789
132.6700,100.0789
132.6700,99.0500
133.1700,99.0500
133.1700,100.0789
133.3663,100.0263
133.5725,99.9301
133.7588,99.7997
133.9197,99.6388
134.0501,99.4525
134.1463,99.2463
134.1989,99.0500
133.1700,99.0500
132.6700,99.0500
131.6411,99.0500
130.5005,99.0500
130.5005,98.5500
131.6411,98.5500
132.6700,98.5500
132.6700,97.5211
133.1700,97.5211
133.1700,98.5500
134.1989,98.5500
134.1989,98.5500
134.1463,98.3537
134.0501,98.1475
133.9197,97.9612
133.7588,97.8003
133.5725,97.6699
133.3663,97.5737
133.1700,97.5211
132.6700,97.5211
132.6700,97.5211
132.4737,97.5737
132.2675,97.6699
132.0812,97.8003
131.9203,97.9612
131.7899,98.1475
131.6937,98.3537
131.6411,98.5500
131.6411,98.5500
130.5005,98.5500
130.5005,96.8790
137.3745,96.8790
137.4475,96.9301
137.6537,97.0263
137.8734,97.0851
138.1000,97.1050
138.3266,97.0851
138.5463,97.0263
138.7525,96.9301
138.8255,96.8790
138.1000,96.1536
138.1000,96.1536
137.3745,96.8790
137.3745,96.8790
130.5005,96.8790
130.5005,95.8000
136.7950,95.8000
136.8149,96.0266
136.8737,96.2463
136.9699,96.4525
137.0210,96.5255
137.0210,96.5255
137.7464,95.8000
138.4536,95.8000
139.1790,96.5255
139.2301,96.4525
139.3263,96.2463
139.3851,96.0266
139.4050,95.8000
139.3851,95.5734
139.3263,95.3537
139.2301,95.1475
139.1790,95.0745
138.4536,95.8000
137.7464,95.8000
137.7464,95.8000
137.0210,95.0745
136.9699,95.1475
136.8737,95.3537
136.8149,95.5734
136.7950,95.8000
130.5005,95.8000
130.5005,94.7210
137.3745,94.7210
138.1000,95.4464
138.1000,95.4464
138.8255,94.7210
138.8255,94.7210
138.7525,94.6699
138.5463,94.5737
138.3266,94.5149
138.1000,94.4950
137.8734,94.5149
137.6537,94.5737
137.4475,94.6699
137.3745,94.7210
137.3745,94.7210
130.5005,94.7210
130.5005,93.2800
135.2945,93.2800
135.3144,93.5067
135.3733,93.7265
135.4694,93.9327
135.6000,94.1191
135.7609,94.2800
135.9473,94.4106
135.9473,94.4106
135.9473,94.4106
136.1535,94.5067
136.3733,94.5656
136.6000,94.5855
136.8267,94.5656
137.0465,94.5067
137.2527,94.4106
137.4391,94.2800
137.6000,94.1191
137.7306,93.9327
137.8267,93.7265
137.8794,93.5300
138.5211,93.5300
138.5737,93.7263
138.6699,93.9325
138.8003,94.1188
138.9612,94.2797
139.1475,94.4101
139.3537,94.5063
139.5500,94.5589
139.5500,94.5589
139.5500,93.5300
140.0500,93.5300
140.0500,94.5589
140.2463,94.5063
140.4525,94.4101
140.6388,94.2797
140.7997,94.1188
140.9301,93.9325
141.0263,93.7263
141.0789,93.5300
140.0500,93.5300
139.5500,93.5300
138.5211,93.5300
137.8794,93.5300
137.8856,93.5067
137.9055,93.2800
137.9047,93.2715
137.8856,93.0533
137.8856,93.0533
137.8794,93.0300
138.5211,93.0300
139.5500,93.0300
139.5500,92.0011
140.0500,92.0011
140.0500,93.0300
141.0789,93.0300
141.0789,93.0300
141.0263,92.8337
140.9301,92.6275
140.7997,92.4412
140.6388,92.2803
140.4525,92.1499
140.2463,92.0537
140.0500,92.0011
139.5500,92.0011
139.5500,92.0011
139.3537,92.0537
139.1475,92.1499
138.9612,92.2803
138.8003,92.4412
138.6699,92.6275
138.5737,92.8337
138.5211,93.0300
138.5211,93.0300
137.8794,93.0300
137.8267,92.8335
137.7306,92.6273
137.7245,92.6186
137.6000,92.4409
137.4391,92.2800
137.4034,92.2549
137.3645,92.2106
137.3505,92.1533
137.3505,90.0022
137.3599,89.9548
137.3868,89.9145
140.5545,86.7468
140.5948,86.7199
140.6422,86.7105
144.1207,86.7105
144.1429,86.7128
144.1441,86.7127
144.1441,86.7127
144.2191,86.7106
144.2227,86.7105
144.8533,86.7105
144.9106,86.7245
144.9549,86.7634
144.9800,86.7991
145.1409,86.9600
145.2087,87.0075
145.3273,87.0906
145.3853,87.1176
145.4374,87.1634
145.4569,87.2300
145.4375,87.2966
145.3853,87.3424
145.3273,87.3694
145.1409,87.5000
144.9800,87.6609
144.9557,87.6956
144.9161,87.7318
144.8649,87.7480
144.8526,87.7490
144.8418,87.7495
144.8363,87.7495
144.8055,87.7531
144.8019,87.7535
144.7259,87.7601
144.7069,87.7643
144.6353,87.7904
144.6318,87.7916
144.5595,87.8156
144.5419,87.8241
144.4782,87.8660
144.4752,87.8679
144.4103,87.9079
144.3952,87.9203
144.3428,87.9757
144.3403,87.9783
142.5144,89.8043
142.5007,89.8161
142.4815,89.8304
142.4496,89.8683
142.4423,89.8763
142.4384,89.8802
142.4192,89.9045
142.4169,89.9073
142.3679,89.9657
142.3574,89.9822
142.3252,90.0513
142.3236,90.0545
142.2894,90.1227
142.2830,90.1411
142.2676,90.2158
142.2668,90.2193
142.2492,90.2935
142.2472,90.3129
142.2494,90.3891
142.2495,90.3927
142.2495,92.1533
142.2355,92.2106
142.1966,92.2549
142.1609,92.2800
142.0000,92.4409
141.8694,92.6273
141.7733,92.8335
141.7144,93.0533
141.6945,93.2800
141.7144,93.5067
141.7733,93.7265
141.8694,93.9327
142.0000,94.1191
142.1609,94.2800
142.3473,94.4106
142.3473,94.4106
142.3473,94.4106
142.4346,94.4513
142.4837,94.4925
142.5057,94.5528
142.4945,94.6161
142.4533,94.6652
142.2609,94.8000
142.1000,94.9609
141.9694,95.1473
141.8733,95.3535
141.8144,95.5733
141.7945,95.8000
141.8144,96.0267
141.8733,96.2465
141.9694,96.4527
142.1000,96.6391
142.2609,96.8000
142.4473,96.9306
142.4473,96.9306
142.4473,96.9306
142.6535,97.0267
142.8733,97.0856
143.1000,97.1055
143.3267,97.0856
143.4347,97.0567
143.4989,97.0567
143.5545,97.0888
143.5866,97.1444
143.5866,97.2086
143.5545,97.2641
143.3453,97.4733
143.3001,97.5021
143.2469,97.5091
143.0800,97.4945
142.8533,97.5144
142.6335,97.5733
142.4273,97.6694
142.2409,97.8000
142.0800,97.9609
141.9494,98.1473
141.8533,98.3535
141.7944,98.5733
141.7745,98.8000
141.7944,99.0267
141.8533,99.2465
141.9494,99.4527
142.0800,99.6391
142.2409,99.8000
142.4273,99.9306
142.4273,99.9306
142.4273,99.9306
142.6335,100.0267
142.8533,100.0856
143.0800,100.1055
143.3067,100.0856
143.5265,100.0267
143.7327,99.9306
143.9191,99.8000
144.0800,99.6391
144.2106,99.4527
144.3067,99.2465
144.3656,99.0267
144.3855,98.8000
144.3709,98.6331
144.3779,98.5799
144.4067,98.5347
144.5274,98.4139
144.5883,98.3805
144.6575,98.3851
144.6915,98.4100
148.0589,98.4100
148.0589,98.4100
148.0063,98.2137
147.9101,98.0075
147.7797,97.8212
147.6188,97.6603
147.4325,97.5299
147.3741,97.5027
147.3220,97.4569
147.3025,97.3903
147.3220,97.3236
147.3741,97.2779
147.4327,97.2506
147.6191,97.1200
147.7800,96.9591
147.9106,96.7727
148.0067,96.5665
148.0656,96.3467
148.0855,96.1200
148.0810,96.0693
148.0656,95.8933
148.0656,95.8933
148.0067,95.6735
147.9106,95.4673
147.8310,95.3537
147.7800,95.2809
147.6191,95.1200
147.4327,94.9894
147.3747,94.9624
147.3225,94.9166
147.3031,94.8500
147.3225,94.7834
147.3747,94.7376
147.4104,94.7210
147.4327,94.7106
147.6191,94.5800
147.7800,94.4191
147.9106,94.2327
148.0067,94.0265
148.0656,93.8067
148.0855,93.5800
148.0656,93.3533
148.0067,93.1335
147.9106,92.9273
147.9010,92.9136
147.7800,92.7409
147.6191,92.5800
147.4327,92.4494
147.3747,92.4224
147.3225,92.3766
147.3031,92.3100
147.3225,92.2434
147.3747,92.1976
147.4327,92.1706
147.6191,92.0400
147.7800,91.8791
147.7928,91.8609
147.8051,91.8434
147.8494,91.8045
147.9067,91.7905
147.9778,91.7905
148.0252,91.7999
148.0655,91.8268
148.7132,92.4745
148.7401,92.5148
148.7495,92.5622
148.7495,102.3378
148.7401,102.3852
148.7132,102.4255
147.5255,103.6132
147.4852,103.6401
147.4378,103.6495
147.0467,103.6495
146.9894,103.6355
146.9451,103.5966
146.9200,103.5609
146.7591,103.4000
146.5727,103.2694
146.3665,103.1733
146.1467,103.1144
145.9200,103.0945
145.6933,103.1144
145.4735,103.1733
145.3756,103.2189
145.3268,103.2305
145.2775,103.2217
145.2356,103.1942
144.4315,102.3901
144.4068,102.3548
144.3985,102.3238
144.3984,102.3238
144.3367,102.0935
144.3290,102.0769
144.3176,102.0164
144.3368,101.9579
144.3817,101.9158
144.4414,101.9005
144.8183,101.9005
144.8756,101.9145
144.9199,101.9534
144.9800,102.0391
145.1409,102.2000
145.3273,102.3306
145.3273,102.3306
145.3273,102.3306
145.5335,102.4267
145.7533,102.4856
145.8383,102.4931
145.9232,102.5005
145.9232,102.5005
146.8368,102.5005
146.8368,102.5005
146.9047,102.4946
147.0067,102.4856
147.2265,102.4267
147.4327,102.3306
147.6191,102.2000
147.7800,102.0391
147.9106,101.8527
148.0067,101.6465
148.0656,101.4267
148.0855,101.2000
148.0656,100.9733
148.0067,100.7535
147.9106,100.5473
147.8900,100.5179
147.7800,100.3609
147.6191,100.2000
147.4327,100.0694
147.3747,100.0424
147.3741,100.0421
147.3220,99.9963
147.3025,99.9297
147.3220,99.8631
147.3741,99.8173
147.4325,99.7901
147.6188,99.6597
147.7797,99.4988
147.9101,99.3125
148.0063,99.1063
148.0589,98.9100
144.7011,98.9100
144.7537,99.1063
144.8499,99.3125
144.9803,99.4988
145.1412,99.6597
145.3275,99.7901
145.3859,99.8173
145.4380,99.8631
145.4575,99.9297
145.4380,99.9963
145.3859,100.0421
145.3273,100.0694
145.1409,100.2000
144.9776,100.3632
144.9374,100.3901
144.8900,100.3995
140.7637,100.3995
140.7457,100.3982
140.7319,100.3962
140.7220,100.3947
140.7220,100.3947
140.6726,100.3990
140.6618,100.3995
140.6563,100.3995
140.6255,100.4031
140.6219,100.4035
140.5460,100.4101
140.5269,100.4143
140.4552,100.4404
140.4518,100.4416
140.3795,100.4656
140.3619,100.4741
140.2982,100.5160
140.2952,100.5179
140.2303,100.5579
140.2152,100.5703
140.1628,100.6257
140.1603,100.6283
138.7244,102.0643
138.7107,102.0761
138.6915,102.0904
138.6596,102.1283
138.6523,102.1363
138.6484,102.1402
138.6292,102.1645
138.6269,102.1673
138.5779,102.2257
138.5674,102.2422
138.5352,102.3113
138.5336,102.3145
138.4994,102.3827
138.4930,102.4011
138.4776,102.4758
138.4768,102.4793
138.4592,102.5535
138.4572,102.5729
138.4594,102.6491
138.4595,102.6527
138.4595,106.6099
138.4582,106.6279
138.4547,106.6516
138.4590,106.7010
138.4595,106.7118
138.4595,106.7173
138.4631,106.7481
138.4635,106.7517
138.4701,106.8276
138.4743,106.8467
138.4748,106.8479
138.4748,106.8479
138.5004,106.9183
138.5016,106.9217
138.5256,106.9941
138.5341,107.0117
138.5760,107.0754
138.5779,107.0784
138.6173,107.1423
138.6180,107.1433
138.6303,107.1584
138.6312,107.1593
138.6312,107.1593
138.6849,107.2100
138.6857,107.2108
138.6883,107.2133
139.9807,108.5056
139.9924,108.5193
140.0068,108.5385
140.0448,108.5704
140.0527,108.5777
140.0566,108.5816
140.0809,108.6008
140.0837,108.6031
140.1421,108.6521
140.1586,108.6626
140.1597,108.6631
140.1597,108.6631
140.2277,108.6948
140.2308,108.6963
140.2971,108.7296
140.2991,108.7306
140.3175,108.7370
140.3187,108.7373
140.3187,108.7373
140.3923,108.7524
140.3956,108.7532
140.4687,108.7705
140.4687,108.7705
140.4699,108.7708
140.4893,108.7728
140.4905,108.7727
140.4905,108.7727
140.5655,108.7706
140.5691,108.7705
155.6263,108.7705
155.6443,108.7718
155.6483,108.7724
155.6680,108.7753
155.7174,108.7710
155.7282,108.7705
155.7337,108.7705
155.7337,108.7705
155.7645,108.7669
155.7680,108.7665
155.8428,108.7600
155.8428,108.7600
155.8441,108.7599
155.8631,108.7557
155.8642,108.7552
155.8643,108.7552
155.9348,108.7296
155.9381,108.7284
156.0093,108.7048
156.0093,108.7048
156.0105,108.7044
156.0281,108.6959
156.0291,108.6952
156.0291,108.6952
156.0918,108.6540
156.0948,108.6521
156.1587,108.6127
156.1587,108.6127
156.1597,108.6120
156.1748,108.5998
156.1757,108.5988
156.1757,108.5988
156.2272,108.5443
156.2296,108.5417
157.9956,106.7757
158.0093,106.7640
158.0285,106.7496
158.0604,106.7116
158.0677,106.7037
158.0716,106.6998
158.0908,106.6755
158.0931,106.6727
158.1107,106.6516
158.1413,106.6152
158.1413,106.6152
158.1421,106.6142
158.1526,106.5978
158.1531,106.5967
158.1531,106.5967
158.1848,106.5286
158.1864,106.5255
158.2200,106.4584
158.2200,106.4584
158.2206,106.4573
158.2270,106.4389
158.2273,106.4377
158.2273,106.4377
158.2424,106.3642
158.2432,106.3607
158.2593,106.2928
158.2832,106.2438
158.3259,106.2098
158.3790,106.1974
158.4324,106.2090
158.5337,106.2563
158.7300,106.3089
158.7300,106.3089
158.7300,105.2800
159.2300,105.2800
159.2300,106.3089
159.4263,106.2563
159.6325,106.1601
159.8188,106.0297
159.9797,105.8688
160.1101,105.6825
160.2063,105.4763
160.2589,105.2800
159.2300,105.2800
158.7300,105.2800
158.7300,103.7511
159.2300,103.7511
159.2300,104.7800
160.2589,104.7800
160.2589,104.7800
160.2063,104.5837
160.1101,104.3775
159.9797,104.1912
159.8188,104.0303
159.6325,103.8999
159.4263,103.8037
159.2300,103.7511
158.7300,103.7511
158.7300,103.7511
158.5337,103.8037
158.4369,103.8489
158.3764,103.8602
158.3179,103.8411
158.2758,103.7961
158.2605,103.7365
158.2605,102.3422
158.2699,102.2948
158.2968,102.2545
158.8245,101.7268
158.8648,101.6999
158.9122,101.6905
162.7024,101.6905
162.7499,101.6999
162.7901,101.7268
162.8132,101.7499
162.8401,101.7901
162.8495,101.8376
162.8495,103.6813
162.8482,103.6993
162.8447,103.7230
162.8490,103.7724
162.8495,103.7832
162.8495,103.7887
162.8531,103.8195
162.8535,103.8231
162.8601,103.8990
162.8643,103.9181
162.8648,103.9193
162.8648,103.9193
162.8904,103.9897
162.8916,103.9931
162.9156,104.0655
162.9241,104.0831
162.9660,104.1468
162.9679,104.1498
163.0073,104.2137
163.0080,104.2147
163.0203,104.2298
163.0757,104.2822
163.0783,104.2847
163.8693,105.0756
163.8810,105.0893
163.8954,105.1085
163.8954,105.1085
163.8954,105.1085
163.9333,105.1404
163.9413,105.1477
163.9452,105.1516
163.9695,105.1708
163.9723,105.1731
164.0308,105.2221
164.0472,105.2326
164.0483,105.2331
164.0483,105.2331
164.1163,105.2648
164.1195,105.2663
164.1855,105.2995
164.1877,105.3006
164.2061,105.3070
164.2073,105.3073
164.2073,105.3073
164.2809,105.3224
164.2842,105.3232
164.3573,105.3405
164.3573,105.3405
164.3585,105.3408
164.3779,105.3428
164.3791,105.3427
164.3791,105.3427
164.4541,105.3406
164.4577,105.3405
166.4363,105.3405
166.4543,105.3418
166.4583,105.3424
166.4780,105.3453
166.5274,105.3410
166.5382,105.3405
166.5437,105.3405
166.5437,105.3405
166.5745,105.3369
166.5780,105.3365
166.6528,105.3300
166.6528,105.3300
166.6541,105.3299
166.6731,105.3257
166.6743,105.3252
166.6743,105.3252
166.7448,105.2996
166.7481,105.2984
166.8193,105.2748
166.8193,105.2748
166.8205,105.2744
166.8381,105.2659
166.8391,105.2652
166.8391,105.2652
166.9018,105.2240
166.9048,105.2221
166.9687,105.1827
166.9687,105.1827
166.9697,105.1820
166.9848,105.1698
166.9857,105.1688
166.9857,105.1688
167.0372,105.1142
167.0396,105.1117
167.9856,104.1657
167.9993,104.1540
168.0185,104.1396
168.0504,104.1016
168.0577,104.0937
168.0616,104.0898
168.0808,104.0655
168.0831,104.0627
168.1102,104.0303
168.1313,104.0052
168.1313,104.0052
168.1321,104.0042
168.1426,103.9878
168.1431,103.9867
168.1431,103.9867
168.1748,103.9186
168.1764,103.9155
168.2100,103.8484
168.2100,103.8484
168.2106,103.8473
168.2170,103.8289
168.2177,103.8256
168.2256,103.7871
168.2324,103.7542
168.2332,103.7507
168.2398,103.7230
168.2505,103.6777
168.2508,103.6765
168.2528,103.6571
168.2527,103.6559
168.2527,103.6559
168.2506,103.5809
168.2505,103.5773
168.2505,101.2900
169.0694,101.2900
169.1266,101.5035
169.2264,101.7176
169.3619,101.9111
169.5289,102.0781
169.7224,102.2136
169.9365,102.3134
170.1500,102.3706
170.1500,102.3706
170.1500,101.2900
170.6500,101.2900
170.6500,102.3706
170.8635,102.3134
171.0776,102.2136
171.2711,102.0781
171.4381,101.9111
171.5736,101.7176
171.6734,101.5035
171.7306,101.2900
170.6500,101.2900
170.1500,101.2900
169.0694,101.2900
168.2505,101.2900
168.2505,99.6922
168.2599,99.6448
168.2868,99.6045
168.6045,99.2868
168.6448,99.2599
168.6922,99.2505
169.2123,99.2505
169.2696,99.2645
169.3139,99.3034
169.3615,99.3714
169.5286,99.5385
169.7146,99.6687
169.7535,99.7130
169.7675,99.7703
169.7535,99.8276
169.7146,99.8719
169.5289,100.0019
169.3619,100.1689
169.2264,100.3624
169.1266,100.5765
169.0694,100.7900
169.0694,100.7900
171.7306,100.7900
171.7306,100.7900
171.6734,100.5765
171.5736,100.3624
171.4381,100.1689
171.2711,100.0019
171.0854,99.8719
171.0465,99.8276
171.0325,99.7703
171.0465,99.7130
171.0854,99.6687
171.2714,99.5385
171.4385,99.3714
171.5740,99.1778
171.6739,98.9637
171.7351,98.7354
171.7557,98.5000
171.7351,98.2646
171.6739,98.0363
171.5740,97.8222
171.4385,97.6286
171.2714,97.4615
171.0858,97.3316
171.0470,97.2873
171.0330,97.2300
171.0470,97.1727
171.0858,97.1284
171.2714,96.9985
171.4385,96.8314
171.5740,96.6378
171.6739,96.4237
171.7351,96.1954
171.7557,95.9600
171.7351,95.7246
171.6739,95.4963
171.5740,95.2822
171.4385,95.0886
171.2714,94.9215
171.0858,94.7916
171.0470,94.7473
171.0330,94.6900
171.0470,94.6327
171.0858,94.5884
171.2714,94.4585
171.4385,94.2914
171.4823,94.2289
171.5348,94.1861
171.5740,94.1810
171.5736,94.1766
171.5880,94.1753
171.5880,94.1753
171.6374,94.1710
171.6482,94.1705
171.6537,94.1705
171.6537,94.1705
171.6846,94.1669
171.6880,94.1665
171.7628,94.1600
171.7628,94.1600
171.7641,94.1599
171.7831,94.1557
171.7842,94.1552
171.7843,94.1552
171.8548,94.1296
171.8581,94.1284
171.9293,94.1048
171.9293,94.1048
171.9305,94.1044
171.9481,94.0959
171.9491,94.0952
171.9491,94.0952
172.0118,94.0540
172.0148,94.0521
172.0787,94.0127
172.0787,94.0127
172.0797,94.0121
172.0948,93.9998
172.0957,93.9988
172.0957,93.9988
172.1472,93.9443
172.1496,93.9417
172.6856,93.4057
172.6993,93.3940
172.7185,93.3796
172.7504,93.3417
172.7577,93.3337
172.7616,93.3298
172.7808,93.3054
172.7831,93.3027
172.8042,93.2775
172.8313,93.2452
172.8313,93.2452
172.8321,93.2442
172.8426,93.2278
172.8431,93.2267
172.8431,93.2267
172.8748,93.1586
172.8764,93.1555
172.9100,93.0884
172.9100,93.0884
172.9106,93.0873
172.9170,93.0689
172.9173,93.0677
172.9173,93.0677
172.9324,92.9941
172.9332,92.9908
172.9505,92.9177
172.9505,92.9177
172.9508,92.9165
172.9528,92.8971
172.9527,92.8959
172.9527,92.8959
172.9506,92.8209
172.9505,92.8173
172.9505,84.2237
172.9518,84.2057
172.9523,84.2021
172.9553,84.1820
172.9510,84.1326
172.9505,84.1218
172.9505,84.1163
172.9469,84.0855
172.9465,84.0819
172.9399,84.0059
172.9357,83.9869
172.9096,83.9153
172.9084,83.9119
172.8947,83.8705
172.8848,83.8407
172.8848,83.8407
172.8844,83.8395
172.8759,83.8219
172.8752,83.8209
172.8752,83.8209
172.8340,83.7582
172.8321,83.7552
172.7920,83.6903
172.7797,83.6752
172.7243,83.6228
172.7217,83.6203
167.5657,78.4644
167.5539,78.4507
167.5396,78.4315
167.5017,78.3996
167.4937,78.3923
167.4898,78.3884
167.4898,78.3884
167.4898,78.3884
167.4654,78.3692
167.4626,78.3669
167.4043,78.3179
167.3878,78.3074
167.3187,78.2752
167.3154,78.2736
167.2473,78.2394
167.2289,78.2330
167.1542,78.2176
167.1507,78.2168
167.0765,78.1992
167.0571,78.1972
166.9809,78.1994
166.9773,78.1995
148.2837,78.1995
148.2657,78.1982
148.2519,78.1962
148.2420,78.1947
148.2420,78.1947
148.1926,78.1990
148.1818,78.1995
148.1763,78.1995
148.1455,78.2031
148.1419,78.2035
148.0660,78.2101
148.0469,78.2143
147.9752,78.2404
147.9718,78.2416
147.8995,78.2656
147.8819,78.2741
147.8182,78.3160
147.8152,78.3179
147.7503,78.3579
147.7352,78.3703
147.6828,78.4257
147.6803,78.4283
145.8944,80.2143
145.8807,80.2261
145.8615,80.2404
145.8296,80.2783
145.8223,80.2863
145.8184,80.2902
145.7992,80.3145
145.7969,80.3173
145.7479,80.3757
145.7374,80.3922
145.7052,80.4613
145.7036,80.4645
145.6694,80.5327
145.6630,80.5511
145.6476,80.6258
145.6468,80.6293
145.6292,80.7035
145.6272,80.7229
145.6294,80.7991
145.6295,80.8027
145.6295,81.9955
145.6129,82.0575
145.5675,82.1029
145.5055,82.1195
145.1321,82.1195
145.1023,82.1227
145.0725,82.1259
144.9377,82.1762
144.8225,82.2625
144.7362,82.3777
144.6859,82.5125
144.6795,82.5721
144.6795,84.2679
144.6859,84.3275
144.6931,84.3467
144.7362,84.4623
144.8225,84.5775
144.9377,84.6638
145.0725,84.7141
145.1076,84.7179
145.1635,84.7382
145.2035,84.7823
145.2183,84.8400
145.2046,84.8979
145.1655,84.9427
145.1409,84.9600
144.9800,85.1209
144.9549,85.1566
144.9106,85.1955
144.8533,85.2095
144.5722,85.2095
144.5248,85.2001
144.4845,85.1732
143.7868,84.4755
143.7599,84.4352
143.7505,84.3878
143.7505,84.2467
143.7645,84.1894
143.8034,84.1451
143.8391,84.1200
144.0000,83.9591
144.0251,83.9234
144.1306,83.7727
144.2267,83.5665
144.2856,83.3467
144.3055,83.1200
144.2856,82.8933
144.2267,82.6735
144.1306,82.4673
144.1012,82.4253
144.0000,82.2809
143.8391,82.1200
143.6527,81.9894
143.4465,81.8933
143.2267,81.8344
143.0000,81.8145
142.7733,81.8344
142.5535,81.8933
142.3473,81.9894
142.1609,82.1200
142.0000,82.2809
141.8694,82.4673
141.7733,82.6735
141.7144,82.8933
141.6945,83.1200
141.7144,83.3467
141.7733,83.5665
141.8694,83.7727
142.0000,83.9591
142.1609,84.1200
142.1966,84.1451
142.2355,84.1894
142.2495,84.2467
142.2495,84.6863
142.2482,84.7043
142.2447,84.7280
142.2490,84.7774
142.2495,84.7882
142.2495,84.7937
142.2531,84.8245
142.2535,84.8281
142.2599,84.9021
142.2601,84.9040
142.2643,84.9231
142.2648,84.9243
142.2648,84.9243
142.2904,84.9947
142.2916,84.9981
142.3076,85.0465
142.3125,85.1044
142.2904,85.1581
142.2464,85.1959
142.1899,85.2095
140.3437,85.2095
140.3257,85.2082
140.3119,85.2062
140.3020,85.2047
140.3020,85.2047
140.2526,85.2090
140.2418,85.2095
140.2363,85.2095
140.2055,85.2131
140.2019,85.2135
140.1260,85.2201
140.1069,85.2243
140.0352,85.2504
140.0318,85.2516
139.9595,85.2756
139.9419,85.2841
139.8782,85.3260
139.8752,85.3279
139.8103,85.3679
139.7952,85.3803
139.7428,85.4357
139.7403,85.4383
136.1144,89.0643
136.1007,89.0761
136.0815,89.0904
136.0496,89.1283
136.0423,89.1363
136.0384,89.1402
136.0192,89.1645
136.0169,89.1673
135.9679,89.2257
135.9574,89.2422
135.9252,89.3113
135.9236,89.3145
135.8894,89.3827
135.8830,89.4011
135.8676,89.4758
135.8668,89.4793
135.8492,89.5535
135.8472,89.5729
135.8494,89.6491
135.8495,89.6527
135.8495,92.1533
135.8355,92.2106
135.7966,92.2549
135.7609,92.2800
135.6000,92.4409
135.4694,92.6273
135.3733,92.8335
135.3144,93.0533
135.2945,93.2800
130.5005,93.2800
130.5005,83.1200
135.2945,83.1200
135.3144,83.3467
135.3733,83.5665
135.4694,83.7727
135.6000,83.9591
135.7609,84.1200
135.9473,84.2506
135.9473,84.2506
135.9473,84.2506
136.1535,84.3467
136.3733,84.4056
136.6000,84.4255
136.8267,84.4056
137.0465,84.3467
137.2527,84.2506
137.4391,84.1200
137.6000,83.9591
137.6251,83.9234
137.6694,83.8845
137.7267,83.8705
138.6733,83.8705
138.7306,83.8845
138.7749,83.9234
138.8000,83.9591
138.9609,84.1200
139.1473,84.2506
139.1473,84.2506
139.1473,84.2506
139.3535,84.3467
139.5733,84.4056
139.8000,84.4255
140.0267,84.4056
140.2465,84.3467
140.4527,84.2506
140.6391,84.1200
140.8000,83.9591
140.9306,83.7727
141.0267,83.5665
141.0856,83.3467
141.1055,83.1200
141.0856,82.8933
141.0267,82.6735
140.9306,82.4673
140.9012,82.4253
140.8000,82.2809
140.6391,82.1200
140.6034,82.0949
140.5645,82.0506
140.5505,81.9933
140.5505,81.9422
140.5599,81.8948
140.5868,81.8545
141.4545,80.9868
141.4948,80.9599
141.5422,80.9505
142.0133,80.9505
142.0706,80.9645
142.1149,81.0034
142.1400,81.0391
142.3009,81.2000
142.4873,81.3306
142.4873,81.3306
142.4873,81.3306
142.6935,81.4267
142.9133,81.4856
143.1400,81.5055
143.3667,81.4856
143.5865,81.4267
143.7927,81.3306
143.9791,81.2000
144.1400,81.0391
144.2706,80.8527
144.3667,80.6465
144.4256,80.4267
144.4455,80.2000
144.4256,79.9733
144.3667,79.7535
144.2706,79.5473
144.2548,79.5248
144.1400,79.3609
143.9791,79.2000
143.7927,79.0694
143.5865,78.9733
143.3667,78.9144
143.1400,78.8945
142.9133,78.9144
142.6935,78.9733
142.4873,79.0694
142.3009,79.2000
142.1400,79.3609
142.1149,79.3966
142.0706,79.4355
142.0133,79.4495
141.2437,79.4495
141.2257,79.4482
141.2119,79.4462
141.2020,79.4447
141.2020,79.4447
141.1526,79.4490
141.1418,79.4495
141.1363,79.4495
141.1055,79.4531
141.1019,79.4535
141.0260,79.4601
141.0069,79.4643
140.9352,79.4904
140.9318,79.4916
140.8595,79.5156
140.8419,79.5241
140.7782,79.5660
140.7752,79.5679
140.7103,79.6079
140.6952,79.6203
140.6428,79.6757
140.6403,79.6783
139.3144,81.0043
139.3007,81.0161
139.2815,81.0304
139.2496,81.0683
139.2423,81.0763
139.2384,81.0802
139.2192,81.1045
139.2169,81.1073
139.1679,81.1657
139.1574,81.1822
139.1252,81.2513
139.1236,81.2545
139.0894,81.3227
139.0830,81.3411
139.0676,81.4158
139.0668,81.4193
139.0492,81.4935
139.0472,81.5129
139.0494,81.5891
139.0495,81.5927
139.0495,81.9933
139.0355,82.0506
138.9966,82.0949
138.9609,82.1200
138.8000,82.2809
138.7749,82.3166
138.7306,82.3555
138.6733,82.3695
137.7267,82.3695
137.6694,82.3555
137.6251,82.3166
137.6000,82.2809
137.4391,82.1200
137.2527,81.9894
137.0465,81.8933
136.8267,81.8344
136.6000,81.8145
136.3733,81.8344
136.1535,81.8933
135.9473,81.9894
135.7609,82.1200
135.6000,82.2809
135.4694,82.4673
135.3733,82.6735
135.3144,82.8933
135.2945,83.1200
130.5005,83.1200
130.5005,76.1245
130.5171,76.0625
130.5625,76.0171
130.6245,76.0005
174.3755,76.0005
Z" /> 
</g>
</g>
</g>
<g style="fill:#000000; fill-opacity:1.0000; 
stroke:#000000; stroke-width:0.0000; stroke-opacity:1; 
stroke-linecap:round; stroke-linejoin:round;">
<circle cx="169.6000" cy="77.2600" r="0.5000" /> 
</g>
<g style="fill:#000000; fill-opacity:1.0000; 
stroke:#000000; stroke-width:0.0212; stroke-opacity:1; 
stroke-linecap:round; stroke-linejoin:round;">
</g>
<g style="fill:#000000; fill-opacity:1.0000; 
stroke:#000000; stroke-width:0.0000; stroke-opacity:1; 
stroke-linecap:round; stroke-linejoin:round;">
<circle cx="161.5000" cy="86.0000" r="0.5000" /> 
</g>
<g style="fill:#000000; fill-opacity:1.0000; 
stroke:#000000; stroke-width:0.0212; stroke-opacity:1; 
stroke-linecap:round; stroke-linejoin:round;">
</g>
<g style="fill:#000000; fill-opacity:1.0000; 
stroke:#000000; stroke-width:0.0000; stroke-opacity:1; 
stroke-linecap:round; stroke-linejoin:round;">
<circle cx="161.5000" cy="94.9000" r="0.5000" /> 
</g>
<g style="fill:#000000; fill-opacity:1.0000; 
stroke:#000000; stroke-width:0.0212; stroke-opacity:1; 
stroke-linecap:round; stroke-linejoin:round;">
</g>
<g style="fill:#000000; fill-opacity:1.0000; 
stroke:#000000; stroke-width:0.0000; stroke-opacity:1; 
stroke-linecap:round; stroke-linejoin:round;">
<circle cx="164.8000" cy="81.9700" r="0.5000" /> 
</g>
<g style="fill:#000000; fill-opacity:1.0000; 
stroke:#000000; stroke-width:0.0212; stroke-opacity:1; 
stroke-linecap:round; stroke-linejoin:round;">
</g>
<g style="fill:#000000; fill-opacity:1.0000; 
stroke:#000000; stroke-width:0.0000; stroke-opacity:1; 
stroke-linecap:round; stroke-linejoin:round;">
<circle cx="143.1000" cy="95.8000" r="0.4000" /> 
</g>
<g style="fill:#000000; fill-opacity:1.0000; 
stroke:#000000; stroke-width:0.0212; stroke-opacity:1; 
stroke-linecap:round; stroke-linejoin:round;">
</g>
<g style="fill:#000000; fill-opacity:1.0000; 
stroke:#000000; stroke-width:0.0000; stroke-opacity:1; 
stroke-linecap:round; stroke-linejoin:round;">
<circle cx="138.1000" cy="95.8000" r="0.4000" /> 
</g>
<g style="fill:#000000; fill-opacity:1.0000; 
stroke:#000000; stroke-width:0.0212; stroke-opacity:1; 
stroke-linecap:round; stroke-linejoin:round;">
</g>
<g style="fill:#000000; fill-opacity:1.0000; 
stroke:#000000; stroke-width:0.0000; stroke-opacity:1; 
stroke-linecap:round; stroke-linejoin:round;">
<circle cx="170.4000" cy="85.8000" r="0.5000" /> 
</g>
<g style="fill:#000000; fill-opacity:1.0000; 
stroke:#000000; stroke-width:0.0212; stroke-opacity:1; 
stroke-linecap:round; stroke-linejoin:round;">
</g>
<g style="fill:#000000; fill-opacity:1.0000; 
stroke:#000000; stroke-width:0.0000; stroke-opacity:1; 
stroke-linecap:round; stroke-linejoin:round;">
<circle cx="170.4000" cy="88.3400" r="0.5000" /> 
</g>
<g style="fill:#000000; fill-opacity:1.0000; 
stroke:#000000; stroke-width:0.0212; stroke-opacity:1; 
stroke-linecap:round; stroke-linejoin:round;">
</g>
<g style="fill:#000000; fill-opacity:1.0000; 
stroke:#000000; stroke-width:0.0000; stroke-opacity:1; 
stroke-linecap:round; stroke-linejoin:round;">
<circle cx="170.4000" cy="90.8800" r="0.5000" /> 
</g>
<g style="fill:#000000; fill-opacity:1.0000; 
stroke:#000000; stroke-width:0.0212; stroke-opacity:1; 
stroke-linecap:round; stroke-linejoin:round;">
</g>
<g style="fill:#000000; fill-opacity:1.0000; 
stroke:#000000; stroke-width:0.0000; stroke-opacity:1; 
stroke-linecap:round; stroke-linejoin:round;">
<circle cx="170.4000" cy="93.4200" r="0.5000" /> 
</g>
<g style="fill:#000000; fill-opacity:1.0000; 
stroke:#000000; stroke-width:0.0212; stroke-opacity:1; 
stroke-linecap:round; stroke-linejoin:round;">
</g>
<g style="fill:#000000; fill-opacity:1.0000; 
stroke:#000000; stroke-width:0.0000; stroke-opacity:1; 
stroke-linecap:round; stroke-linejoin:round;">
<circle cx="170.4000" cy="95.9600" r="0.5000" /> 
</g>
<g style="fill:#000000; fill-opacity:1.0000; 
stroke:#000000; stroke-width:0.0212; stroke-opacity:1; 
stroke-linecap:round; stroke-linejoin:round;">
</g>
<g style="fill:#000000; fill-opacity:1.0000; 
stroke:#000000; stroke-width:0.0000; stroke-opacity:1; 
stroke-linecap:round; stroke-linejoin:round;">
<circle cx="170.4000" cy="98.5000" r="0.5000" /> 
</g>
<g style="fill:#000000; fill-opacity:1.0000; 
stroke:#000000; stroke-width:0.0212; stroke-opacity:1; 
stroke-linecap:round; stroke-linejoin:round;">
</g>
<g style="fill:#000000; fill-opacity:1.0000; 
stroke:#000000; stroke-width:0.0000; stroke-opacity:1; 
stroke-linecap:round; stroke-linejoin:round;">
<circle cx="170.4000" cy="101.0400" r="0.5000" /> 
</g>
<g style="fill:#000000; fill-opacity:1.0000; 
stroke:#000000; stroke-width:0.0212; stroke-opacity:1; 
stroke-linecap:round; stroke-linejoin:round;">
</g>
<g style="fill:#000000; fill-opacity:1.0000; 
stroke:#000000; stroke-width:0.0000; stroke-opacity:1; 
stroke-linecap:round; stroke-linejoin:round;">
<circle cx="146.3800" cy="83.4200" r="0.4000" /> 
</g>
<g style="fill:#000000; fill-opacity:1.0000; 
stroke:#000000; stroke-width:0.0212; stroke-opacity:1; 
stroke-linecap:round; stroke-linejoin:round;">
</g>
<g style="fill:#000000; fill-opacity:1.0000; 
stroke:#000000; stroke-width:0.0000; stroke-opacity:1; 
stroke-linecap:round; stroke-linejoin:round;">
<circle cx="146.3800" cy="85.9600" r="0.4000" /> 
</g>
<g style="fill:#000000; fill-opacity:1.0000; 
stroke:#000000; stroke-width:0.0212; stroke-opacity:1; 
stroke-linecap:round; stroke-linejoin:round;">
</g>
<g style="fill:#000000; fill-opacity:1.0000; 
stroke:#000000; stroke-width:0.0000; stroke-opacity:1; 
stroke-linecap:round; stroke-linejoin:round;">
<circle cx="146.3800" cy="88.5000" r="0.4000" /> 
</g>
<g style="fill:#000000; fill-opacity:1.0000; 
stroke:#000000; stroke-width:0.0212; stroke-opacity:1; 
stroke-linecap:round; stroke-linejoin:round;">
</g>
<g style="fill:#000000; fill-opacity:1.0000; 
stroke:#000000; stroke-width:0.0000; stroke-opacity:1; 
stroke-linecap:round; stroke-linejoin:round;">
<circle cx="146.3800" cy="91.0400" r="0.4000" /> 
</g>
<g style="fill:#000000; fill-opacity:1.0000; 
stroke:#000000; stroke-width:0.0212; stroke-opacity:1; 
stroke-linecap:round; stroke-linejoin:round;">
</g>
<g style="fill:#000000; fill-opacity:1.0000; 
stroke:#000000; stroke-width:0.0000; stroke-opacity:1; 
stroke-linecap:round; stroke-linejoin:round;">
<circle cx="146.3800" cy="93.5800" r="0.4000" /> 
</g>
<g style="fill:#000000; fill-opacity:1.0000; 
stroke:#000000; stroke-width:0.0212; stroke-opacity:1; 
stroke-linecap:round; stroke-linejoin:round;">
</g>
<g style="fill:#000000; fill-opacity:1.0000; 
stroke:#000000; stroke-width:0.0000; stroke-opacity:1; 
stroke-linecap:round; stroke-linejoin:round;">
<circle cx="146.3800" cy="96.1200" r="0.4000" /> 
</g>
<g style="fill:#000000; fill-opacity:1.0000; 
stroke:#000000; stroke-width:0.0212; stroke-opacity:1; 
stroke-linecap:round; stroke-linejoin:round;">
</g>
<g style="fill:#000000; fill-opacity:1.0000; 
stroke:#000000; stroke-width:0.0000; stroke-opacity:1; 
stroke-linecap:round; stroke-linejoin:round;">
<circle cx="146.3800" cy="98.6600" r="0.4000" /> 
</g>
<g style="fill:#000000; fill-opacity:1.0000; 
stroke:#000000; stroke-width:0.0212; stroke-opacity:1; 
stroke-linecap:round; stroke-linejoin:round;">
</g>
<g style="fill:#000000; fill-opacity:1.0000; 
stroke:#000000; stroke-width:0.0000; stroke-opacity:1; 
stroke-linecap:round; stroke-linejoin:round;">
<circle cx="146.3800" cy="101.2000" r="0.4000" /> 
</g>
<g style="fill:#000000; fill-opacity:1.0000; 
stroke:#000000; stroke-width:0.0212; stroke-opacity:1; 
stroke-linecap:round; stroke-linejoin:round;">
</g>
<g style="fill:#000000; fill-opacity:1.0000; 
stroke:#000000; stroke-width:0.0000; stroke-opacity:1; 
stroke-linecap:round; stroke-linejoin:round;">
<circle cx="154.0000" cy="101.2000" r="0.4000" /> 
</g>
<g style="fill:#000000; fill-opacity:1.0000; 
stroke:#000000; stroke-width:0.0212; stroke-opacity:1; 
stroke-linecap:round; stroke-linejoin:round;">
</g>
<g style="fill:#000000; fill-opacity:1.0000; 
stroke:#000000; stroke-width:0.0000; stroke-opacity:1; 
stroke-linecap:round; stroke-linejoin:round;">
<circle cx="154.0000" cy="98.6600" r="0.4000" /> 
</g>
<g style="fill:#000000; fill-opacity:1.0000; 
stroke:#000000; stroke-width:0.0212; stroke-opacity:1; 
stroke-linecap:round; stroke-linejoin:round;">
</g>
<g style="fill:#000000; fill-opacity:1.0000; 
stroke:#000000; stroke-width:0.0000; stroke-opacity:1; 
stroke-linecap:round; stroke-linejoin:round;">
<circle cx="154.0000" cy="96.1200" r="0.4000" /> 
</g>
<g style="fill:#000000; fill-opacity:1.0000; 
stroke:#000000; stroke-width:0.0212; stroke-opacity:1; 
stroke-linecap:round; stroke-linejoin:round;">
</g>
<g style="fill:#000000; fill-opacity:1.0000; 
stroke:#000000; stroke-width:0.0000; stroke-opacity:1; 
stroke-linecap:round; stroke-linejoin:round;">
<circle cx="154.0000" cy="93.5800" r="0.4000" /> 
</g>
<g style="fill:#000000; fill-opacity:1.0000; 
stroke:#000000; stroke-width:0.0212; stroke-opacity:1; 
stroke-linecap:round; stroke-linejoin:round;">
</g>
<g style="fill:#000000; fill-opacity:1.0000; 
stroke:#000000; stroke-width:0.0000; stroke-opacity:1; 
stroke-linecap:round; stroke-linejoin:round;">
<circle cx="154.0000" cy="91.0400" r="0.4000" /> 
</g>
<g style="fill:#000000; fill-opacity:1.0000; 
stroke:#000000; stroke-width:0.0212; stroke-opacity:1; 
stroke-linecap:round; stroke-linejoin:round;">
</g>
<g style="fill:#000000; fill-opacity:1.0000; 
stroke:#000000; stroke-width:0.0000; stroke-opacity:1; 
stroke-linecap:round; stroke-linejoin:round;">
<circle cx="154.0000" cy="88.5000" r="0.4000" /> 
</g>
<g style="fill:#000000; fill-opacity:1.0000; 
stroke:#000000; stroke-width:0.0212; stroke-opacity:1; 
stroke-linecap:round; stroke-linejoin:round;">
</g>
<g style="fill:#000000; fill-opacity:1.0000; 
stroke:#000000; stroke-width:0.0000; stroke-opacity:1; 
stroke-linecap:round; stroke-linejoin:round;">
<circle cx="154.0000" cy="85.9600" r="0.4000" /> 
</g>
<g style="fill:#000000; fill-opacity:1.0000; 
stroke:#000000; stroke-width:0.0212; stroke-opacity:1; 
stroke-linecap:round; stroke-linejoin:round;">
</g>
<g style="fill:#000000; fill-opacity:1.0000; 
stroke:#000000; stroke-width:0.0000; stroke-opacity:1; 
stroke-linecap:round; stroke-linejoin:round;">
<circle cx="154.0000" cy="83.4200" r="0.4000" /> 
</g>
<g style="fill:#000000; fill-opacity:1.0000; 
stroke:#000000; stroke-width:0.0212; stroke-opacity:1; 
stroke-linecap:round; stroke-linejoin:round;">
</g>
<g style="fill:#000000; fill-opacity:1.0000; 
stroke:#000000; stroke-width:0.0000; stroke-opacity:1; 
stroke-linecap:round; stroke-linejoin:round;">
<circle cx="166.1400" cy="100.9400" r="0.3750" /> 
</g>
<g style="fill:#000000; fill-opacity:1.0000; 
stroke:#000000; stroke-width:0.0212; stroke-opacity:1; 
stroke-linecap:round; stroke-linejoin:round;">
</g>
<g style="fill:#000000; fill-opacity:1.0000; 
stroke:#000000; stroke-width:0.0000; stroke-opacity:1; 
stroke-linecap:round; stroke-linejoin:round;">
<circle cx="164.8700" cy="102.2100" r="0.3750" /> 
</g>
<g style="fill:#000000; fill-opacity:1.0000; 
stroke:#000000; stroke-width:0.0212; stroke-opacity:1; 
stroke-linecap:round; stroke-linejoin:round;">
</g>
<g style="fill:#000000; fill-opacity:1.0000; 
stroke:#000000; stroke-width:0.0000; stroke-opacity:1; 
stroke-linecap:round; stroke-linejoin:round;">
<circle cx="163.6000" cy="100.9400" r="0.3750" /> 
</g>
<g style="fill:#000000; fill-opacity:1.0000; 
stroke:#000000; stroke-width:0.0212; stroke-opacity:1; 
stroke-linecap:round; stroke-linejoin:round;">
</g>
<g style="fill:#000000; fill-opacity:1.0000; 
stroke:#000000; stroke-width:0.0000; stroke-opacity:1; 
stroke-linecap:round; stroke-linejoin:round;">
<circle cx="139.8000" cy="83.1200" r="0.4000" /> 
</g>
<g style="fill:#000000; fill-opacity:1.0000; 
stroke:#000000; stroke-width:0.0212; stroke-opacity:1; 
stroke-linecap:round; stroke-linejoin:round;">
</g>
<g style="fill:#000000; fill-opacity:1.0000; 
stroke:#000000; stroke-width:0.0000; stroke-opacity:1; 
stroke-linecap:round; stroke-linejoin:round;">
<circle cx="139.8000" cy="93.2800" r="0.4000" /> 
</g>
<g style="fill:#000000; fill-opacity:1.0000; 
stroke:#000000; stroke-width:0.0212; stroke-opacity:1; 
stroke-linecap:round; stroke-linejoin:round;">
</g>
<g style="fill:#000000; fill-opacity:1.0000; 
stroke:#000000; stroke-width:0.0000; stroke-opacity:1; 
stroke-linecap:round; stroke-linejoin:round;">
<circle cx="153.3000" cy="80.2000" r="0.4000" /> 
</g>
<g style="fill:#000000; fill-opacity:1.0000; 
stroke:#000000; stroke-width:0.0212; stroke-opacity:1; 
stroke-linecap:round; stroke-linejoin:round;">
</g>
<g style="fill:#000000; fill-opacity:1.0000; 
stroke:#000000; stroke-width:0.0000; stroke-opacity:1; 
stroke-linecap:round; stroke-linejoin:round;">
<circle cx="143.1400" cy="80.2000" r="0.4000" /> 
</g>
<g style="fill:#000000; fill-opacity:1.0000; 
stroke:#000000; stroke-width:0.0212; stroke-opacity:1; 
stroke-linecap:round; stroke-linejoin:round;">
</g>
<g style="fill:#000000; fill-opacity:1.0000; 
stroke:#000000; stroke-width:0.0000; stroke-opacity:1; 
stroke-linecap:round; stroke-linejoin:round;">
<circle cx="136.6000" cy="93.2800" r="0.4000" /> 
</g>
<g style="fill:#000000; fill-opacity:1.0000; 
stroke:#000000; stroke-width:0.0212; stroke-opacity:1; 
stroke-linecap:round; stroke-linejoin:round;">
</g>
<g style="fill:#000000; fill-opacity:1.0000; 
stroke:#000000; stroke-width:0.0000; stroke-opacity:1; 
stroke-linecap:round; stroke-linejoin:round;">
<circle cx="136.6000" cy="83.1200" r="0.4000" /> 
</g>
<g style="fill:#000000; fill-opacity:1.0000; 
stroke:#000000; stroke-width:0.0212; stroke-opacity:1; 
stroke-linecap:round; stroke-linejoin:round;">
</g>
<g style="fill:#000000; fill-opacity:1.0000; 
stroke:#000000; stroke-width:0.0000; stroke-opacity:1; 
stroke-linecap:round; stroke-linejoin:round;">
<circle cx="166.0700" cy="84.8800" r="0.3750" /> 
</g>
<g style="fill:#000000; fill-opacity:1.0000; 
stroke:#000000; stroke-width:0.0212; stroke-opacity:1; 
stroke-linecap:round; stroke-linejoin:round;">
</g>
<g style="fill:#000000; fill-opacity:1.0000; 
stroke:#000000; stroke-width:0.0000; stroke-opacity:1; 
stroke-linecap:round; stroke-linejoin:round;">
<circle cx="164.8000" cy="86.1500" r="0.3750" /> 
</g>
<g style="fill:#000000; fill-opacity:1.0000; 
stroke:#000000; stroke-width:0.0212; stroke-opacity:1; 
stroke-linecap:round; stroke-linejoin:round;">
</g>
<g style="fill:#000000; fill-opacity:1.0000; 
stroke:#000000; stroke-width:0.0000; stroke-opacity:1; 
stroke-linecap:round; stroke-linejoin:round;">
<circle cx="163.5300" cy="84.8800" r="0.3750" /> 
</g>
<g style="fill:#000000; fill-opacity:1.0000; 
stroke:#000000; stroke-width:0.0212; stroke-opacity:1; 
stroke-linecap:round; stroke-linejoin:round;">
</g>
<g style="fill:#000000; fill-opacity:1.0000; 
stroke:#000000; stroke-width:0.0000; stroke-opacity:1; 
stroke-linecap:round; stroke-linejoin:round;">
<circle cx="166.0700" cy="90.2800" r="0.3750" /> 
</g>
<g style="fill:#000000; fill-opacity:1.0000; 
stroke:#000000; stroke-width:0.0212; stroke-opacity:1; 
stroke-linecap:round; stroke-linejoin:round;">
</g>
<g style="fill:#000000; fill-opacity:1.0000; 
stroke:#000000; stroke-width:0.0000; stroke-opacity:1; 
stroke-linecap:round; stroke-linejoin:round;">
<circle cx="164.8000" cy="91.5500" r="0.3750" /> 
</g>
<g style="fill:#000000; fill-opacity:1.0000; 
stroke:#000000; stroke-width:0.0212; stroke-opacity:1; 
stroke-linecap:round; stroke-linejoin:round;">
</g>
<g style="fill:#000000; fill-opacity:1.0000; 
stroke:#000000; stroke-width:0.0000; stroke-opacity:1; 
stroke-linecap:round; stroke-linejoin:round;">
<circle cx="163.5300" cy="90.2800" r="0.3750" /> 
</g>
<g style="fill:#000000; fill-opacity:1.0000; 
stroke:#000000; stroke-width:0.0212; stroke-opacity:1; 
stroke-linecap:round; stroke-linejoin:round;">
</g>
<g style="fill:#000000; fill-opacity:1.0000; 
stroke:#000000; stroke-width:0.0000; stroke-opacity:1; 
stroke-linecap:round; stroke-linejoin:round;">
<circle cx="158.9800" cy="92.6200" r="0.4000" /> 
</g>
<g style="fill:#000000; fill-opacity:1.0000; 
stroke:#000000; stroke-width:0.0212; stroke-opacity:1; 
stroke-linecap:round; stroke-linejoin:round;">
</g>
<g style="fill:#000000; fill-opacity:1.0000; 
stroke:#000000; stroke-width:0.0000; stroke-opacity:1; 
stroke-linecap:round; stroke-linejoin:round;">
<circle cx="158.9800" cy="82.4600" r="0.4000" /> 
</g>
<g style="fill:#000000; fill-opacity:1.0000; 
stroke:#000000; stroke-width:0.0212; stroke-opacity:1; 
stroke-linecap:round; stroke-linejoin:round;">
</g>
<g style="fill:#000000; fill-opacity:1.0000; 
stroke:#000000; stroke-width:0.0000; stroke-opacity:1; 
stroke-linecap:round; stroke-linejoin:round;">
<circle cx="143.1100" cy="102.5400" r="0.4000" /> 
</g>
<g style="fill:#000000; fill-opacity:1.0000; 
stroke:#000000; stroke-width:0.0212; stroke-opacity:1; 
stroke-linecap:round; stroke-linejoin:round;">
</g>
<g style="fill:#000000; fill-opacity:1.0000; 
stroke:#000000; stroke-width:0.0000; stroke-opacity:1; 
stroke-linecap:round; stroke-linejoin:round;">
<circle cx="132.9500" cy="102.5400" r="0.4000" /> 
</g>
<g style="fill:#000000; fill-opacity:1.0000; 
stroke:#000000; stroke-width:0.0212; stroke-opacity:1; 
stroke-linecap:round; stroke-linejoin:round;">
</g>
<g style="fill:#000000; fill-opacity:1.0000; 
stroke:#000000; stroke-width:0.0000; stroke-opacity:1; 
stroke-linecap:round; stroke-linejoin:round;">
<circle cx="143.0800" cy="98.8000" r="0.4000" /> 
</g>
<g style="fill:#000000; fill-opacity:1.0000; 
stroke:#000000; stroke-width:0.0212; stroke-opacity:1; 
stroke-linecap:round; stroke-linejoin:round;">
</g>
<g style="fill:#000000; fill-opacity:1.0000; 
stroke:#000000; stroke-width:0.0000; stroke-opacity:1; 
stroke-linecap:round; stroke-linejoin:round;">
<circle cx="132.9200" cy="98.8000" r="0.4000" /> 
</g>
<g style="fill:#000000; fill-opacity:1.0000; 
stroke:#000000; stroke-width:0.0212; stroke-opacity:1; 
stroke-linecap:round; stroke-linejoin:round;">
</g>
<g style="fill:#000000; fill-opacity:1.0000; 
stroke:#000000; stroke-width:0.0000; stroke-opacity:1; 
stroke-linecap:round; stroke-linejoin:round;">
<circle cx="143.0000" cy="83.1200" r="0.4000" /> 
</g>
<g style="fill:#000000; fill-opacity:1.0000; 
stroke:#000000; stroke-width:0.0212; stroke-opacity:1; 
stroke-linecap:round; stroke-linejoin:round;">
</g>
<g style="fill:#000000; fill-opacity:1.0000; 
stroke:#000000; stroke-width:0.0000; stroke-opacity:1; 
stroke-linecap:round; stroke-linejoin:round;">
<circle cx="143.0000" cy="93.2800" r="0.4000" /> 
</g>
<g style="fill:#000000; fill-opacity:1.0000; 
stroke:#000000; stroke-width:0.0212; stroke-opacity:1; 
stroke-linecap:round; stroke-linejoin:round;">
</g>
<g style="fill:#000000; fill-opacity:1.0000; 
stroke:#000000; stroke-width:0.0000; stroke-opacity:1; 
stroke-linecap:round; stroke-linejoin:round;">
<circle cx="156.0800" cy="104.4000" r="0.4000" /> 
</g>
<g style="fill:#000000; fill-opacity:1.0000; 
stroke:#000000; stroke-width:0.0212; stroke-opacity:1; 
stroke-linecap:round; stroke-linejoin:round;">
</g>
<g style="fill:#000000; fill-opacity:1.0000; 
stroke:#000000; stroke-width:0.0000; stroke-opacity:1; 
stroke-linecap:round; stroke-linejoin:round;">
<circle cx="145.9200" cy="104.4000" r="0.4000" /> 
</g>
<g style="fill:#000000; fill-opacity:1.0000; 
stroke:#000000; stroke-width:0.0212; stroke-opacity:1; 
stroke-linecap:round; stroke-linejoin:round;">
</g>
<g style="fill:#000000; fill-opacity:1.0000; 
stroke:#000000; stroke-width:0.0000; stroke-opacity:1; 
stroke-linecap:round; stroke-linejoin:round;">
<circle cx="142.9726" cy="106.4000" r="0.3000" /> 
</g>
<g style="fill:#000000; fill-opacity:1.0000; 
stroke:#000000; stroke-width:0.0212; stroke-opacity:1; 
stroke-linecap:round; stroke-linejoin:round;">
</g>
<g style="fill:#000000; fill-opacity:1.0000; 
stroke:#000000; stroke-width:0.0000; stroke-opacity:1; 
stroke-linecap:round; stroke-linejoin:round;">
<circle cx="140.9726" cy="106.4000" r="0.3000" /> 
</g>
<g style="fill:#000000; fill-opacity:1.0000; 
stroke:#000000; stroke-width:0.0212; stroke-opacity:1; 
stroke-linecap:round; stroke-linejoin:round;">
</g>
<g style="fill:#000000; fill-opacity:1.0000; 
stroke:#000000; stroke-width:0.0000; stroke-opacity:1; 
stroke-linecap:round; stroke-linejoin:round;">
<circle cx="166.0700" cy="95.6200" r="0.3750" /> 
</g>
<g style="fill:#000000; fill-opacity:1.0000; 
stroke:#000000; stroke-width:0.0212; stroke-opacity:1; 
stroke-linecap:round; stroke-linejoin:round;">
</g>
<g style="fill:#000000; fill-opacity:1.0000; 
stroke:#000000; stroke-width:0.0000; stroke-opacity:1; 
stroke-linecap:round; stroke-linejoin:round;">
<circle cx="164.8000" cy="96.8900" r="0.3750" /> 
</g>
<g style="fill:#000000; fill-opacity:1.0000; 
stroke:#000000; stroke-width:0.0212; stroke-opacity:1; 
stroke-linecap:round; stroke-linejoin:round;">
</g>
<g style="fill:#000000; fill-opacity:1.0000; 
stroke:#000000; stroke-width:0.0000; stroke-opacity:1; 
stroke-linecap:round; stroke-linejoin:round;">
<circle cx="163.5300" cy="95.6200" r="0.3750" /> 
</g>
<g style="fill:#000000; fill-opacity:1.0000; 
stroke:#000000; stroke-width:0.0212; stroke-opacity:1; 
stroke-linecap:round; stroke-linejoin:round;">
</g>
<g style="fill:#000000; fill-opacity:1.0000; 
stroke:#000000; stroke-width:0.0000; stroke-opacity:1; 
stroke-linecap:round; stroke-linejoin:round;">
<circle cx="158.9800" cy="94.8700" r="0.4000" /> 
</g>
<g style="fill:#000000; fill-opacity:1.0000; 
stroke:#000000; stroke-width:0.0212; stroke-opacity:1; 
stroke-linecap:round; stroke-linejoin:round;">
</g>
<g style="fill:#000000; fill-opacity:1.0000; 
stroke:#000000; stroke-width:0.0000; stroke-opacity:1; 
stroke-linecap:round; stroke-linejoin:round;">
<circle cx="158.9800" cy="105.0300" r="0.4000" /> 
</g>
<g style="fill:#000000; fill-opacity:1.0000; 
stroke:#000000; stroke-width:0.0212; stroke-opacity:1; 
stroke-linecap:round; stroke-linejoin:round;">
</g>
<g style="fill:#FFFFFF; fill-opacity:1.0000; 
stroke:#FFFFFF; stroke-width:0.0212; stroke-opacity:1; 
stroke-linecap:round; stroke-linejoin:round;">
</g>
<g style="fill:#FFFFFF; fill-opacity:0.0; 
stroke:#FFFFFF; stroke-width:0.1000; stroke-opacity:1; 
stroke-linecap:round; stroke-linejoin:round;">
<path style="fill:#FFFFFF; fill-opacity:0.0; 
stroke:#FFFFFF; stroke-width:0.1000; stroke-opacity:1; 
stroke-linecap:round; stroke-linejoin:round;fill:none"
d="M 130.5000,76.0000
174.5000,76.0000
174.5000,111.0000
130.5000,111.0000
Z" /> 
<g >
</g>
<g >
</g>
<g >
</g>
<g >
</g>
<g >
</g>
<g >
</g>
<g >
</g>
<g >
</g>
<g >
</g>
<g >
</g>
<g >
</g>
<g >
</g>
<g >
</g>
<g >
</g>
<g >
</g>
<g >
</g>
<g >
</g>
<g >
</g>
<g >
</g>
<g >
</g>
</g> 
</svg>
