<?xml version="1.0" standalone="no"?>
 <!DOCTYPE svg PUBLIC "-//W3C//DTD SVG 1.1//EN" 
 "http://www.w3.org/Graphics/SVG/1.1/DTD/svg11.dtd"> 
<svg
  xmlns:svg="http://www.w3.org/2000/svg"
  xmlns="http://www.w3.org/2000/svg"
  xmlns:xlink="http://www.w3.org/1999/xlink"
  version="1.1"
  width="297.0022mm" height="210.0072mm" viewBox="0.0000 0.0000 297.0022 210.0072">
<title>SVG Image created as TL494-F_Silkscreen.svg date 2023/04/07 17:10:58 </title>
  <desc>Image generated by PCBNEW </desc>
<g style="fill:#000000; fill-opacity:1.0000;stroke:#000000; stroke-opacity:1.0000;
stroke-linecap:round; stroke-linejoin:round;"
 transform="translate(0 0) scale(1 1)">
</g>
<g style="fill:#000000; fill-opacity:0.0; 
stroke:#000000; stroke-width:0.0000; stroke-opacity:1; 
stroke-linecap:round; stroke-linejoin:round;">
</g>
<g style="fill:#000000; fill-opacity:1.0000; 
stroke:#000000; stroke-width:0.0212; stroke-opacity:1; 
stroke-linecap:round; stroke-linejoin:round;">
<rect x="117.452978" y="66.852500" width="68.522022" height="49.647500" rx="0.000000" />
</g>
<g style="fill:#FFFFFF; fill-opacity:1.0000; 
stroke:#FFFFFF; stroke-width:0.0212; stroke-opacity:1; 
stroke-linecap:round; stroke-linejoin:round;">
</g>
<g style="fill:#FFFFFF; fill-opacity:1.0000; 
stroke:#FFFFFF; stroke-width:0.1500; stroke-opacity:1; 
stroke-linecap:round; stroke-linejoin:round;">
</g>
<g style="fill:#FFFFFF; fill-opacity:0.0; 
stroke:#FFFFFF; stroke-width:0.1500; stroke-opacity:1; 
stroke-linecap:round; stroke-linejoin:round;">
<text x="135.9100" y="96.4400"
textLength="2.1274" font-size="1.3333" lengthAdjust="spacingAndGlyphs"
text-anchor="middle" opacity="0">C2</text>
<g class="stroked-text"><desc>C2</desc>
<path d="M135.7433 96.3074
L135.6957 96.3550
" />
<path d="M135.6957 96.3550
L135.5529 96.4026
" />
<path d="M135.5529 96.4026
L135.4576 96.4026
" />
<path d="M135.4576 96.4026
L135.3148 96.3550
" />
<path d="M135.3148 96.3550
L135.2195 96.2598
" />
<path d="M135.2195 96.2598
L135.1719 96.1645
" />
<path d="M135.1719 96.1645
L135.1243 95.9740
" />
<path d="M135.1243 95.9740
L135.1243 95.8312
" />
<path d="M135.1243 95.8312
L135.1719 95.6407
" />
<path d="M135.1719 95.6407
L135.2195 95.5455
" />
<path d="M135.2195 95.5455
L135.3148 95.4502
" />
<path d="M135.3148 95.4502
L135.4576 95.4026
" />
<path d="M135.4576 95.4026
L135.5529 95.4026
" />
<path d="M135.5529 95.4026
L135.6957 95.4502
" />
<path d="M135.6957 95.4502
L135.7433 95.4979
" />
<path d="M136.1243 95.4979
L136.1719 95.4502
" />
<path d="M136.1719 95.4502
L136.2671 95.4026
" />
<path d="M136.2671 95.4026
L136.5052 95.4026
" />
<path d="M136.5052 95.4026
L136.6005 95.4502
" />
<path d="M136.6005 95.4502
L136.6481 95.4979
" />
<path d="M136.6481 95.4979
L136.6957 95.5931
" />
<path d="M136.6957 95.5931
L136.6957 95.6883
" />
<path d="M136.6957 95.6883
L136.6481 95.8312
" />
<path d="M136.6481 95.8312
L136.0767 96.4026
" />
<path d="M136.0767 96.4026
L136.6957 96.4026
" />
</g><text x="171.3700" y="83.5700"
textLength="1.8893" font-size="1.3333" lengthAdjust="spacingAndGlyphs"
text-anchor="middle" opacity="0">J1</text>
<g class="stroked-text"><desc>J1</desc>
<path d="M171.0367 82.5326
L171.0367 83.2469
" />
<path d="M171.0367 83.2469
L170.9890 83.3898
" />
<path d="M170.9890 83.3898
L170.8938 83.4850
" />
<path d="M170.8938 83.4850
L170.7510 83.5326
" />
<path d="M170.7510 83.5326
L170.6557 83.5326
" />
<path d="M172.0367 83.5326
L171.4652 83.5326
" />
<path d="M171.7510 83.5326
L171.7510 82.5326
" />
<path d="M171.7510 82.5326
L171.6557 82.6755
" />
<path d="M171.6557 82.6755
L171.5605 82.7707
" />
<path d="M171.5605 82.7707
L171.4652 82.8183
" />
</g><text x="155.8400" y="81.5600"
textLength="2.6036" font-size="1.3333" lengthAdjust="spacingAndGlyphs"
text-anchor="middle" opacity="0">IC1</text>
<g class="stroked-text"><desc>IC1</desc>
<path d="M154.8638 81.5226
L154.8638 80.5226
" />
<path d="M155.9114 81.4274
L155.8638 81.4750
" />
<path d="M155.8638 81.4750
L155.7210 81.5226
" />
<path d="M155.7210 81.5226
L155.6257 81.5226
" />
<path d="M155.6257 81.5226
L155.4829 81.4750
" />
<path d="M155.4829 81.4750
L155.3876 81.3798
" />
<path d="M155.3876 81.3798
L155.3400 81.2845
" />
<path d="M155.3400 81.2845
L155.2924 81.0940
" />
<path d="M155.2924 81.0940
L155.2924 80.9512
" />
<path d="M155.2924 80.9512
L155.3400 80.7607
" />
<path d="M155.3400 80.7607
L155.3876 80.6655
" />
<path d="M155.3876 80.6655
L155.4829 80.5702
" />
<path d="M155.4829 80.5702
L155.6257 80.5226
" />
<path d="M155.6257 80.5226
L155.7210 80.5226
" />
<path d="M155.7210 80.5226
L155.8638 80.5702
" />
<path d="M155.8638 80.5702
L155.9114 80.6179
" />
<path d="M156.8638 81.5226
L156.2924 81.5226
" />
<path d="M156.5781 81.5226
L156.5781 80.5226
" />
<path d="M156.5781 80.5226
L156.4829 80.6655
" />
<path d="M156.4829 80.6655
L156.3876 80.7607
" />
<path d="M156.3876 80.7607
L156.2924 80.8083
" />
</g><text x="164.8700" y="105.2400"
textLength="2.1750" font-size="1.3333" lengthAdjust="spacingAndGlyphs"
text-anchor="middle" opacity="0">Q3</text>
<g class="stroked-text"><desc>Q3</desc>
<path d="M164.7748 105.2979
L164.6795 105.2502
" />
<path d="M164.6795 105.2502
L164.5843 105.1550
" />
<path d="M164.5843 105.1550
L164.4414 105.0121
" />
<path d="M164.4414 105.0121
L164.3462 104.9645
" />
<path d="M164.3462 104.9645
L164.2510 104.9645
" />
<path d="M164.2986 105.2026
L164.2033 105.1550
" />
<path d="M164.2033 105.1550
L164.1081 105.0598
" />
<path d="M164.1081 105.0598
L164.0605 104.8693
" />
<path d="M164.0605 104.8693
L164.0605 104.5360
" />
<path d="M164.0605 104.5360
L164.1081 104.3455
" />
<path d="M164.1081 104.3455
L164.2033 104.2502
" />
<path d="M164.2033 104.2502
L164.2986 104.2026
" />
<path d="M164.2986 104.2026
L164.4890 104.2026
" />
<path d="M164.4890 104.2026
L164.5843 104.2502
" />
<path d="M164.5843 104.2502
L164.6795 104.3455
" />
<path d="M164.6795 104.3455
L164.7271 104.5360
" />
<path d="M164.7271 104.5360
L164.7271 104.8693
" />
<path d="M164.7271 104.8693
L164.6795 105.0598
" />
<path d="M164.6795 105.0598
L164.5843 105.1550
" />
<path d="M164.5843 105.1550
L164.4890 105.2026
" />
<path d="M164.4890 105.2026
L164.2986 105.2026
" />
<path d="M165.0605 104.2026
L165.6795 104.2026
" />
<path d="M165.6795 104.2026
L165.3462 104.5836
" />
<path d="M165.3462 104.5836
L165.4890 104.5836
" />
<path d="M165.4890 104.5836
L165.5843 104.6312
" />
<path d="M165.5843 104.6312
L165.6319 104.6788
" />
<path d="M165.6319 104.6788
L165.6795 104.7740
" />
<path d="M165.6795 104.7740
L165.6795 105.0121
" />
<path d="M165.6795 105.0121
L165.6319 105.1074
" />
<path d="M165.6319 105.1074
L165.5843 105.1550
" />
<path d="M165.5843 105.1550
L165.4890 105.2026
" />
<path d="M165.4890 105.2026
L165.2033 105.2026
" />
<path d="M165.2033 105.2026
L165.1081 105.1550
" />
<path d="M165.1081 105.1550
L165.0605 105.1074
" />
</g><g transform="rotate(-90.000000 139.8900 80.8900)">
<text x="139.8900" y="81.3900"
textLength="2.1274" font-size="1.3333" lengthAdjust="spacingAndGlyphs"
text-anchor="middle" opacity="0">R4</text>
</g>
<g class="stroked-text"><desc>R4</desc>
<path d="M140.3526 81.0567
L139.8764 81.3900
" />
<path d="M140.3526 81.6281
L139.3526 81.6281
" />
<path d="M139.3526 81.6281
L139.3526 81.2471
" />
<path d="M139.3526 81.2471
L139.4002 81.1519
" />
<path d="M139.4002 81.1519
L139.4479 81.1043
" />
<path d="M139.4479 81.1043
L139.5431 81.0567
" />
<path d="M139.5431 81.0567
L139.6860 81.0567
" />
<path d="M139.6860 81.0567
L139.7812 81.1043
" />
<path d="M139.7812 81.1043
L139.8288 81.1519
" />
<path d="M139.8288 81.1519
L139.8764 81.2471
" />
<path d="M139.8764 81.2471
L139.8764 81.6281
" />
<path d="M139.6860 80.1995
L140.3526 80.1995
" />
<path d="M139.3050 80.4376
L140.0193 80.6757
" />
<path d="M140.0193 80.6757
L140.0193 80.0567
" />
</g><text x="148.5200" y="78.4700"
textLength="2.1274" font-size="1.3333" lengthAdjust="spacingAndGlyphs"
text-anchor="middle" opacity="0">R3</text>
<g class="stroked-text"><desc>R3</desc>
<path d="M148.3533 78.4326
L148.0200 77.9564
" />
<path d="M147.7819 78.4326
L147.7819 77.4326
" />
<path d="M147.7819 77.4326
L148.1629 77.4326
" />
<path d="M148.1629 77.4326
L148.2581 77.4802
" />
<path d="M148.2581 77.4802
L148.3057 77.5279
" />
<path d="M148.3057 77.5279
L148.3533 77.6231
" />
<path d="M148.3533 77.6231
L148.3533 77.7660
" />
<path d="M148.3533 77.7660
L148.3057 77.8612
" />
<path d="M148.3057 77.8612
L148.2581 77.9088
" />
<path d="M148.2581 77.9088
L148.1629 77.9564
" />
<path d="M148.1629 77.9564
L147.7819 77.9564
" />
<path d="M148.6867 77.4326
L149.3057 77.4326
" />
<path d="M149.3057 77.4326
L148.9724 77.8136
" />
<path d="M148.9724 77.8136
L149.1152 77.8136
" />
<path d="M149.1152 77.8136
L149.2105 77.8612
" />
<path d="M149.2105 77.8612
L149.2581 77.9088
" />
<path d="M149.2581 77.9088
L149.3057 78.0040
" />
<path d="M149.3057 78.0040
L149.3057 78.2421
" />
<path d="M149.3057 78.2421
L149.2581 78.3374
" />
<path d="M149.2581 78.3374
L149.2105 78.3850
" />
<path d="M149.2105 78.3850
L149.1152 78.4326
" />
<path d="M149.1152 78.4326
L148.8295 78.4326
" />
<path d="M148.8295 78.4326
L148.7343 78.3850
" />
<path d="M148.7343 78.3850
L148.6867 78.3374
" />
</g><g transform="rotate(-90.000000 136.6400 80.8000)">
<text x="136.6400" y="81.3000"
textLength="2.1274" font-size="1.3333" lengthAdjust="spacingAndGlyphs"
text-anchor="middle" opacity="0">R5</text>
</g>
<g class="stroked-text"><desc>R5</desc>
<path d="M137.1026 80.9667
L136.6264 81.3000
" />
<path d="M137.1026 81.5381
L136.1026 81.5381
" />
<path d="M136.1026 81.5381
L136.1026 81.1571
" />
<path d="M136.1026 81.1571
L136.1502 81.0619
" />
<path d="M136.1502 81.0619
L136.1979 81.0143
" />
<path d="M136.1979 81.0143
L136.2931 80.9667
" />
<path d="M136.2931 80.9667
L136.4360 80.9667
" />
<path d="M136.4360 80.9667
L136.5312 81.0143
" />
<path d="M136.5312 81.0143
L136.5788 81.0619
" />
<path d="M136.5788 81.0619
L136.6264 81.1571
" />
<path d="M136.6264 81.1571
L136.6264 81.5381
" />
<path d="M136.1026 80.0619
L136.1026 80.5381
" />
<path d="M136.1026 80.5381
L136.5788 80.5857
" />
<path d="M136.5788 80.5857
L136.5312 80.5381
" />
<path d="M136.5312 80.5381
L136.4836 80.4429
" />
<path d="M136.4836 80.4429
L136.4836 80.2048
" />
<path d="M136.4836 80.2048
L136.5312 80.1095
" />
<path d="M136.5312 80.1095
L136.5788 80.0619
" />
<path d="M136.5788 80.0619
L136.6740 80.0143
" />
<path d="M136.6740 80.0143
L136.9121 80.0143
" />
<path d="M136.9121 80.0143
L137.0074 80.0619
" />
<path d="M137.0074 80.0619
L137.0550 80.1095
" />
<path d="M137.0550 80.1095
L137.1026 80.2048
" />
<path d="M137.1026 80.2048
L137.1026 80.4429
" />
<path d="M137.1026 80.4429
L137.0550 80.5381
" />
<path d="M137.0550 80.5381
L137.0074 80.5857
" />
</g><text x="167.7300" y="87.7900"
textLength="2.1750" font-size="1.3333" lengthAdjust="spacingAndGlyphs"
text-anchor="middle" opacity="0">Q2</text>
<g class="stroked-text"><desc>Q2</desc>
<path d="M167.6348 87.8479
L167.5395 87.8002
" />
<path d="M167.5395 87.8002
L167.4443 87.7050
" />
<path d="M167.4443 87.7050
L167.3014 87.5621
" />
<path d="M167.3014 87.5621
L167.2062 87.5145
" />
<path d="M167.2062 87.5145
L167.1110 87.5145
" />
<path d="M167.1586 87.7526
L167.0633 87.7050
" />
<path d="M167.0633 87.7050
L166.9681 87.6098
" />
<path d="M166.9681 87.6098
L166.9205 87.4193
" />
<path d="M166.9205 87.4193
L166.9205 87.0860
" />
<path d="M166.9205 87.0860
L166.9681 86.8955
" />
<path d="M166.9681 86.8955
L167.0633 86.8002
" />
<path d="M167.0633 86.8002
L167.1586 86.7526
" />
<path d="M167.1586 86.7526
L167.3490 86.7526
" />
<path d="M167.3490 86.7526
L167.4443 86.8002
" />
<path d="M167.4443 86.8002
L167.5395 86.8955
" />
<path d="M167.5395 86.8955
L167.5871 87.0860
" />
<path d="M167.5871 87.0860
L167.5871 87.4193
" />
<path d="M167.5871 87.4193
L167.5395 87.6098
" />
<path d="M167.5395 87.6098
L167.4443 87.7050
" />
<path d="M167.4443 87.7050
L167.3490 87.7526
" />
<path d="M167.3490 87.7526
L167.1586 87.7526
" />
<path d="M167.9681 86.8479
L168.0157 86.8002
" />
<path d="M168.0157 86.8002
L168.1110 86.7526
" />
<path d="M168.1110 86.7526
L168.3490 86.7526
" />
<path d="M168.3490 86.7526
L168.4443 86.8002
" />
<path d="M168.4443 86.8002
L168.4919 86.8479
" />
<path d="M168.4919 86.8479
L168.5395 86.9431
" />
<path d="M168.5395 86.9431
L168.5395 87.0383
" />
<path d="M168.5395 87.0383
L168.4919 87.1812
" />
<path d="M168.4919 87.1812
L167.9205 87.7526
" />
<path d="M167.9205 87.7526
L168.5395 87.7526
" />
</g><text x="167.4900" y="93.3200"
textLength="2.1750" font-size="1.3333" lengthAdjust="spacingAndGlyphs"
text-anchor="middle" opacity="0">Q1</text>
<g class="stroked-text"><desc>Q1</desc>
<path d="M167.3948 93.3779
L167.2995 93.3302
" />
<path d="M167.2995 93.3302
L167.2043 93.2350
" />
<path d="M167.2043 93.2350
L167.0614 93.0921
" />
<path d="M167.0614 93.0921
L166.9662 93.0445
" />
<path d="M166.9662 93.0445
L166.8710 93.0445
" />
<path d="M166.9186 93.2826
L166.8233 93.2350
" />
<path d="M166.8233 93.2350
L166.7281 93.1398
" />
<path d="M166.7281 93.1398
L166.6805 92.9493
" />
<path d="M166.6805 92.9493
L166.6805 92.6160
" />
<path d="M166.6805 92.6160
L166.7281 92.4255
" />
<path d="M166.7281 92.4255
L166.8233 92.3302
" />
<path d="M166.8233 92.3302
L166.9186 92.2826
" />
<path d="M166.9186 92.2826
L167.1090 92.2826
" />
<path d="M167.1090 92.2826
L167.2043 92.3302
" />
<path d="M167.2043 92.3302
L167.2995 92.4255
" />
<path d="M167.2995 92.4255
L167.3471 92.6160
" />
<path d="M167.3471 92.6160
L167.3471 92.9493
" />
<path d="M167.3471 92.9493
L167.2995 93.1398
" />
<path d="M167.2995 93.1398
L167.2043 93.2350
" />
<path d="M167.2043 93.2350
L167.1090 93.2826
" />
<path d="M167.1090 93.2826
L166.9186 93.2826
" />
<path d="M168.2995 93.2826
L167.7281 93.2826
" />
<path d="M168.0138 93.2826
L168.0138 92.2826
" />
<path d="M168.0138 92.2826
L167.9186 92.4255
" />
<path d="M167.9186 92.4255
L167.8233 92.5207
" />
<path d="M167.8233 92.5207
L167.7281 92.5683
" />
</g><g transform="rotate(-90.000000 156.6100 87.5400)">
<text x="156.6100" y="88.0400"
textLength="2.1274" font-size="1.3333" lengthAdjust="spacingAndGlyphs"
text-anchor="middle" opacity="0">R8</text>
</g>
<g class="stroked-text"><desc>R8</desc>
<path d="M157.0726 87.7067
L156.5964 88.0400
" />
<path d="M157.0726 88.2781
L156.0726 88.2781
" />
<path d="M156.0726 88.2781
L156.0726 87.8971
" />
<path d="M156.0726 87.8971
L156.1202 87.8019
" />
<path d="M156.1202 87.8019
L156.1679 87.7543
" />
<path d="M156.1679 87.7543
L156.2631 87.7067
" />
<path d="M156.2631 87.7067
L156.4060 87.7067
" />
<path d="M156.4060 87.7067
L156.5012 87.7543
" />
<path d="M156.5012 87.7543
L156.5488 87.8019
" />
<path d="M156.5488 87.8019
L156.5964 87.8971
" />
<path d="M156.5964 87.8971
L156.5964 88.2781
" />
<path d="M156.5012 87.1352
L156.4536 87.2305
" />
<path d="M156.4536 87.2305
L156.4060 87.2781
" />
<path d="M156.4060 87.2781
L156.3107 87.3257
" />
<path d="M156.3107 87.3257
L156.2631 87.3257
" />
<path d="M156.2631 87.3257
L156.1679 87.2781
" />
<path d="M156.1679 87.2781
L156.1202 87.2305
" />
<path d="M156.1202 87.2305
L156.0726 87.1352
" />
<path d="M156.0726 87.1352
L156.0726 86.9448
" />
<path d="M156.0726 86.9448
L156.1202 86.8495
" />
<path d="M156.1202 86.8495
L156.1679 86.8019
" />
<path d="M156.1679 86.8019
L156.2631 86.7543
" />
<path d="M156.2631 86.7543
L156.3107 86.7543
" />
<path d="M156.3107 86.7543
L156.4060 86.8019
" />
<path d="M156.4060 86.8019
L156.4536 86.8495
" />
<path d="M156.4536 86.8495
L156.5012 86.9448
" />
<path d="M156.5012 86.9448
L156.5012 87.1352
" />
<path d="M156.5012 87.1352
L156.5488 87.2305
" />
<path d="M156.5488 87.2305
L156.5964 87.2781
" />
<path d="M156.5964 87.2781
L156.6917 87.3257
" />
<path d="M156.6917 87.3257
L156.8821 87.3257
" />
<path d="M156.8821 87.3257
L156.9774 87.2781
" />
<path d="M156.9774 87.2781
L157.0250 87.2305
" />
<path d="M157.0250 87.2305
L157.0726 87.1352
" />
<path d="M157.0726 87.1352
L157.0726 86.9448
" />
<path d="M157.0726 86.9448
L157.0250 86.8495
" />
<path d="M157.0250 86.8495
L156.9774 86.8019
" />
<path d="M156.9774 86.8019
L156.8821 86.7543
" />
<path d="M156.8821 86.7543
L156.6917 86.7543
" />
<path d="M156.6917 86.7543
L156.5964 86.8019
" />
<path d="M156.5964 86.8019
L156.5488 86.8495
" />
<path d="M156.5488 86.8495
L156.5012 86.9448
" />
</g><text x="138.0300" y="105.4100"
textLength="2.1274" font-size="1.3333" lengthAdjust="spacingAndGlyphs"
text-anchor="middle" opacity="0">R2</text>
<g class="stroked-text"><desc>R2</desc>
<path d="M137.8633 105.3726
L137.5300 104.8964
" />
<path d="M137.2919 105.3726
L137.2919 104.3726
" />
<path d="M137.2919 104.3726
L137.6729 104.3726
" />
<path d="M137.6729 104.3726
L137.7681 104.4202
" />
<path d="M137.7681 104.4202
L137.8157 104.4679
" />
<path d="M137.8157 104.4679
L137.8633 104.5631
" />
<path d="M137.8633 104.5631
L137.8633 104.7060
" />
<path d="M137.8633 104.7060
L137.8157 104.8012
" />
<path d="M137.8157 104.8012
L137.7681 104.8488
" />
<path d="M137.7681 104.8488
L137.6729 104.8964
" />
<path d="M137.6729 104.8964
L137.2919 104.8964
" />
<path d="M138.2443 104.4679
L138.2919 104.4202
" />
<path d="M138.2919 104.4202
L138.3871 104.3726
" />
<path d="M138.3871 104.3726
L138.6252 104.3726
" />
<path d="M138.6252 104.3726
L138.7205 104.4202
" />
<path d="M138.7205 104.4202
L138.7681 104.4679
" />
<path d="M138.7681 104.4679
L138.8157 104.5631
" />
<path d="M138.8157 104.5631
L138.8157 104.6583
" />
<path d="M138.8157 104.6583
L138.7681 104.8012
" />
<path d="M138.7681 104.8012
L138.1967 105.3726
" />
<path d="M138.1967 105.3726
L138.8157 105.3726
" />
</g><text x="132.7800" y="97.0000"
textLength="2.1274" font-size="1.3333" lengthAdjust="spacingAndGlyphs"
text-anchor="middle" opacity="0">R7</text>
<g class="stroked-text"><desc>R7</desc>
<path d="M132.6133 96.9626
L132.2800 96.4864
" />
<path d="M132.0419 96.9626
L132.0419 95.9626
" />
<path d="M132.0419 95.9626
L132.4229 95.9626
" />
<path d="M132.4229 95.9626
L132.5181 96.0102
" />
<path d="M132.5181 96.0102
L132.5657 96.0579
" />
<path d="M132.5657 96.0579
L132.6133 96.1531
" />
<path d="M132.6133 96.1531
L132.6133 96.2960
" />
<path d="M132.6133 96.2960
L132.5657 96.3912
" />
<path d="M132.5657 96.3912
L132.5181 96.4388
" />
<path d="M132.5181 96.4388
L132.4229 96.4864
" />
<path d="M132.4229 96.4864
L132.0419 96.4864
" />
<path d="M132.9467 95.9626
L133.6133 95.9626
" />
<path d="M133.6133 95.9626
L133.1848 96.9626
" />
</g><g transform="rotate(-90.000000 141.4800 80.8700)">
<text x="141.4800" y="81.3700"
textLength="2.1274" font-size="1.3333" lengthAdjust="spacingAndGlyphs"
text-anchor="middle" opacity="0">R6</text>
</g>
<g class="stroked-text"><desc>R6</desc>
<path d="M141.9426 81.0367
L141.4664 81.3700
" />
<path d="M141.9426 81.6081
L140.9426 81.6081
" />
<path d="M140.9426 81.6081
L140.9426 81.2271
" />
<path d="M140.9426 81.2271
L140.9902 81.1319
" />
<path d="M140.9902 81.1319
L141.0379 81.0843
" />
<path d="M141.0379 81.0843
L141.1331 81.0367
" />
<path d="M141.1331 81.0367
L141.2760 81.0367
" />
<path d="M141.2760 81.0367
L141.3712 81.0843
" />
<path d="M141.3712 81.0843
L141.4188 81.1319
" />
<path d="M141.4188 81.1319
L141.4664 81.2271
" />
<path d="M141.4664 81.2271
L141.4664 81.6081
" />
<path d="M140.9426 80.1795
L140.9426 80.3700
" />
<path d="M140.9426 80.3700
L140.9902 80.4652
" />
<path d="M140.9902 80.4652
L141.0379 80.5129
" />
<path d="M141.0379 80.5129
L141.1807 80.6081
" />
<path d="M141.1807 80.6081
L141.3712 80.6557
" />
<path d="M141.3712 80.6557
L141.7521 80.6557
" />
<path d="M141.7521 80.6557
L141.8474 80.6081
" />
<path d="M141.8474 80.6081
L141.8950 80.5605
" />
<path d="M141.8950 80.5605
L141.9426 80.4652
" />
<path d="M141.9426 80.4652
L141.9426 80.2748
" />
<path d="M141.9426 80.2748
L141.8950 80.1795
" />
<path d="M141.8950 80.1795
L141.8474 80.1319
" />
<path d="M141.8474 80.1319
L141.7521 80.0843
" />
<path d="M141.7521 80.0843
L141.5140 80.0843
" />
<path d="M141.5140 80.0843
L141.4188 80.1319
" />
<path d="M141.4188 80.1319
L141.3712 80.1795
" />
<path d="M141.3712 80.1795
L141.3236 80.2748
" />
<path d="M141.3236 80.2748
L141.3236 80.4652
" />
<path d="M141.3236 80.4652
L141.3712 80.5605
" />
<path d="M141.3712 80.5605
L141.4188 80.6081
" />
<path d="M141.4188 80.6081
L141.5140 80.6557
" />
</g><text x="151.0000" y="107.2700"
textLength="2.1274" font-size="1.3333" lengthAdjust="spacingAndGlyphs"
text-anchor="middle" opacity="0">R1</text>
<g class="stroked-text"><desc>R1</desc>
<path d="M150.8333 107.2326
L150.5000 106.7564
" />
<path d="M150.2619 107.2326
L150.2619 106.2326
" />
<path d="M150.2619 106.2326
L150.6429 106.2326
" />
<path d="M150.6429 106.2326
L150.7381 106.2802
" />
<path d="M150.7381 106.2802
L150.7857 106.3279
" />
<path d="M150.7857 106.3279
L150.8333 106.4231
" />
<path d="M150.8333 106.4231
L150.8333 106.5660
" />
<path d="M150.8333 106.5660
L150.7857 106.6612
" />
<path d="M150.7857 106.6612
L150.7381 106.7088
" />
<path d="M150.7381 106.7088
L150.6429 106.7564
" />
<path d="M150.6429 106.7564
L150.2619 106.7564
" />
<path d="M151.7857 107.2326
L151.2143 107.2326
" />
<path d="M151.5000 107.2326
L151.5000 106.2326
" />
<path d="M151.5000 106.2326
L151.4048 106.3755
" />
<path d="M151.4048 106.3755
L151.3095 106.4707
" />
<path d="M151.3095 106.4707
L151.2143 106.5183
" />
</g><text x="141.9726" y="110.1500"
textLength="2.1274" font-size="1.3333" lengthAdjust="spacingAndGlyphs"
text-anchor="middle" opacity="0">C1</text>
<g class="stroked-text"><desc>C1</desc>
<path d="M141.8059 110.0174
L141.7583 110.0650
" />
<path d="M141.7583 110.0650
L141.6155 110.1126
" />
<path d="M141.6155 110.1126
L141.5202 110.1126
" />
<path d="M141.5202 110.1126
L141.3774 110.0650
" />
<path d="M141.3774 110.0650
L141.2821 109.9698
" />
<path d="M141.2821 109.9698
L141.2345 109.8745
" />
<path d="M141.2345 109.8745
L141.1869 109.6840
" />
<path d="M141.1869 109.6840
L141.1869 109.5412
" />
<path d="M141.1869 109.5412
L141.2345 109.3507
" />
<path d="M141.2345 109.3507
L141.2821 109.2555
" />
<path d="M141.2821 109.2555
L141.3774 109.1602
" />
<path d="M141.3774 109.1602
L141.5202 109.1126
" />
<path d="M141.5202 109.1126
L141.6155 109.1126
" />
<path d="M141.6155 109.1126
L141.7583 109.1602
" />
<path d="M141.7583 109.1602
L141.8059 109.2079
" />
<path d="M142.7583 110.1126
L142.1869 110.1126
" />
<path d="M142.4726 110.1126
L142.4726 109.1126
" />
<path d="M142.4726 109.1126
L142.3774 109.2555
" />
<path d="M142.3774 109.2555
L142.2821 109.3507
" />
<path d="M142.2821 109.3507
L142.1869 109.3983
" />
</g><text x="167.8700" y="98.3500"
textLength="2.1750" font-size="1.3333" lengthAdjust="spacingAndGlyphs"
text-anchor="middle" opacity="0">Q4</text>
<g class="stroked-text"><desc>Q4</desc>
<path d="M167.7748 98.4079
L167.6795 98.3602
" />
<path d="M167.6795 98.3602
L167.5843 98.2650
" />
<path d="M167.5843 98.2650
L167.4414 98.1221
" />
<path d="M167.4414 98.1221
L167.3462 98.0745
" />
<path d="M167.3462 98.0745
L167.2510 98.0745
" />
<path d="M167.2986 98.3126
L167.2033 98.2650
" />
<path d="M167.2033 98.2650
L167.1081 98.1698
" />
<path d="M167.1081 98.1698
L167.0605 97.9793
" />
<path d="M167.0605 97.9793
L167.0605 97.6460
" />
<path d="M167.0605 97.6460
L167.1081 97.4555
" />
<path d="M167.1081 97.4555
L167.2033 97.3602
" />
<path d="M167.2033 97.3602
L167.2986 97.3126
" />
<path d="M167.2986 97.3126
L167.4890 97.3126
" />
<path d="M167.4890 97.3126
L167.5843 97.3602
" />
<path d="M167.5843 97.3602
L167.6795 97.4555
" />
<path d="M167.6795 97.4555
L167.7271 97.6460
" />
<path d="M167.7271 97.6460
L167.7271 97.9793
" />
<path d="M167.7271 97.9793
L167.6795 98.1698
" />
<path d="M167.6795 98.1698
L167.5843 98.2650
" />
<path d="M167.5843 98.2650
L167.4890 98.3126
" />
<path d="M167.4890 98.3126
L167.2986 98.3126
" />
<path d="M168.5843 97.6460
L168.5843 98.3126
" />
<path d="M168.3462 97.2650
L168.1081 97.9793
" />
<path d="M168.1081 97.9793
L168.7271 97.9793
" />
</g><g transform="rotate(-90.000000 161.3500 99.9500)">
<text x="161.3500" y="100.4500"
textLength="2.1274" font-size="1.3333" lengthAdjust="spacingAndGlyphs"
text-anchor="middle" opacity="0">R9</text>
</g>
<g class="stroked-text"><desc>R9</desc>
<path d="M161.8126 100.1167
L161.3364 100.4500
" />
<path d="M161.8126 100.6881
L160.8126 100.6881
" />
<path d="M160.8126 100.6881
L160.8126 100.3071
" />
<path d="M160.8126 100.3071
L160.8602 100.2119
" />
<path d="M160.8602 100.2119
L160.9079 100.1643
" />
<path d="M160.9079 100.1643
L161.0031 100.1167
" />
<path d="M161.0031 100.1167
L161.1460 100.1167
" />
<path d="M161.1460 100.1167
L161.2412 100.1643
" />
<path d="M161.2412 100.1643
L161.2888 100.2119
" />
<path d="M161.2888 100.2119
L161.3364 100.3071
" />
<path d="M161.3364 100.3071
L161.3364 100.6881
" />
<path d="M161.8126 99.6405
L161.8126 99.4500
" />
<path d="M161.8126 99.4500
L161.7650 99.3548
" />
<path d="M161.7650 99.3548
L161.7174 99.3071
" />
<path d="M161.7174 99.3071
L161.5745 99.2119
" />
<path d="M161.5745 99.2119
L161.3840 99.1643
" />
<path d="M161.3840 99.1643
L161.0031 99.1643
" />
<path d="M161.0031 99.1643
L160.9079 99.2119
" />
<path d="M160.9079 99.2119
L160.8602 99.2595
" />
<path d="M160.8602 99.2595
L160.8126 99.3548
" />
<path d="M160.8126 99.3548
L160.8126 99.5452
" />
<path d="M160.8126 99.5452
L160.8602 99.6405
" />
<path d="M160.8602 99.6405
L160.9079 99.6881
" />
<path d="M160.9079 99.6881
L161.0031 99.7357
" />
<path d="M161.0031 99.7357
L161.2412 99.7357
" />
<path d="M161.2412 99.7357
L161.3364 99.6881
" />
<path d="M161.3364 99.6881
L161.3840 99.6405
" />
<path d="M161.3840 99.6405
L161.4317 99.5452
" />
<path d="M161.4317 99.5452
L161.4317 99.3548
" />
<path d="M161.4317 99.3548
L161.3840 99.2595
" />
<path d="M161.3840 99.2595
L161.3364 99.2119
" />
<path d="M161.3364 99.2119
L161.2412 99.1643
" />
</g></g>
<g style="fill:#FFFFFF; fill-opacity:0.0; 
stroke:#FFFFFF; stroke-width:0.1200; stroke-opacity:1; 
stroke-linecap:round; stroke-linejoin:round;">
<path d="M142.8700 96.8700
L142.8700 96.8550
" />
<path d="M142.8700 96.8700
L138.3300 96.8700
" />
<path d="M142.8700 94.7450
L142.8700 94.7300
" />
<path d="M142.8700 94.7300
L138.3300 94.7300
" />
<path d="M138.3300 96.8700
L138.3300 96.8550
" />
<path d="M138.3300 94.7450
L138.3300 94.7300
" />
<path d="M169.1300 84.5300
L170.4000 84.5300
" />
<path d="M169.1300 85.8000
L169.1300 84.5300
" />
<path d="M171.4429 87.9600
L171.8400 87.9600
" />
<path d="M171.4429 88.7200
L171.8400 88.7200
" />
<path d="M171.4429 90.5000
L171.8400 90.5000
" />
<path d="M171.4429 91.2600
L171.8400 91.2600
" />
<path d="M171.4429 93.0400
L171.8400 93.0400
" />
<path d="M171.4429 93.8000
L171.8400 93.8000
" />
<path d="M171.4429 95.5800
L171.8400 95.5800
" />
<path d="M171.4429 96.3400
L171.8400 96.3400
" />
<path d="M171.4429 98.1200
L171.8400 98.1200
" />
<path d="M171.4429 98.8800
L171.8400 98.8800
" />
<path d="M171.4429 100.6600
L171.8400 100.6600
" />
<path d="M171.4429 101.4200
L171.8400 101.4200
" />
<path d="M171.5100 85.4200
L171.8400 85.4200
" />
<path d="M171.5100 86.1800
L171.8400 86.1800
" />
<path d="M171.8400 84.4700
L171.8400 102.3700
" />
<path d="M171.8400 87.0700
L174.5000 87.0700
" />
<path d="M171.8400 89.6100
L174.5000 89.6100
" />
<path d="M171.8400 92.1500
L174.5000 92.1500
" />
<path d="M171.8400 94.6900
L174.5000 94.6900
" />
<path d="M171.8400 97.2300
L174.5000 97.2300
" />
<path d="M171.8400 99.7700
L174.5000 99.7700
" />
<path d="M171.8400 102.3700
L174.5000 102.3700
" />
<path d="M174.5000 84.4700
L171.8400 84.4700
" />
<path d="M174.5000 85.4200
L180.5000 85.4200
" />
<path d="M174.5000 85.4800
L180.5000 85.4800
" />
<path d="M174.5000 85.6000
L180.5000 85.6000
" />
<path d="M174.5000 85.7200
L180.5000 85.7200
" />
<path d="M174.5000 85.8400
L180.5000 85.8400
" />
<path d="M174.5000 85.9600
L180.5000 85.9600
" />
<path d="M174.5000 86.0800
L180.5000 86.0800
" />
<path d="M174.5000 87.9600
L180.5000 87.9600
" />
<path d="M174.5000 90.5000
L180.5000 90.5000
" />
<path d="M174.5000 93.0400
L180.5000 93.0400
" />
<path d="M174.5000 95.5800
L180.5000 95.5800
" />
<path d="M174.5000 98.1200
L180.5000 98.1200
" />
<path d="M174.5000 100.6600
L180.5000 100.6600
" />
<path d="M174.5000 102.3700
L174.5000 84.4700
" />
<path d="M180.5000 85.4200
L180.5000 86.1800
" />
<path d="M180.5000 86.1800
L174.5000 86.1800
" />
<path d="M180.5000 87.9600
L180.5000 88.7200
" />
<path d="M180.5000 88.7200
L174.5000 88.7200
" />
<path d="M180.5000 90.5000
L180.5000 91.2600
" />
<path d="M180.5000 91.2600
L174.5000 91.2600
" />
<path d="M180.5000 93.0400
L180.5000 93.8000
" />
<path d="M180.5000 93.8000
L174.5000 93.8000
" />
<path d="M180.5000 95.5800
L180.5000 96.3400
" />
<path d="M180.5000 96.3400
L174.5000 96.3400
" />
<path d="M180.5000 98.1200
L180.5000 98.8800
" />
<path d="M180.5000 98.8800
L174.5000 98.8800
" />
<path d="M180.5000 100.6600
L180.5000 101.4200
" />
<path d="M180.5000 101.4200
L174.5000 101.4200
" />
<path d="M147.9400 82.0900
L147.9400 102.5300
" />
<path d="M147.9400 102.5300
L152.4400 102.5300
" />
<path d="M149.1900 82.0900
L147.9400 82.0900
" />
<path d="M152.4400 82.0900
L151.1900 82.0900
" />
<path d="M152.4400 102.5300
L152.4400 82.0900
" />
<path d="M149.1900 82.0900 A1.0000 1.0000 0.0 0 0 151.1900 82.0900" />
<path d="M166.6700 99.0900
L163.0700 99.0900
" />
<path d="M165.6900 103.3900 A2.5836 2.5836 0.0 0 0 166.6815 99.0978" />
<path d="M163.0616 99.1123 A2.5712 2.5712 0.0 0 0 164.0900 103.3900" />
<path d="M139.8000 84.1600
L139.8000 84.9300
" />
<path d="M141.1700 84.9300
L138.4300 84.9300
" />
<path d="M138.4300 84.9300
L138.4300 91.4700
" />
<path d="M141.1700 91.4700
L141.1700 84.9300
" />
<path d="M138.4300 91.4700
L141.1700 91.4700
" />
<path d="M139.8000 92.2400
L139.8000 91.4700
" />
<path d="M152.2600 80.2000
L151.4900 80.2000
" />
<path d="M151.4900 81.5700
L151.4900 78.8300
" />
<path d="M151.4900 78.8300
L144.9500 78.8300
" />
<path d="M144.9500 81.5700
L151.4900 81.5700
" />
<path d="M144.9500 78.8300
L144.9500 81.5700
" />
<path d="M144.1800 80.2000
L144.9500 80.2000
" />
<path d="M136.6000 92.2400
L136.6000 91.4700
" />
<path d="M135.2300 91.4700
L137.9700 91.4700
" />
<path d="M137.9700 91.4700
L137.9700 84.9300
" />
<path d="M135.2300 84.9300
L135.2300 91.4700
" />
<path d="M137.9700 84.9300
L135.2300 84.9300
" />
<path d="M136.6000 84.1600
L136.6000 84.9300
" />
<path d="M166.6000 83.0300
L163.0000 83.0300
" />
<path d="M165.6200 87.3300 A2.5836 2.5836 0.0 0 0 166.6115 83.0378" />
<path d="M162.9916 83.0523 A2.5712 2.5712 0.0 0 0 164.0200 87.3300" />
<path d="M166.6000 88.4300
L163.0000 88.4300
" />
<path d="M165.6200 92.7300 A2.5836 2.5836 0.0 0 0 166.6115 88.4378" />
<path d="M162.9916 88.4523 A2.5712 2.5712 0.0 0 0 164.0200 92.7300" />
<path d="M158.9800 91.5800
L158.9800 90.8100
" />
<path d="M157.6100 90.8100
L160.3500 90.8100
" />
<path d="M160.3500 90.8100
L160.3500 84.2700
" />
<path d="M157.6100 84.2700
L157.6100 90.8100
" />
<path d="M160.3500 84.2700
L157.6100 84.2700
" />
<path d="M158.9800 83.5000
L158.9800 84.2700
" />
<path d="M142.0700 102.5400
L141.3000 102.5400
" />
<path d="M141.3000 103.9100
L141.3000 101.1700
" />
<path d="M141.3000 101.1700
L134.7600 101.1700
" />
<path d="M134.7600 103.9100
L141.3000 103.9100
" />
<path d="M134.7600 101.1700
L134.7600 103.9100
" />
<path d="M133.9900 102.5400
L134.7600 102.5400
" />
<path d="M142.0400 98.8000
L141.2700 98.8000
" />
<path d="M141.2700 100.1700
L141.2700 97.4300
" />
<path d="M141.2700 97.4300
L134.7300 97.4300
" />
<path d="M134.7300 100.1700
L141.2700 100.1700
" />
<path d="M134.7300 97.4300
L134.7300 100.1700
" />
<path d="M133.9600 98.8000
L134.7300 98.8000
" />
<path d="M143.0000 84.1600
L143.0000 84.9300
" />
<path d="M144.3700 84.9300
L141.6300 84.9300
" />
<path d="M141.6300 84.9300
L141.6300 91.4700
" />
<path d="M144.3700 91.4700
L144.3700 84.9300
" />
<path d="M141.6300 91.4700
L144.3700 91.4700
" />
<path d="M143.0000 92.2400
L143.0000 91.4700
" />
<path d="M155.0400 104.4000
L154.2700 104.4000
" />
<path d="M154.2700 105.7700
L154.2700 103.0300
" />
<path d="M154.2700 103.0300
L147.7300 103.0300
" />
<path d="M147.7300 105.7700
L154.2700 105.7700
" />
<path d="M147.7300 103.0300
L147.7300 105.7700
" />
<path d="M146.9600 104.4000
L147.7300 104.4000
" />
<path d="M144.2424 107.5950
L143.8424 107.5950
" />
<path d="M144.0424 107.7950
L144.0424 107.3950
" />
<path d="M141.9726 108.4800
L141.9726 104.3200
" />
<path d="M141.9326 108.4800
L141.9326 104.3200
" />
<path d="M141.8926 108.4790
L141.8926 104.3210
" />
<path d="M141.8526 108.4770
L141.8526 104.3230
" />
<path d="M141.8126 108.4740
L141.8126 104.3260
" />
<path d="M141.7726 108.4710
L141.7726 107.2400
" />
<path d="M141.7726 105.5600
L141.7726 104.3290
" />
<path d="M141.7326 108.4670
L141.7326 107.2400
" />
<path d="M141.7326 105.5600
L141.7326 104.3330
" />
<path d="M141.6926 108.4620
L141.6926 107.2400
" />
<path d="M141.6926 105.5600
L141.6926 104.3380
" />
<path d="M141.6526 108.4560
L141.6526 107.2400
" />
<path d="M141.6526 105.5600
L141.6526 104.3440
" />
<path d="M141.6126 108.4500
L141.6126 107.2400
" />
<path d="M141.6126 105.5600
L141.6126 104.3500
" />
<path d="M141.5726 108.4420
L141.5726 107.2400
" />
<path d="M141.5726 105.5600
L141.5726 104.3580
" />
<path d="M141.5326 108.4340
L141.5326 107.2400
" />
<path d="M141.5326 105.5600
L141.5326 104.3660
" />
<path d="M141.4926 108.4250
L141.4926 107.2400
" />
<path d="M141.4926 105.5600
L141.4926 104.3750
" />
<path d="M141.4526 108.4160
L141.4526 107.2400
" />
<path d="M141.4526 105.5600
L141.4526 104.3840
" />
<path d="M141.4126 108.4050
L141.4126 107.2400
" />
<path d="M141.4126 105.5600
L141.4126 104.3950
" />
<path d="M141.3726 108.3940
L141.3726 107.2400
" />
<path d="M141.3726 105.5600
L141.3726 104.4060
" />
<path d="M141.3326 108.3820
L141.3326 107.2400
" />
<path d="M141.3326 105.5600
L141.3326 104.4180
" />
<path d="M141.2926 108.3680
L141.2926 107.2400
" />
<path d="M141.2926 105.5600
L141.2926 104.4320
" />
<path d="M141.2516 108.3540
L141.2516 107.2400
" />
<path d="M141.2516 105.5600
L141.2516 104.4460
" />
<path d="M141.2116 108.3400
L141.2116 107.2400
" />
<path d="M141.2116 105.5600
L141.2116 104.4600
" />
<path d="M141.1716 108.3240
L141.1716 107.2400
" />
<path d="M141.1716 105.5600
L141.1716 104.4760
" />
<path d="M141.1316 108.3070
L141.1316 107.2400
" />
<path d="M141.1316 105.5600
L141.1316 104.4930
" />
<path d="M141.0916 108.2890
L141.0916 107.2400
" />
<path d="M141.0916 105.5600
L141.0916 104.5110
" />
<path d="M141.0516 108.2700
L141.0516 107.2400
" />
<path d="M141.0516 105.5600
L141.0516 104.5300
" />
<path d="M141.0116 108.2510
L141.0116 107.2400
" />
<path d="M141.0116 105.5600
L141.0116 104.5490
" />
<path d="M140.9716 108.2300
L140.9716 107.2400
" />
<path d="M140.9716 105.5600
L140.9716 104.5700
" />
<path d="M140.9316 108.2080
L140.9316 107.2400
" />
<path d="M140.9316 105.5600
L140.9316 104.5920
" />
<path d="M140.8916 108.1850
L140.8916 107.2400
" />
<path d="M140.8916 105.5600
L140.8916 104.6150
" />
<path d="M140.8516 108.1600
L140.8516 107.2400
" />
<path d="M140.8516 105.5600
L140.8516 104.6400
" />
<path d="M140.8116 108.1350
L140.8116 107.2400
" />
<path d="M140.8116 105.5600
L140.8116 104.6650
" />
<path d="M140.7716 108.1080
L140.7716 107.2400
" />
<path d="M140.7716 105.5600
L140.7716 104.6920
" />
<path d="M140.7316 108.0800
L140.7316 107.2400
" />
<path d="M140.7316 105.5600
L140.7316 104.7200
" />
<path d="M140.6916 108.0500
L140.6916 107.2400
" />
<path d="M140.6916 105.5600
L140.6916 104.7500
" />
<path d="M140.6516 108.0190
L140.6516 107.2400
" />
<path d="M140.6516 105.5600
L140.6516 104.7810
" />
<path d="M140.6116 107.9870
L140.6116 107.2400
" />
<path d="M140.6116 105.5600
L140.6116 104.8130
" />
<path d="M140.5716 107.9520
L140.5716 107.2400
" />
<path d="M140.5716 105.5600
L140.5716 104.8480
" />
<path d="M140.5316 107.9160
L140.5316 107.2400
" />
<path d="M140.5316 105.5600
L140.5316 104.8840
" />
<path d="M140.4916 107.8780
L140.4916 107.2400
" />
<path d="M140.4916 105.5600
L140.4916 104.9220
" />
<path d="M140.4516 107.8380
L140.4516 107.2400
" />
<path d="M140.4516 105.5600
L140.4516 104.9620
" />
<path d="M140.4116 107.7960
L140.4116 107.2400
" />
<path d="M140.4116 105.5600
L140.4116 105.0040
" />
<path d="M140.3716 107.7510
L140.3716 107.2400
" />
<path d="M140.3716 105.5600
L140.3716 105.0490
" />
<path d="M140.3316 107.7040
L140.3316 107.2400
" />
<path d="M140.3316 105.5600
L140.3316 105.0960
" />
<path d="M140.2916 107.6540
L140.2916 107.2400
" />
<path d="M140.2916 105.5600
L140.2916 105.1460
" />
<path d="M140.2516 107.6000
L140.2516 107.2400
" />
<path d="M140.2516 105.5600
L140.2516 105.2000
" />
<path d="M140.2116 107.5420
L140.2116 107.2400
" />
<path d="M140.2116 105.5600
L140.2116 105.2580
" />
<path d="M140.1716 107.4800
L140.1716 107.2400
" />
<path d="M140.1716 105.5600
L140.1716 105.3200
" />
<path d="M140.1316 107.4130
L140.1316 105.3870
" />
<path d="M140.0916 107.3400
L140.0916 105.4600
" />
<path d="M140.0516 107.2590
L140.0516 105.5410
" />
<path d="M140.0116 107.1680
L140.0116 105.6320
" />
<path d="M139.9716 107.0640
L139.9716 105.7360
" />
<path d="M139.9316 106.9370
L139.9316 105.8630
" />
<path d="M139.8916 106.7700
L139.8916 106.0300
" />
<circle cx="141.9726" cy="106.4000" r="2.1200" /> 
<path d="M166.6000 93.7700
L163.0000 93.7700
" />
<path d="M165.6200 98.0700 A2.5836 2.5836 0.0 0 0 166.6115 93.7778" />
<path d="M162.9916 93.7923 A2.5712 2.5712 0.0 0 0 164.0200 98.0700" />
<path d="M158.9800 95.9100
L158.9800 96.6800
" />
<path d="M160.3500 96.6800
L157.6100 96.6800
" />
<path d="M157.6100 96.6800
L157.6100 103.2200
" />
<path d="M160.3500 103.2200
L160.3500 96.6800
" />
<path d="M157.6100 103.2200
L160.3500 103.2200
" />
<path d="M158.9800 103.9900
L158.9800 103.2200
" />
<g >
</g>
<g >
</g>
<g >
</g>
<g >
</g>
<g >
</g>
<g >
</g>
<g >
</g>
<g >
</g>
<g >
</g>
<g >
</g>
<g >
</g>
<g >
</g>
<g >
</g>
<g >
</g>
<g >
</g>
<g >
</g>
<g >
</g>
<g >
</g>
<g >
</g>
<g >
</g>
</g>
<g style="fill:#000000; fill-opacity:0.0; 
stroke:#000000; stroke-width:0.1200; stroke-opacity:1; 
stroke-linecap:round; stroke-linejoin:round;">
</g>
<g style="fill:#000000; fill-opacity:1.0000; 
stroke:#000000; stroke-width:0.0000; stroke-opacity:1; 
stroke-linecap:round; stroke-linejoin:round;">
<circle cx="169.6000" cy="77.2600" r="0.5000" /> 
</g>
<g style="fill:#000000; fill-opacity:1.0000; 
stroke:#000000; stroke-width:0.0212; stroke-opacity:1; 
stroke-linecap:round; stroke-linejoin:round;">
</g>
<g style="fill:#000000; fill-opacity:1.0000; 
stroke:#000000; stroke-width:0.0000; stroke-opacity:1; 
stroke-linecap:round; stroke-linejoin:round;">
<circle cx="161.5000" cy="86.0000" r="0.5000" /> 
</g>
<g style="fill:#000000; fill-opacity:1.0000; 
stroke:#000000; stroke-width:0.0212; stroke-opacity:1; 
stroke-linecap:round; stroke-linejoin:round;">
</g>
<g style="fill:#000000; fill-opacity:1.0000; 
stroke:#000000; stroke-width:0.0000; stroke-opacity:1; 
stroke-linecap:round; stroke-linejoin:round;">
<circle cx="161.5000" cy="94.9000" r="0.5000" /> 
</g>
<g style="fill:#000000; fill-opacity:1.0000; 
stroke:#000000; stroke-width:0.0212; stroke-opacity:1; 
stroke-linecap:round; stroke-linejoin:round;">
</g>
<g style="fill:#000000; fill-opacity:1.0000; 
stroke:#000000; stroke-width:0.0000; stroke-opacity:1; 
stroke-linecap:round; stroke-linejoin:round;">
<circle cx="164.8000" cy="81.9700" r="0.5000" /> 
</g>
<g style="fill:#000000; fill-opacity:1.0000; 
stroke:#000000; stroke-width:0.0212; stroke-opacity:1; 
stroke-linecap:round; stroke-linejoin:round;">
</g>
<g style="fill:#000000; fill-opacity:1.0000; 
stroke:#000000; stroke-width:0.0000; stroke-opacity:1; 
stroke-linecap:round; stroke-linejoin:round;">
<circle cx="143.1000" cy="95.8000" r="0.4000" /> 
</g>
<g style="fill:#000000; fill-opacity:1.0000; 
stroke:#000000; stroke-width:0.0212; stroke-opacity:1; 
stroke-linecap:round; stroke-linejoin:round;">
</g>
<g style="fill:#000000; fill-opacity:1.0000; 
stroke:#000000; stroke-width:0.0000; stroke-opacity:1; 
stroke-linecap:round; stroke-linejoin:round;">
<circle cx="138.1000" cy="95.8000" r="0.4000" /> 
</g>
<g style="fill:#000000; fill-opacity:1.0000; 
stroke:#000000; stroke-width:0.0212; stroke-opacity:1; 
stroke-linecap:round; stroke-linejoin:round;">
</g>
<g style="fill:#000000; fill-opacity:1.0000; 
stroke:#000000; stroke-width:0.0000; stroke-opacity:1; 
stroke-linecap:round; stroke-linejoin:round;">
<circle cx="170.4000" cy="85.8000" r="0.5000" /> 
</g>
<g style="fill:#000000; fill-opacity:1.0000; 
stroke:#000000; stroke-width:0.0212; stroke-opacity:1; 
stroke-linecap:round; stroke-linejoin:round;">
</g>
<g style="fill:#000000; fill-opacity:1.0000; 
stroke:#000000; stroke-width:0.0000; stroke-opacity:1; 
stroke-linecap:round; stroke-linejoin:round;">
<circle cx="170.4000" cy="88.3400" r="0.5000" /> 
</g>
<g style="fill:#000000; fill-opacity:1.0000; 
stroke:#000000; stroke-width:0.0212; stroke-opacity:1; 
stroke-linecap:round; stroke-linejoin:round;">
</g>
<g style="fill:#000000; fill-opacity:1.0000; 
stroke:#000000; stroke-width:0.0000; stroke-opacity:1; 
stroke-linecap:round; stroke-linejoin:round;">
<circle cx="170.4000" cy="90.8800" r="0.5000" /> 
</g>
<g style="fill:#000000; fill-opacity:1.0000; 
stroke:#000000; stroke-width:0.0212; stroke-opacity:1; 
stroke-linecap:round; stroke-linejoin:round;">
</g>
<g style="fill:#000000; fill-opacity:1.0000; 
stroke:#000000; stroke-width:0.0000; stroke-opacity:1; 
stroke-linecap:round; stroke-linejoin:round;">
<circle cx="170.4000" cy="93.4200" r="0.5000" /> 
</g>
<g style="fill:#000000; fill-opacity:1.0000; 
stroke:#000000; stroke-width:0.0212; stroke-opacity:1; 
stroke-linecap:round; stroke-linejoin:round;">
</g>
<g style="fill:#000000; fill-opacity:1.0000; 
stroke:#000000; stroke-width:0.0000; stroke-opacity:1; 
stroke-linecap:round; stroke-linejoin:round;">
<circle cx="170.4000" cy="95.9600" r="0.5000" /> 
</g>
<g style="fill:#000000; fill-opacity:1.0000; 
stroke:#000000; stroke-width:0.0212; stroke-opacity:1; 
stroke-linecap:round; stroke-linejoin:round;">
</g>
<g style="fill:#000000; fill-opacity:1.0000; 
stroke:#000000; stroke-width:0.0000; stroke-opacity:1; 
stroke-linecap:round; stroke-linejoin:round;">
<circle cx="170.4000" cy="98.5000" r="0.5000" /> 
</g>
<g style="fill:#000000; fill-opacity:1.0000; 
stroke:#000000; stroke-width:0.0212; stroke-opacity:1; 
stroke-linecap:round; stroke-linejoin:round;">
</g>
<g style="fill:#000000; fill-opacity:1.0000; 
stroke:#000000; stroke-width:0.0000; stroke-opacity:1; 
stroke-linecap:round; stroke-linejoin:round;">
<circle cx="170.4000" cy="101.0400" r="0.5000" /> 
</g>
<g style="fill:#000000; fill-opacity:1.0000; 
stroke:#000000; stroke-width:0.0212; stroke-opacity:1; 
stroke-linecap:round; stroke-linejoin:round;">
</g>
<g style="fill:#000000; fill-opacity:1.0000; 
stroke:#000000; stroke-width:0.0000; stroke-opacity:1; 
stroke-linecap:round; stroke-linejoin:round;">
<circle cx="146.3800" cy="83.4200" r="0.4000" /> 
</g>
<g style="fill:#000000; fill-opacity:1.0000; 
stroke:#000000; stroke-width:0.0212; stroke-opacity:1; 
stroke-linecap:round; stroke-linejoin:round;">
</g>
<g style="fill:#000000; fill-opacity:1.0000; 
stroke:#000000; stroke-width:0.0000; stroke-opacity:1; 
stroke-linecap:round; stroke-linejoin:round;">
<circle cx="146.3800" cy="85.9600" r="0.4000" /> 
</g>
<g style="fill:#000000; fill-opacity:1.0000; 
stroke:#000000; stroke-width:0.0212; stroke-opacity:1; 
stroke-linecap:round; stroke-linejoin:round;">
</g>
<g style="fill:#000000; fill-opacity:1.0000; 
stroke:#000000; stroke-width:0.0000; stroke-opacity:1; 
stroke-linecap:round; stroke-linejoin:round;">
<circle cx="146.3800" cy="88.5000" r="0.4000" /> 
</g>
<g style="fill:#000000; fill-opacity:1.0000; 
stroke:#000000; stroke-width:0.0212; stroke-opacity:1; 
stroke-linecap:round; stroke-linejoin:round;">
</g>
<g style="fill:#000000; fill-opacity:1.0000; 
stroke:#000000; stroke-width:0.0000; stroke-opacity:1; 
stroke-linecap:round; stroke-linejoin:round;">
<circle cx="146.3800" cy="91.0400" r="0.4000" /> 
</g>
<g style="fill:#000000; fill-opacity:1.0000; 
stroke:#000000; stroke-width:0.0212; stroke-opacity:1; 
stroke-linecap:round; stroke-linejoin:round;">
</g>
<g style="fill:#000000; fill-opacity:1.0000; 
stroke:#000000; stroke-width:0.0000; stroke-opacity:1; 
stroke-linecap:round; stroke-linejoin:round;">
<circle cx="146.3800" cy="93.5800" r="0.4000" /> 
</g>
<g style="fill:#000000; fill-opacity:1.0000; 
stroke:#000000; stroke-width:0.0212; stroke-opacity:1; 
stroke-linecap:round; stroke-linejoin:round;">
</g>
<g style="fill:#000000; fill-opacity:1.0000; 
stroke:#000000; stroke-width:0.0000; stroke-opacity:1; 
stroke-linecap:round; stroke-linejoin:round;">
<circle cx="146.3800" cy="96.1200" r="0.4000" /> 
</g>
<g style="fill:#000000; fill-opacity:1.0000; 
stroke:#000000; stroke-width:0.0212; stroke-opacity:1; 
stroke-linecap:round; stroke-linejoin:round;">
</g>
<g style="fill:#000000; fill-opacity:1.0000; 
stroke:#000000; stroke-width:0.0000; stroke-opacity:1; 
stroke-linecap:round; stroke-linejoin:round;">
<circle cx="146.3800" cy="98.6600" r="0.4000" /> 
</g>
<g style="fill:#000000; fill-opacity:1.0000; 
stroke:#000000; stroke-width:0.0212; stroke-opacity:1; 
stroke-linecap:round; stroke-linejoin:round;">
</g>
<g style="fill:#000000; fill-opacity:1.0000; 
stroke:#000000; stroke-width:0.0000; stroke-opacity:1; 
stroke-linecap:round; stroke-linejoin:round;">
<circle cx="146.3800" cy="101.2000" r="0.4000" /> 
</g>
<g style="fill:#000000; fill-opacity:1.0000; 
stroke:#000000; stroke-width:0.0212; stroke-opacity:1; 
stroke-linecap:round; stroke-linejoin:round;">
</g>
<g style="fill:#000000; fill-opacity:1.0000; 
stroke:#000000; stroke-width:0.0000; stroke-opacity:1; 
stroke-linecap:round; stroke-linejoin:round;">
<circle cx="154.0000" cy="101.2000" r="0.4000" /> 
</g>
<g style="fill:#000000; fill-opacity:1.0000; 
stroke:#000000; stroke-width:0.0212; stroke-opacity:1; 
stroke-linecap:round; stroke-linejoin:round;">
</g>
<g style="fill:#000000; fill-opacity:1.0000; 
stroke:#000000; stroke-width:0.0000; stroke-opacity:1; 
stroke-linecap:round; stroke-linejoin:round;">
<circle cx="154.0000" cy="98.6600" r="0.4000" /> 
</g>
<g style="fill:#000000; fill-opacity:1.0000; 
stroke:#000000; stroke-width:0.0212; stroke-opacity:1; 
stroke-linecap:round; stroke-linejoin:round;">
</g>
<g style="fill:#000000; fill-opacity:1.0000; 
stroke:#000000; stroke-width:0.0000; stroke-opacity:1; 
stroke-linecap:round; stroke-linejoin:round;">
<circle cx="154.0000" cy="96.1200" r="0.4000" /> 
</g>
<g style="fill:#000000; fill-opacity:1.0000; 
stroke:#000000; stroke-width:0.0212; stroke-opacity:1; 
stroke-linecap:round; stroke-linejoin:round;">
</g>
<g style="fill:#000000; fill-opacity:1.0000; 
stroke:#000000; stroke-width:0.0000; stroke-opacity:1; 
stroke-linecap:round; stroke-linejoin:round;">
<circle cx="154.0000" cy="93.5800" r="0.4000" /> 
</g>
<g style="fill:#000000; fill-opacity:1.0000; 
stroke:#000000; stroke-width:0.0212; stroke-opacity:1; 
stroke-linecap:round; stroke-linejoin:round;">
</g>
<g style="fill:#000000; fill-opacity:1.0000; 
stroke:#000000; stroke-width:0.0000; stroke-opacity:1; 
stroke-linecap:round; stroke-linejoin:round;">
<circle cx="154.0000" cy="91.0400" r="0.4000" /> 
</g>
<g style="fill:#000000; fill-opacity:1.0000; 
stroke:#000000; stroke-width:0.0212; stroke-opacity:1; 
stroke-linecap:round; stroke-linejoin:round;">
</g>
<g style="fill:#000000; fill-opacity:1.0000; 
stroke:#000000; stroke-width:0.0000; stroke-opacity:1; 
stroke-linecap:round; stroke-linejoin:round;">
<circle cx="154.0000" cy="88.5000" r="0.4000" /> 
</g>
<g style="fill:#000000; fill-opacity:1.0000; 
stroke:#000000; stroke-width:0.0212; stroke-opacity:1; 
stroke-linecap:round; stroke-linejoin:round;">
</g>
<g style="fill:#000000; fill-opacity:1.0000; 
stroke:#000000; stroke-width:0.0000; stroke-opacity:1; 
stroke-linecap:round; stroke-linejoin:round;">
<circle cx="154.0000" cy="85.9600" r="0.4000" /> 
</g>
<g style="fill:#000000; fill-opacity:1.0000; 
stroke:#000000; stroke-width:0.0212; stroke-opacity:1; 
stroke-linecap:round; stroke-linejoin:round;">
</g>
<g style="fill:#000000; fill-opacity:1.0000; 
stroke:#000000; stroke-width:0.0000; stroke-opacity:1; 
stroke-linecap:round; stroke-linejoin:round;">
<circle cx="154.0000" cy="83.4200" r="0.4000" /> 
</g>
<g style="fill:#000000; fill-opacity:1.0000; 
stroke:#000000; stroke-width:0.0212; stroke-opacity:1; 
stroke-linecap:round; stroke-linejoin:round;">
</g>
<g style="fill:#000000; fill-opacity:1.0000; 
stroke:#000000; stroke-width:0.0000; stroke-opacity:1; 
stroke-linecap:round; stroke-linejoin:round;">
<circle cx="166.1400" cy="100.9400" r="0.3750" /> 
</g>
<g style="fill:#000000; fill-opacity:1.0000; 
stroke:#000000; stroke-width:0.0212; stroke-opacity:1; 
stroke-linecap:round; stroke-linejoin:round;">
</g>
<g style="fill:#000000; fill-opacity:1.0000; 
stroke:#000000; stroke-width:0.0000; stroke-opacity:1; 
stroke-linecap:round; stroke-linejoin:round;">
<circle cx="164.8700" cy="102.2100" r="0.3750" /> 
</g>
<g style="fill:#000000; fill-opacity:1.0000; 
stroke:#000000; stroke-width:0.0212; stroke-opacity:1; 
stroke-linecap:round; stroke-linejoin:round;">
</g>
<g style="fill:#000000; fill-opacity:1.0000; 
stroke:#000000; stroke-width:0.0000; stroke-opacity:1; 
stroke-linecap:round; stroke-linejoin:round;">
<circle cx="163.6000" cy="100.9400" r="0.3750" /> 
</g>
<g style="fill:#000000; fill-opacity:1.0000; 
stroke:#000000; stroke-width:0.0212; stroke-opacity:1; 
stroke-linecap:round; stroke-linejoin:round;">
</g>
<g style="fill:#000000; fill-opacity:1.0000; 
stroke:#000000; stroke-width:0.0000; stroke-opacity:1; 
stroke-linecap:round; stroke-linejoin:round;">
<circle cx="139.8000" cy="83.1200" r="0.4000" /> 
</g>
<g style="fill:#000000; fill-opacity:1.0000; 
stroke:#000000; stroke-width:0.0212; stroke-opacity:1; 
stroke-linecap:round; stroke-linejoin:round;">
</g>
<g style="fill:#000000; fill-opacity:1.0000; 
stroke:#000000; stroke-width:0.0000; stroke-opacity:1; 
stroke-linecap:round; stroke-linejoin:round;">
<circle cx="139.8000" cy="93.2800" r="0.4000" /> 
</g>
<g style="fill:#000000; fill-opacity:1.0000; 
stroke:#000000; stroke-width:0.0212; stroke-opacity:1; 
stroke-linecap:round; stroke-linejoin:round;">
</g>
<g style="fill:#000000; fill-opacity:1.0000; 
stroke:#000000; stroke-width:0.0000; stroke-opacity:1; 
stroke-linecap:round; stroke-linejoin:round;">
<circle cx="153.3000" cy="80.2000" r="0.4000" /> 
</g>
<g style="fill:#000000; fill-opacity:1.0000; 
stroke:#000000; stroke-width:0.0212; stroke-opacity:1; 
stroke-linecap:round; stroke-linejoin:round;">
</g>
<g style="fill:#000000; fill-opacity:1.0000; 
stroke:#000000; stroke-width:0.0000; stroke-opacity:1; 
stroke-linecap:round; stroke-linejoin:round;">
<circle cx="143.1400" cy="80.2000" r="0.4000" /> 
</g>
<g style="fill:#000000; fill-opacity:1.0000; 
stroke:#000000; stroke-width:0.0212; stroke-opacity:1; 
stroke-linecap:round; stroke-linejoin:round;">
</g>
<g style="fill:#000000; fill-opacity:1.0000; 
stroke:#000000; stroke-width:0.0000; stroke-opacity:1; 
stroke-linecap:round; stroke-linejoin:round;">
<circle cx="136.6000" cy="93.2800" r="0.4000" /> 
</g>
<g style="fill:#000000; fill-opacity:1.0000; 
stroke:#000000; stroke-width:0.0212; stroke-opacity:1; 
stroke-linecap:round; stroke-linejoin:round;">
</g>
<g style="fill:#000000; fill-opacity:1.0000; 
stroke:#000000; stroke-width:0.0000; stroke-opacity:1; 
stroke-linecap:round; stroke-linejoin:round;">
<circle cx="136.6000" cy="83.1200" r="0.4000" /> 
</g>
<g style="fill:#000000; fill-opacity:1.0000; 
stroke:#000000; stroke-width:0.0212; stroke-opacity:1; 
stroke-linecap:round; stroke-linejoin:round;">
</g>
<g style="fill:#000000; fill-opacity:1.0000; 
stroke:#000000; stroke-width:0.0000; stroke-opacity:1; 
stroke-linecap:round; stroke-linejoin:round;">
<circle cx="166.0700" cy="84.8800" r="0.3750" /> 
</g>
<g style="fill:#000000; fill-opacity:1.0000; 
stroke:#000000; stroke-width:0.0212; stroke-opacity:1; 
stroke-linecap:round; stroke-linejoin:round;">
</g>
<g style="fill:#000000; fill-opacity:1.0000; 
stroke:#000000; stroke-width:0.0000; stroke-opacity:1; 
stroke-linecap:round; stroke-linejoin:round;">
<circle cx="164.8000" cy="86.1500" r="0.3750" /> 
</g>
<g style="fill:#000000; fill-opacity:1.0000; 
stroke:#000000; stroke-width:0.0212; stroke-opacity:1; 
stroke-linecap:round; stroke-linejoin:round;">
</g>
<g style="fill:#000000; fill-opacity:1.0000; 
stroke:#000000; stroke-width:0.0000; stroke-opacity:1; 
stroke-linecap:round; stroke-linejoin:round;">
<circle cx="163.5300" cy="84.8800" r="0.3750" /> 
</g>
<g style="fill:#000000; fill-opacity:1.0000; 
stroke:#000000; stroke-width:0.0212; stroke-opacity:1; 
stroke-linecap:round; stroke-linejoin:round;">
</g>
<g style="fill:#000000; fill-opacity:1.0000; 
stroke:#000000; stroke-width:0.0000; stroke-opacity:1; 
stroke-linecap:round; stroke-linejoin:round;">
<circle cx="166.0700" cy="90.2800" r="0.3750" /> 
</g>
<g style="fill:#000000; fill-opacity:1.0000; 
stroke:#000000; stroke-width:0.0212; stroke-opacity:1; 
stroke-linecap:round; stroke-linejoin:round;">
</g>
<g style="fill:#000000; fill-opacity:1.0000; 
stroke:#000000; stroke-width:0.0000; stroke-opacity:1; 
stroke-linecap:round; stroke-linejoin:round;">
<circle cx="164.8000" cy="91.5500" r="0.3750" /> 
</g>
<g style="fill:#000000; fill-opacity:1.0000; 
stroke:#000000; stroke-width:0.0212; stroke-opacity:1; 
stroke-linecap:round; stroke-linejoin:round;">
</g>
<g style="fill:#000000; fill-opacity:1.0000; 
stroke:#000000; stroke-width:0.0000; stroke-opacity:1; 
stroke-linecap:round; stroke-linejoin:round;">
<circle cx="163.5300" cy="90.2800" r="0.3750" /> 
</g>
<g style="fill:#000000; fill-opacity:1.0000; 
stroke:#000000; stroke-width:0.0212; stroke-opacity:1; 
stroke-linecap:round; stroke-linejoin:round;">
</g>
<g style="fill:#000000; fill-opacity:1.0000; 
stroke:#000000; stroke-width:0.0000; stroke-opacity:1; 
stroke-linecap:round; stroke-linejoin:round;">
<circle cx="158.9800" cy="92.6200" r="0.4000" /> 
</g>
<g style="fill:#000000; fill-opacity:1.0000; 
stroke:#000000; stroke-width:0.0212; stroke-opacity:1; 
stroke-linecap:round; stroke-linejoin:round;">
</g>
<g style="fill:#000000; fill-opacity:1.0000; 
stroke:#000000; stroke-width:0.0000; stroke-opacity:1; 
stroke-linecap:round; stroke-linejoin:round;">
<circle cx="158.9800" cy="82.4600" r="0.4000" /> 
</g>
<g style="fill:#000000; fill-opacity:1.0000; 
stroke:#000000; stroke-width:0.0212; stroke-opacity:1; 
stroke-linecap:round; stroke-linejoin:round;">
</g>
<g style="fill:#000000; fill-opacity:1.0000; 
stroke:#000000; stroke-width:0.0000; stroke-opacity:1; 
stroke-linecap:round; stroke-linejoin:round;">
<circle cx="143.1100" cy="102.5400" r="0.4000" /> 
</g>
<g style="fill:#000000; fill-opacity:1.0000; 
stroke:#000000; stroke-width:0.0212; stroke-opacity:1; 
stroke-linecap:round; stroke-linejoin:round;">
</g>
<g style="fill:#000000; fill-opacity:1.0000; 
stroke:#000000; stroke-width:0.0000; stroke-opacity:1; 
stroke-linecap:round; stroke-linejoin:round;">
<circle cx="132.9500" cy="102.5400" r="0.4000" /> 
</g>
<g style="fill:#000000; fill-opacity:1.0000; 
stroke:#000000; stroke-width:0.0212; stroke-opacity:1; 
stroke-linecap:round; stroke-linejoin:round;">
</g>
<g style="fill:#000000; fill-opacity:1.0000; 
stroke:#000000; stroke-width:0.0000; stroke-opacity:1; 
stroke-linecap:round; stroke-linejoin:round;">
<circle cx="143.0800" cy="98.8000" r="0.4000" /> 
</g>
<g style="fill:#000000; fill-opacity:1.0000; 
stroke:#000000; stroke-width:0.0212; stroke-opacity:1; 
stroke-linecap:round; stroke-linejoin:round;">
</g>
<g style="fill:#000000; fill-opacity:1.0000; 
stroke:#000000; stroke-width:0.0000; stroke-opacity:1; 
stroke-linecap:round; stroke-linejoin:round;">
<circle cx="132.9200" cy="98.8000" r="0.4000" /> 
</g>
<g style="fill:#000000; fill-opacity:1.0000; 
stroke:#000000; stroke-width:0.0212; stroke-opacity:1; 
stroke-linecap:round; stroke-linejoin:round;">
</g>
<g style="fill:#000000; fill-opacity:1.0000; 
stroke:#000000; stroke-width:0.0000; stroke-opacity:1; 
stroke-linecap:round; stroke-linejoin:round;">
<circle cx="143.0000" cy="83.1200" r="0.4000" /> 
</g>
<g style="fill:#000000; fill-opacity:1.0000; 
stroke:#000000; stroke-width:0.0212; stroke-opacity:1; 
stroke-linecap:round; stroke-linejoin:round;">
</g>
<g style="fill:#000000; fill-opacity:1.0000; 
stroke:#000000; stroke-width:0.0000; stroke-opacity:1; 
stroke-linecap:round; stroke-linejoin:round;">
<circle cx="143.0000" cy="93.2800" r="0.4000" /> 
</g>
<g style="fill:#000000; fill-opacity:1.0000; 
stroke:#000000; stroke-width:0.0212; stroke-opacity:1; 
stroke-linecap:round; stroke-linejoin:round;">
</g>
<g style="fill:#000000; fill-opacity:1.0000; 
stroke:#000000; stroke-width:0.0000; stroke-opacity:1; 
stroke-linecap:round; stroke-linejoin:round;">
<circle cx="156.0800" cy="104.4000" r="0.4000" /> 
</g>
<g style="fill:#000000; fill-opacity:1.0000; 
stroke:#000000; stroke-width:0.0212; stroke-opacity:1; 
stroke-linecap:round; stroke-linejoin:round;">
</g>
<g style="fill:#000000; fill-opacity:1.0000; 
stroke:#000000; stroke-width:0.0000; stroke-opacity:1; 
stroke-linecap:round; stroke-linejoin:round;">
<circle cx="145.9200" cy="104.4000" r="0.4000" /> 
</g>
<g style="fill:#000000; fill-opacity:1.0000; 
stroke:#000000; stroke-width:0.0212; stroke-opacity:1; 
stroke-linecap:round; stroke-linejoin:round;">
</g>
<g style="fill:#000000; fill-opacity:1.0000; 
stroke:#000000; stroke-width:0.0000; stroke-opacity:1; 
stroke-linecap:round; stroke-linejoin:round;">
<circle cx="142.9726" cy="106.4000" r="0.3000" /> 
</g>
<g style="fill:#000000; fill-opacity:1.0000; 
stroke:#000000; stroke-width:0.0212; stroke-opacity:1; 
stroke-linecap:round; stroke-linejoin:round;">
</g>
<g style="fill:#000000; fill-opacity:1.0000; 
stroke:#000000; stroke-width:0.0000; stroke-opacity:1; 
stroke-linecap:round; stroke-linejoin:round;">
<circle cx="140.9726" cy="106.4000" r="0.3000" /> 
</g>
<g style="fill:#000000; fill-opacity:1.0000; 
stroke:#000000; stroke-width:0.0212; stroke-opacity:1; 
stroke-linecap:round; stroke-linejoin:round;">
</g>
<g style="fill:#000000; fill-opacity:1.0000; 
stroke:#000000; stroke-width:0.0000; stroke-opacity:1; 
stroke-linecap:round; stroke-linejoin:round;">
<circle cx="166.0700" cy="95.6200" r="0.3750" /> 
</g>
<g style="fill:#000000; fill-opacity:1.0000; 
stroke:#000000; stroke-width:0.0212; stroke-opacity:1; 
stroke-linecap:round; stroke-linejoin:round;">
</g>
<g style="fill:#000000; fill-opacity:1.0000; 
stroke:#000000; stroke-width:0.0000; stroke-opacity:1; 
stroke-linecap:round; stroke-linejoin:round;">
<circle cx="164.8000" cy="96.8900" r="0.3750" /> 
</g>
<g style="fill:#000000; fill-opacity:1.0000; 
stroke:#000000; stroke-width:0.0212; stroke-opacity:1; 
stroke-linecap:round; stroke-linejoin:round;">
</g>
<g style="fill:#000000; fill-opacity:1.0000; 
stroke:#000000; stroke-width:0.0000; stroke-opacity:1; 
stroke-linecap:round; stroke-linejoin:round;">
<circle cx="163.5300" cy="95.6200" r="0.3750" /> 
</g>
<g style="fill:#000000; fill-opacity:1.0000; 
stroke:#000000; stroke-width:0.0212; stroke-opacity:1; 
stroke-linecap:round; stroke-linejoin:round;">
</g>
<g style="fill:#000000; fill-opacity:1.0000; 
stroke:#000000; stroke-width:0.0000; stroke-opacity:1; 
stroke-linecap:round; stroke-linejoin:round;">
<circle cx="158.9800" cy="94.8700" r="0.4000" /> 
</g>
<g style="fill:#000000; fill-opacity:1.0000; 
stroke:#000000; stroke-width:0.0212; stroke-opacity:1; 
stroke-linecap:round; stroke-linejoin:round;">
</g>
<g style="fill:#000000; fill-opacity:1.0000; 
stroke:#000000; stroke-width:0.0000; stroke-opacity:1; 
stroke-linecap:round; stroke-linejoin:round;">
<circle cx="158.9800" cy="105.0300" r="0.4000" /> 
</g>
<g style="fill:#000000; fill-opacity:1.0000; 
stroke:#000000; stroke-width:0.0212; stroke-opacity:1; 
stroke-linecap:round; stroke-linejoin:round;">
</g>
<g style="fill:#FFFFFF; fill-opacity:1.0000; 
stroke:#FFFFFF; stroke-width:0.0212; stroke-opacity:1; 
stroke-linecap:round; stroke-linejoin:round;">
</g>
<g style="fill:#FFFFFF; fill-opacity:0.0; 
stroke:#FFFFFF; stroke-width:0.1000; stroke-opacity:1; 
stroke-linecap:round; stroke-linejoin:round;">
<path style="fill:#FFFFFF; fill-opacity:0.0; 
stroke:#FFFFFF; stroke-width:0.1000; stroke-opacity:1; 
stroke-linecap:round; stroke-linejoin:round;fill:none"
d="M 130.5000,76.0000
174.5000,76.0000
174.5000,111.0000
130.5000,111.0000
Z" /> 
<g >
</g>
<g >
</g>
<g >
</g>
<g >
</g>
<g >
</g>
<g >
</g>
<g >
</g>
<g >
</g>
<g >
</g>
<g >
</g>
<g >
</g>
<g >
</g>
<g >
</g>
<g >
</g>
<g >
</g>
<g >
</g>
<g >
</g>
<g >
</g>
<g >
</g>
<g >
</g>
</g> 
</svg>
