<?xml version="1.0" standalone="no"?>
 <!DOCTYPE svg PUBLIC "-//W3C//DTD SVG 1.1//EN" 
 "http://www.w3.org/Graphics/SVG/1.1/DTD/svg11.dtd"> 
<svg
  xmlns:svg="http://www.w3.org/2000/svg"
  xmlns="http://www.w3.org/2000/svg"
  xmlns:xlink="http://www.w3.org/1999/xlink"
  version="1.1"
  width="297.0022mm" height="210.0072mm" viewBox="0.0000 0.0000 297.0022 210.0072">
<title>SVG Image created as TL494-F_Fab.svg date 2023/04/07 17:10:58 </title>
  <desc>Image generated by PCBNEW </desc>
<g style="fill:#000000; fill-opacity:1.0000;stroke:#000000; stroke-opacity:1.0000;
stroke-linecap:round; stroke-linejoin:round;"
 transform="translate(0 0) scale(1 1)">
</g>
<g style="fill:#000000; fill-opacity:0.0; 
stroke:#000000; stroke-width:0.0000; stroke-opacity:1; 
stroke-linecap:round; stroke-linejoin:round;">
</g>
<g style="fill:#000000; fill-opacity:1.0000; 
stroke:#000000; stroke-width:0.0212; stroke-opacity:1; 
stroke-linecap:round; stroke-linejoin:round;">
<rect x="117.452978" y="66.852500" width="68.522022" height="49.647500" rx="0.000000" />
</g>
<g style="fill:#FFFFFF; fill-opacity:1.0000; 
stroke:#FFFFFF; stroke-width:0.0212; stroke-opacity:1; 
stroke-linecap:round; stroke-linejoin:round;">
</g>
<g style="fill:#FFFFFF; fill-opacity:1.0000; 
stroke:#FFFFFF; stroke-width:0.1290; stroke-opacity:1; 
stroke-linecap:round; stroke-linejoin:round;">
</g>
<g style="fill:#FFFFFF; fill-opacity:0.0; 
stroke:#FFFFFF; stroke-width:0.1290; stroke-opacity:1; 
stroke-linecap:round; stroke-linejoin:round;">
<text x="140.6000" y="96.2300"
textLength="1.8295" font-size="1.1467" lengthAdjust="spacingAndGlyphs"
text-anchor="middle" opacity="0">C2</text>
<g class="stroked-text"><desc>C2</desc>
<path d="M140.4567 96.1159
L140.4157 96.1569
" />
<path d="M140.4157 96.1569
L140.2929 96.1979
" />
<path d="M140.2929 96.1979
L140.2110 96.1979
" />
<path d="M140.2110 96.1979
L140.0881 96.1569
" />
<path d="M140.0881 96.1569
L140.0062 96.0750
" />
<path d="M140.0062 96.0750
L139.9652 95.9931
" />
<path d="M139.9652 95.9931
L139.9243 95.8293
" />
<path d="M139.9243 95.8293
L139.9243 95.7064
" />
<path d="M139.9243 95.7064
L139.9652 95.5426
" />
<path d="M139.9652 95.5426
L140.0062 95.4607
" />
<path d="M140.0062 95.4607
L140.0881 95.3788
" />
<path d="M140.0881 95.3788
L140.2110 95.3379
" />
<path d="M140.2110 95.3379
L140.2929 95.3379
" />
<path d="M140.2929 95.3379
L140.4157 95.3788
" />
<path d="M140.4157 95.3788
L140.4567 95.4198
" />
<path d="M140.7843 95.4198
L140.8252 95.3788
" />
<path d="M140.8252 95.3788
L140.9071 95.3379
" />
<path d="M140.9071 95.3379
L141.1119 95.3379
" />
<path d="M141.1119 95.3379
L141.1938 95.3788
" />
<path d="M141.1938 95.3788
L141.2348 95.4198
" />
<path d="M141.2348 95.4198
L141.2757 95.5017
" />
<path d="M141.2757 95.5017
L141.2757 95.5836
" />
<path d="M141.2757 95.5836
L141.2348 95.7064
" />
<path d="M141.2348 95.7064
L140.7433 96.1979
" />
<path d="M140.7433 96.1979
L141.2757 96.1979
" />
</g></g>
<g style="fill:#FFFFFF; fill-opacity:0.0; 
stroke:#FFFFFF; stroke-width:0.1500; stroke-opacity:1; 
stroke-linecap:round; stroke-linejoin:round;">
<g transform="rotate(-90.000000 173.1700 93.4200)">
<text x="173.1700" y="93.9200"
textLength="1.8893" font-size="1.3333" lengthAdjust="spacingAndGlyphs"
text-anchor="middle" opacity="0">J1</text>
</g>
<g class="stroked-text"><desc>J1</desc>
<path d="M172.6326 93.7533
L173.3469 93.7533
" />
<path d="M173.3469 93.7533
L173.4898 93.8010
" />
<path d="M173.4898 93.8010
L173.5850 93.8962
" />
<path d="M173.5850 93.8962
L173.6326 94.0390
" />
<path d="M173.6326 94.0390
L173.6326 94.1343
" />
<path d="M173.6326 92.7533
L173.6326 93.3248
" />
<path d="M173.6326 93.0390
L172.6326 93.0390
" />
<path d="M172.6326 93.0390
L172.7755 93.1343
" />
<path d="M172.7755 93.1343
L172.8707 93.2295
" />
<path d="M172.8707 93.2295
L172.9183 93.3248
" />
</g><text x="150.1900" y="92.8100"
textLength="2.6036" font-size="1.3333" lengthAdjust="spacingAndGlyphs"
text-anchor="middle" opacity="0">IC1</text>
<g class="stroked-text"><desc>IC1</desc>
<path d="M149.2138 92.7726
L149.2138 91.7726
" />
<path d="M150.2614 92.6774
L150.2138 92.7250
" />
<path d="M150.2138 92.7250
L150.0710 92.7726
" />
<path d="M150.0710 92.7726
L149.9757 92.7726
" />
<path d="M149.9757 92.7726
L149.8329 92.7250
" />
<path d="M149.8329 92.7250
L149.7376 92.6298
" />
<path d="M149.7376 92.6298
L149.6900 92.5345
" />
<path d="M149.6900 92.5345
L149.6424 92.3440
" />
<path d="M149.6424 92.3440
L149.6424 92.2012
" />
<path d="M149.6424 92.2012
L149.6900 92.0107
" />
<path d="M149.6900 92.0107
L149.7376 91.9155
" />
<path d="M149.7376 91.9155
L149.8329 91.8202
" />
<path d="M149.8329 91.8202
L149.9757 91.7726
" />
<path d="M149.9757 91.7726
L150.0710 91.7726
" />
<path d="M150.0710 91.7726
L150.2138 91.8202
" />
<path d="M150.2138 91.8202
L150.2614 91.8679
" />
<path d="M151.2138 92.7726
L150.6424 92.7726
" />
<path d="M150.9281 92.7726
L150.9281 91.7726
" />
<path d="M150.9281 91.7726
L150.8329 91.9155
" />
<path d="M150.8329 91.9155
L150.7376 92.0107
" />
<path d="M150.7376 92.0107
L150.6424 92.0583
" />
</g><text x="164.8700" y="101.4400"
textLength="2.1750" font-size="1.3333" lengthAdjust="spacingAndGlyphs"
text-anchor="middle" opacity="0">Q3</text>
<g class="stroked-text"><desc>Q3</desc>
<path d="M164.7748 101.4979
L164.6795 101.4502
" />
<path d="M164.6795 101.4502
L164.5843 101.3550
" />
<path d="M164.5843 101.3550
L164.4414 101.2121
" />
<path d="M164.4414 101.2121
L164.3462 101.1645
" />
<path d="M164.3462 101.1645
L164.2510 101.1645
" />
<path d="M164.2986 101.4026
L164.2033 101.3550
" />
<path d="M164.2033 101.3550
L164.1081 101.2598
" />
<path d="M164.1081 101.2598
L164.0605 101.0693
" />
<path d="M164.0605 101.0693
L164.0605 100.7360
" />
<path d="M164.0605 100.7360
L164.1081 100.5455
" />
<path d="M164.1081 100.5455
L164.2033 100.4502
" />
<path d="M164.2033 100.4502
L164.2986 100.4026
" />
<path d="M164.2986 100.4026
L164.4890 100.4026
" />
<path d="M164.4890 100.4026
L164.5843 100.4502
" />
<path d="M164.5843 100.4502
L164.6795 100.5455
" />
<path d="M164.6795 100.5455
L164.7271 100.7360
" />
<path d="M164.7271 100.7360
L164.7271 101.0693
" />
<path d="M164.7271 101.0693
L164.6795 101.2598
" />
<path d="M164.6795 101.2598
L164.5843 101.3550
" />
<path d="M164.5843 101.3550
L164.4890 101.4026
" />
<path d="M164.4890 101.4026
L164.2986 101.4026
" />
<path d="M165.0605 100.4026
L165.6795 100.4026
" />
<path d="M165.6795 100.4026
L165.3462 100.7836
" />
<path d="M165.3462 100.7836
L165.4890 100.7836
" />
<path d="M165.4890 100.7836
L165.5843 100.8312
" />
<path d="M165.5843 100.8312
L165.6319 100.8788
" />
<path d="M165.6319 100.8788
L165.6795 100.9740
" />
<path d="M165.6795 100.9740
L165.6795 101.2121
" />
<path d="M165.6795 101.2121
L165.6319 101.3074
" />
<path d="M165.6319 101.3074
L165.5843 101.3550
" />
<path d="M165.5843 101.3550
L165.4890 101.4026
" />
<path d="M165.4890 101.4026
L165.2033 101.4026
" />
<path d="M165.2033 101.4026
L165.1081 101.3550
" />
<path d="M165.1081 101.3550
L165.0605 101.3074
" />
</g><g transform="rotate(-90.000000 139.8000 88.2000)">
<text x="139.8000" y="88.7000"
textLength="2.1274" font-size="1.3333" lengthAdjust="spacingAndGlyphs"
text-anchor="middle" opacity="0">R4</text>
</g>
<g class="stroked-text"><desc>R4</desc>
<path d="M140.2626 88.3667
L139.7864 88.7000
" />
<path d="M140.2626 88.9381
L139.2626 88.9381
" />
<path d="M139.2626 88.9381
L139.2626 88.5571
" />
<path d="M139.2626 88.5571
L139.3102 88.4619
" />
<path d="M139.3102 88.4619
L139.3579 88.4143
" />
<path d="M139.3579 88.4143
L139.4531 88.3667
" />
<path d="M139.4531 88.3667
L139.5960 88.3667
" />
<path d="M139.5960 88.3667
L139.6912 88.4143
" />
<path d="M139.6912 88.4143
L139.7388 88.4619
" />
<path d="M139.7388 88.4619
L139.7864 88.5571
" />
<path d="M139.7864 88.5571
L139.7864 88.9381
" />
<path d="M139.5960 87.5095
L140.2626 87.5095
" />
<path d="M139.2150 87.7476
L139.9293 87.9857
" />
<path d="M139.9293 87.9857
L139.9293 87.3667
" />
</g><text x="148.2200" y="80.7000"
textLength="2.1274" font-size="1.3333" lengthAdjust="spacingAndGlyphs"
text-anchor="middle" opacity="0">R3</text>
<g class="stroked-text"><desc>R3</desc>
<path d="M148.0533 80.6626
L147.7200 80.1864
" />
<path d="M147.4819 80.6626
L147.4819 79.6626
" />
<path d="M147.4819 79.6626
L147.8629 79.6626
" />
<path d="M147.8629 79.6626
L147.9581 79.7102
" />
<path d="M147.9581 79.7102
L148.0057 79.7579
" />
<path d="M148.0057 79.7579
L148.0533 79.8531
" />
<path d="M148.0533 79.8531
L148.0533 79.9960
" />
<path d="M148.0533 79.9960
L148.0057 80.0912
" />
<path d="M148.0057 80.0912
L147.9581 80.1388
" />
<path d="M147.9581 80.1388
L147.8629 80.1864
" />
<path d="M147.8629 80.1864
L147.4819 80.1864
" />
<path d="M148.3867 79.6626
L149.0057 79.6626
" />
<path d="M149.0057 79.6626
L148.6724 80.0436
" />
<path d="M148.6724 80.0436
L148.8152 80.0436
" />
<path d="M148.8152 80.0436
L148.9105 80.0912
" />
<path d="M148.9105 80.0912
L148.9581 80.1388
" />
<path d="M148.9581 80.1388
L149.0057 80.2340
" />
<path d="M149.0057 80.2340
L149.0057 80.4721
" />
<path d="M149.0057 80.4721
L148.9581 80.5674
" />
<path d="M148.9581 80.5674
L148.9105 80.6150
" />
<path d="M148.9105 80.6150
L148.8152 80.6626
" />
<path d="M148.8152 80.6626
L148.5295 80.6626
" />
<path d="M148.5295 80.6626
L148.4343 80.6150
" />
<path d="M148.4343 80.6150
L148.3867 80.5674
" />
</g><g transform="rotate(-90.000000 136.6000 88.2000)">
<text x="136.6000" y="88.7000"
textLength="2.1274" font-size="1.3333" lengthAdjust="spacingAndGlyphs"
text-anchor="middle" opacity="0">R5</text>
</g>
<g class="stroked-text"><desc>R5</desc>
<path d="M137.0626 88.3667
L136.5864 88.7000
" />
<path d="M137.0626 88.9381
L136.0626 88.9381
" />
<path d="M136.0626 88.9381
L136.0626 88.5571
" />
<path d="M136.0626 88.5571
L136.1102 88.4619
" />
<path d="M136.1102 88.4619
L136.1579 88.4143
" />
<path d="M136.1579 88.4143
L136.2531 88.3667
" />
<path d="M136.2531 88.3667
L136.3960 88.3667
" />
<path d="M136.3960 88.3667
L136.4912 88.4143
" />
<path d="M136.4912 88.4143
L136.5388 88.4619
" />
<path d="M136.5388 88.4619
L136.5864 88.5571
" />
<path d="M136.5864 88.5571
L136.5864 88.9381
" />
<path d="M136.0626 87.4619
L136.0626 87.9381
" />
<path d="M136.0626 87.9381
L136.5388 87.9857
" />
<path d="M136.5388 87.9857
L136.4912 87.9381
" />
<path d="M136.4912 87.9381
L136.4436 87.8429
" />
<path d="M136.4436 87.8429
L136.4436 87.6048
" />
<path d="M136.4436 87.6048
L136.4912 87.5095
" />
<path d="M136.4912 87.5095
L136.5388 87.4619
" />
<path d="M136.5388 87.4619
L136.6340 87.4143
" />
<path d="M136.6340 87.4143
L136.8721 87.4143
" />
<path d="M136.8721 87.4143
L136.9674 87.4619
" />
<path d="M136.9674 87.4619
L137.0150 87.5095
" />
<path d="M137.0150 87.5095
L137.0626 87.6048
" />
<path d="M137.0626 87.6048
L137.0626 87.8429
" />
<path d="M137.0626 87.8429
L137.0150 87.9381
" />
<path d="M137.0150 87.9381
L136.9674 87.9857
" />
</g><text x="164.8000" y="85.3800"
textLength="2.1750" font-size="1.3333" lengthAdjust="spacingAndGlyphs"
text-anchor="middle" opacity="0">Q2</text>
<g class="stroked-text"><desc>Q2</desc>
<path d="M164.7048 85.4379
L164.6095 85.3902
" />
<path d="M164.6095 85.3902
L164.5143 85.2950
" />
<path d="M164.5143 85.2950
L164.3714 85.1521
" />
<path d="M164.3714 85.1521
L164.2762 85.1045
" />
<path d="M164.2762 85.1045
L164.1810 85.1045
" />
<path d="M164.2286 85.3426
L164.1333 85.2950
" />
<path d="M164.1333 85.2950
L164.0381 85.1998
" />
<path d="M164.0381 85.1998
L163.9905 85.0093
" />
<path d="M163.9905 85.0093
L163.9905 84.6760
" />
<path d="M163.9905 84.6760
L164.0381 84.4855
" />
<path d="M164.0381 84.4855
L164.1333 84.3902
" />
<path d="M164.1333 84.3902
L164.2286 84.3426
" />
<path d="M164.2286 84.3426
L164.4190 84.3426
" />
<path d="M164.4190 84.3426
L164.5143 84.3902
" />
<path d="M164.5143 84.3902
L164.6095 84.4855
" />
<path d="M164.6095 84.4855
L164.6571 84.6760
" />
<path d="M164.6571 84.6760
L164.6571 85.0093
" />
<path d="M164.6571 85.0093
L164.6095 85.1998
" />
<path d="M164.6095 85.1998
L164.5143 85.2950
" />
<path d="M164.5143 85.2950
L164.4190 85.3426
" />
<path d="M164.4190 85.3426
L164.2286 85.3426
" />
<path d="M165.0381 84.4379
L165.0857 84.3902
" />
<path d="M165.0857 84.3902
L165.1810 84.3426
" />
<path d="M165.1810 84.3426
L165.4190 84.3426
" />
<path d="M165.4190 84.3426
L165.5143 84.3902
" />
<path d="M165.5143 84.3902
L165.5619 84.4379
" />
<path d="M165.5619 84.4379
L165.6095 84.5331
" />
<path d="M165.6095 84.5331
L165.6095 84.6283
" />
<path d="M165.6095 84.6283
L165.5619 84.7712
" />
<path d="M165.5619 84.7712
L164.9905 85.3426
" />
<path d="M164.9905 85.3426
L165.6095 85.3426
" />
</g><text x="164.8000" y="90.7800"
textLength="2.1750" font-size="1.3333" lengthAdjust="spacingAndGlyphs"
text-anchor="middle" opacity="0">Q1</text>
<g class="stroked-text"><desc>Q1</desc>
<path d="M164.7048 90.8379
L164.6095 90.7902
" />
<path d="M164.6095 90.7902
L164.5143 90.6950
" />
<path d="M164.5143 90.6950
L164.3714 90.5521
" />
<path d="M164.3714 90.5521
L164.2762 90.5045
" />
<path d="M164.2762 90.5045
L164.1810 90.5045
" />
<path d="M164.2286 90.7426
L164.1333 90.6950
" />
<path d="M164.1333 90.6950
L164.0381 90.5998
" />
<path d="M164.0381 90.5998
L163.9905 90.4093
" />
<path d="M163.9905 90.4093
L163.9905 90.0760
" />
<path d="M163.9905 90.0760
L164.0381 89.8855
" />
<path d="M164.0381 89.8855
L164.1333 89.7902
" />
<path d="M164.1333 89.7902
L164.2286 89.7426
" />
<path d="M164.2286 89.7426
L164.4190 89.7426
" />
<path d="M164.4190 89.7426
L164.5143 89.7902
" />
<path d="M164.5143 89.7902
L164.6095 89.8855
" />
<path d="M164.6095 89.8855
L164.6571 90.0760
" />
<path d="M164.6571 90.0760
L164.6571 90.4093
" />
<path d="M164.6571 90.4093
L164.6095 90.5998
" />
<path d="M164.6095 90.5998
L164.5143 90.6950
" />
<path d="M164.5143 90.6950
L164.4190 90.7426
" />
<path d="M164.4190 90.7426
L164.2286 90.7426
" />
<path d="M165.6095 90.7426
L165.0381 90.7426
" />
<path d="M165.3238 90.7426
L165.3238 89.7426
" />
<path d="M165.3238 89.7426
L165.2286 89.8855
" />
<path d="M165.2286 89.8855
L165.1333 89.9807
" />
<path d="M165.1333 89.9807
L165.0381 90.0283
" />
</g><g transform="rotate(-90.000000 158.9800 87.5400)">
<text x="158.9800" y="88.0400"
textLength="2.1274" font-size="1.3333" lengthAdjust="spacingAndGlyphs"
text-anchor="middle" opacity="0">R8</text>
</g>
<g class="stroked-text"><desc>R8</desc>
<path d="M159.4426 87.7067
L158.9664 88.0400
" />
<path d="M159.4426 88.2781
L158.4426 88.2781
" />
<path d="M158.4426 88.2781
L158.4426 87.8971
" />
<path d="M158.4426 87.8971
L158.4902 87.8019
" />
<path d="M158.4902 87.8019
L158.5379 87.7543
" />
<path d="M158.5379 87.7543
L158.6331 87.7067
" />
<path d="M158.6331 87.7067
L158.7760 87.7067
" />
<path d="M158.7760 87.7067
L158.8712 87.7543
" />
<path d="M158.8712 87.7543
L158.9188 87.8019
" />
<path d="M158.9188 87.8019
L158.9664 87.8971
" />
<path d="M158.9664 87.8971
L158.9664 88.2781
" />
<path d="M158.8712 87.1352
L158.8236 87.2305
" />
<path d="M158.8236 87.2305
L158.7760 87.2781
" />
<path d="M158.7760 87.2781
L158.6807 87.3257
" />
<path d="M158.6807 87.3257
L158.6331 87.3257
" />
<path d="M158.6331 87.3257
L158.5379 87.2781
" />
<path d="M158.5379 87.2781
L158.4902 87.2305
" />
<path d="M158.4902 87.2305
L158.4426 87.1352
" />
<path d="M158.4426 87.1352
L158.4426 86.9448
" />
<path d="M158.4426 86.9448
L158.4902 86.8495
" />
<path d="M158.4902 86.8495
L158.5379 86.8019
" />
<path d="M158.5379 86.8019
L158.6331 86.7543
" />
<path d="M158.6331 86.7543
L158.6807 86.7543
" />
<path d="M158.6807 86.7543
L158.7760 86.8019
" />
<path d="M158.7760 86.8019
L158.8236 86.8495
" />
<path d="M158.8236 86.8495
L158.8712 86.9448
" />
<path d="M158.8712 86.9448
L158.8712 87.1352
" />
<path d="M158.8712 87.1352
L158.9188 87.2305
" />
<path d="M158.9188 87.2305
L158.9664 87.2781
" />
<path d="M158.9664 87.2781
L159.0617 87.3257
" />
<path d="M159.0617 87.3257
L159.2521 87.3257
" />
<path d="M159.2521 87.3257
L159.3474 87.2781
" />
<path d="M159.3474 87.2781
L159.3950 87.2305
" />
<path d="M159.3950 87.2305
L159.4426 87.1352
" />
<path d="M159.4426 87.1352
L159.4426 86.9448
" />
<path d="M159.4426 86.9448
L159.3950 86.8495
" />
<path d="M159.3950 86.8495
L159.3474 86.8019
" />
<path d="M159.3474 86.8019
L159.2521 86.7543
" />
<path d="M159.2521 86.7543
L159.0617 86.7543
" />
<path d="M159.0617 86.7543
L158.9664 86.8019
" />
<path d="M158.9664 86.8019
L158.9188 86.8495
" />
<path d="M158.9188 86.8495
L158.8712 86.9448
" />
</g><text x="138.0300" y="103.0400"
textLength="2.1274" font-size="1.3333" lengthAdjust="spacingAndGlyphs"
text-anchor="middle" opacity="0">R2</text>
<g class="stroked-text"><desc>R2</desc>
<path d="M137.8633 103.0026
L137.5300 102.5264
" />
<path d="M137.2919 103.0026
L137.2919 102.0026
" />
<path d="M137.2919 102.0026
L137.6729 102.0026
" />
<path d="M137.6729 102.0026
L137.7681 102.0502
" />
<path d="M137.7681 102.0502
L137.8157 102.0979
" />
<path d="M137.8157 102.0979
L137.8633 102.1931
" />
<path d="M137.8633 102.1931
L137.8633 102.3360
" />
<path d="M137.8633 102.3360
L137.8157 102.4312
" />
<path d="M137.8157 102.4312
L137.7681 102.4788
" />
<path d="M137.7681 102.4788
L137.6729 102.5264
" />
<path d="M137.6729 102.5264
L137.2919 102.5264
" />
<path d="M138.2443 102.0979
L138.2919 102.0502
" />
<path d="M138.2919 102.0502
L138.3871 102.0026
" />
<path d="M138.3871 102.0026
L138.6252 102.0026
" />
<path d="M138.6252 102.0026
L138.7205 102.0502
" />
<path d="M138.7205 102.0502
L138.7681 102.0979
" />
<path d="M138.7681 102.0979
L138.8157 102.1931
" />
<path d="M138.8157 102.1931
L138.8157 102.2883
" />
<path d="M138.8157 102.2883
L138.7681 102.4312
" />
<path d="M138.7681 102.4312
L138.1967 103.0026
" />
<path d="M138.1967 103.0026
L138.8157 103.0026
" />
</g><text x="138.0000" y="99.3000"
textLength="2.1274" font-size="1.3333" lengthAdjust="spacingAndGlyphs"
text-anchor="middle" opacity="0">R7</text>
<g class="stroked-text"><desc>R7</desc>
<path d="M137.8333 99.2626
L137.5000 98.7864
" />
<path d="M137.2619 99.2626
L137.2619 98.2626
" />
<path d="M137.2619 98.2626
L137.6429 98.2626
" />
<path d="M137.6429 98.2626
L137.7381 98.3102
" />
<path d="M137.7381 98.3102
L137.7857 98.3579
" />
<path d="M137.7857 98.3579
L137.8333 98.4531
" />
<path d="M137.8333 98.4531
L137.8333 98.5960
" />
<path d="M137.8333 98.5960
L137.7857 98.6912
" />
<path d="M137.7857 98.6912
L137.7381 98.7388
" />
<path d="M137.7381 98.7388
L137.6429 98.7864
" />
<path d="M137.6429 98.7864
L137.2619 98.7864
" />
<path d="M138.1667 98.2626
L138.8333 98.2626
" />
<path d="M138.8333 98.2626
L138.4048 99.2626
" />
</g><g transform="rotate(-90.000000 143.0000 88.2000)">
<text x="143.0000" y="88.7000"
textLength="2.1274" font-size="1.3333" lengthAdjust="spacingAndGlyphs"
text-anchor="middle" opacity="0">R6</text>
</g>
<g class="stroked-text"><desc>R6</desc>
<path d="M143.4626 88.3667
L142.9864 88.7000
" />
<path d="M143.4626 88.9381
L142.4626 88.9381
" />
<path d="M142.4626 88.9381
L142.4626 88.5571
" />
<path d="M142.4626 88.5571
L142.5102 88.4619
" />
<path d="M142.5102 88.4619
L142.5579 88.4143
" />
<path d="M142.5579 88.4143
L142.6531 88.3667
" />
<path d="M142.6531 88.3667
L142.7960 88.3667
" />
<path d="M142.7960 88.3667
L142.8912 88.4143
" />
<path d="M142.8912 88.4143
L142.9388 88.4619
" />
<path d="M142.9388 88.4619
L142.9864 88.5571
" />
<path d="M142.9864 88.5571
L142.9864 88.9381
" />
<path d="M142.4626 87.5095
L142.4626 87.7000
" />
<path d="M142.4626 87.7000
L142.5102 87.7952
" />
<path d="M142.5102 87.7952
L142.5579 87.8429
" />
<path d="M142.5579 87.8429
L142.7007 87.9381
" />
<path d="M142.7007 87.9381
L142.8912 87.9857
" />
<path d="M142.8912 87.9857
L143.2721 87.9857
" />
<path d="M143.2721 87.9857
L143.3674 87.9381
" />
<path d="M143.3674 87.9381
L143.4150 87.8905
" />
<path d="M143.4150 87.8905
L143.4626 87.7952
" />
<path d="M143.4626 87.7952
L143.4626 87.6048
" />
<path d="M143.4626 87.6048
L143.4150 87.5095
" />
<path d="M143.4150 87.5095
L143.3674 87.4619
" />
<path d="M143.3674 87.4619
L143.2721 87.4143
" />
<path d="M143.2721 87.4143
L143.0340 87.4143
" />
<path d="M143.0340 87.4143
L142.9388 87.4619
" />
<path d="M142.9388 87.4619
L142.8912 87.5095
" />
<path d="M142.8912 87.5095
L142.8436 87.6048
" />
<path d="M142.8436 87.6048
L142.8436 87.7952
" />
<path d="M142.8436 87.7952
L142.8912 87.8905
" />
<path d="M142.8912 87.8905
L142.9388 87.9381
" />
<path d="M142.9388 87.9381
L143.0340 87.9857
" />
</g><text x="151.0000" y="104.9000"
textLength="2.1274" font-size="1.3333" lengthAdjust="spacingAndGlyphs"
text-anchor="middle" opacity="0">R1</text>
<g class="stroked-text"><desc>R1</desc>
<path d="M150.8333 104.8626
L150.5000 104.3864
" />
<path d="M150.2619 104.8626
L150.2619 103.8626
" />
<path d="M150.2619 103.8626
L150.6429 103.8626
" />
<path d="M150.6429 103.8626
L150.7381 103.9102
" />
<path d="M150.7381 103.9102
L150.7857 103.9579
" />
<path d="M150.7857 103.9579
L150.8333 104.0531
" />
<path d="M150.8333 104.0531
L150.8333 104.1960
" />
<path d="M150.8333 104.1960
L150.7857 104.2912
" />
<path d="M150.7857 104.2912
L150.7381 104.3388
" />
<path d="M150.7381 104.3388
L150.6429 104.3864
" />
<path d="M150.6429 104.3864
L150.2619 104.3864
" />
<path d="M151.7857 104.8626
L151.2143 104.8626
" />
<path d="M151.5000 104.8626
L151.5000 103.8626
" />
<path d="M151.5000 103.8626
L151.4048 104.0055
" />
<path d="M151.4048 104.0055
L151.3095 104.1007
" />
<path d="M151.3095 104.1007
L151.2143 104.1483
" />
</g></g>
<g style="fill:#FFFFFF; fill-opacity:0.0; 
stroke:#FFFFFF; stroke-width:0.1200; stroke-opacity:1; 
stroke-linecap:round; stroke-linejoin:round;">
<text x="141.9726" y="106.8000"
textLength="1.7019" font-size="1.0667" lengthAdjust="spacingAndGlyphs"
text-anchor="middle" opacity="0">C1</text>
<g class="stroked-text"><desc>C1</desc>
<path d="M141.8393 106.6939
L141.8012 106.7320
" />
<path d="M141.8012 106.7320
L141.6869 106.7701
" />
<path d="M141.6869 106.7701
L141.6107 106.7701
" />
<path d="M141.6107 106.7701
L141.4964 106.7320
" />
<path d="M141.4964 106.7320
L141.4202 106.6558
" />
<path d="M141.4202 106.6558
L141.3821 106.5796
" />
<path d="M141.3821 106.5796
L141.3440 106.4272
" />
<path d="M141.3440 106.4272
L141.3440 106.3130
" />
<path d="M141.3440 106.3130
L141.3821 106.1606
" />
<path d="M141.3821 106.1606
L141.4202 106.0844
" />
<path d="M141.4202 106.0844
L141.4964 106.0082
" />
<path d="M141.4964 106.0082
L141.6107 105.9701
" />
<path d="M141.6107 105.9701
L141.6869 105.9701
" />
<path d="M141.6869 105.9701
L141.8012 106.0082
" />
<path d="M141.8012 106.0082
L141.8393 106.0463
" />
<path d="M142.6012 106.7701
L142.1440 106.7701
" />
<path d="M142.3726 106.7701
L142.3726 105.9701
" />
<path d="M142.3726 105.9701
L142.2964 106.0844
" />
<path d="M142.2964 106.0844
L142.2202 106.1606
" />
<path d="M142.2202 106.1606
L142.1440 106.1987
" />
</g></g>
<g style="fill:#FFFFFF; fill-opacity:0.0; 
stroke:#FFFFFF; stroke-width:0.1500; stroke-opacity:1; 
stroke-linecap:round; stroke-linejoin:round;">
<text x="164.8000" y="96.1200"
textLength="2.1750" font-size="1.3333" lengthAdjust="spacingAndGlyphs"
text-anchor="middle" opacity="0">Q4</text>
<g class="stroked-text"><desc>Q4</desc>
<path d="M164.7048 96.1779
L164.6095 96.1302
" />
<path d="M164.6095 96.1302
L164.5143 96.0350
" />
<path d="M164.5143 96.0350
L164.3714 95.8921
" />
<path d="M164.3714 95.8921
L164.2762 95.8445
" />
<path d="M164.2762 95.8445
L164.1810 95.8445
" />
<path d="M164.2286 96.0826
L164.1333 96.0350
" />
<path d="M164.1333 96.0350
L164.0381 95.9398
" />
<path d="M164.0381 95.9398
L163.9905 95.7493
" />
<path d="M163.9905 95.7493
L163.9905 95.4160
" />
<path d="M163.9905 95.4160
L164.0381 95.2255
" />
<path d="M164.0381 95.2255
L164.1333 95.1302
" />
<path d="M164.1333 95.1302
L164.2286 95.0826
" />
<path d="M164.2286 95.0826
L164.4190 95.0826
" />
<path d="M164.4190 95.0826
L164.5143 95.1302
" />
<path d="M164.5143 95.1302
L164.6095 95.2255
" />
<path d="M164.6095 95.2255
L164.6571 95.4160
" />
<path d="M164.6571 95.4160
L164.6571 95.7493
" />
<path d="M164.6571 95.7493
L164.6095 95.9398
" />
<path d="M164.6095 95.9398
L164.5143 96.0350
" />
<path d="M164.5143 96.0350
L164.4190 96.0826
" />
<path d="M164.4190 96.0826
L164.2286 96.0826
" />
<path d="M165.5143 95.4160
L165.5143 96.0826
" />
<path d="M165.2762 95.0350
L165.0381 95.7493
" />
<path d="M165.0381 95.7493
L165.6571 95.7493
" />
</g><g transform="rotate(-90.000000 158.9800 99.9500)">
<text x="158.9800" y="100.4500"
textLength="2.1274" font-size="1.3333" lengthAdjust="spacingAndGlyphs"
text-anchor="middle" opacity="0">R9</text>
</g>
<g class="stroked-text"><desc>R9</desc>
<path d="M159.4426 100.1167
L158.9664 100.4500
" />
<path d="M159.4426 100.6881
L158.4426 100.6881
" />
<path d="M158.4426 100.6881
L158.4426 100.3071
" />
<path d="M158.4426 100.3071
L158.4902 100.2119
" />
<path d="M158.4902 100.2119
L158.5379 100.1643
" />
<path d="M158.5379 100.1643
L158.6331 100.1167
" />
<path d="M158.6331 100.1167
L158.7760 100.1167
" />
<path d="M158.7760 100.1167
L158.8712 100.1643
" />
<path d="M158.8712 100.1643
L158.9188 100.2119
" />
<path d="M158.9188 100.2119
L158.9664 100.3071
" />
<path d="M158.9664 100.3071
L158.9664 100.6881
" />
<path d="M159.4426 99.6405
L159.4426 99.4500
" />
<path d="M159.4426 99.4500
L159.3950 99.3548
" />
<path d="M159.3950 99.3548
L159.3474 99.3071
" />
<path d="M159.3474 99.3071
L159.2045 99.2119
" />
<path d="M159.2045 99.2119
L159.0140 99.1643
" />
<path d="M159.0140 99.1643
L158.6331 99.1643
" />
<path d="M158.6331 99.1643
L158.5379 99.2119
" />
<path d="M158.5379 99.2119
L158.4902 99.2595
" />
<path d="M158.4902 99.2595
L158.4426 99.3548
" />
<path d="M158.4426 99.3548
L158.4426 99.5452
" />
<path d="M158.4426 99.5452
L158.4902 99.6405
" />
<path d="M158.4902 99.6405
L158.5379 99.6881
" />
<path d="M158.5379 99.6881
L158.6331 99.7357
" />
<path d="M158.6331 99.7357
L158.8712 99.7357
" />
<path d="M158.8712 99.7357
L158.9664 99.6881
" />
<path d="M158.9664 99.6881
L159.0140 99.6405
" />
<path d="M159.0140 99.6405
L159.0617 99.5452
" />
<path d="M159.0617 99.5452
L159.0617 99.3548
" />
<path d="M159.0617 99.3548
L159.0140 99.2595
" />
<path d="M159.0140 99.2595
L158.9664 99.2119
" />
<path d="M158.9664 99.2119
L158.8712 99.1643
" />
</g></g>
<g style="fill:#FFFFFF; fill-opacity:0.0; 
stroke:#FFFFFF; stroke-width:0.1000; stroke-opacity:1; 
stroke-linecap:round; stroke-linejoin:round;">
<path d="M142.7500 96.7500
L142.7500 94.8500
" />
<path d="M142.7500 94.8500
L138.4500 94.8500
" />
<path d="M138.4500 96.7500
L142.7500 96.7500
" />
<path d="M138.4500 94.8500
L138.4500 96.7500
" />
<path d="M170.0800 85.4800
L170.0800 86.1200
" />
<path d="M170.0800 85.4800
L171.9000 85.4800
" />
<path d="M170.0800 86.1200
L171.9000 86.1200
" />
<path d="M170.0800 88.0200
L170.0800 88.6600
" />
<path d="M170.0800 88.0200
L171.9000 88.0200
" />
<path d="M170.0800 88.6600
L171.9000 88.6600
" />
<path d="M170.0800 90.5600
L170.0800 91.2000
" />
<path d="M170.0800 90.5600
L171.9000 90.5600
" />
<path d="M170.0800 91.2000
L171.9000 91.2000
" />
<path d="M170.0800 93.1000
L170.0800 93.7400
" />
<path d="M170.0800 93.1000
L171.9000 93.1000
" />
<path d="M170.0800 93.7400
L171.9000 93.7400
" />
<path d="M170.0800 95.6400
L170.0800 96.2800
" />
<path d="M170.0800 95.6400
L171.9000 95.6400
" />
<path d="M170.0800 96.2800
L171.9000 96.2800
" />
<path d="M170.0800 98.1800
L170.0800 98.8200
" />
<path d="M170.0800 98.1800
L171.9000 98.1800
" />
<path d="M170.0800 98.8200
L171.9000 98.8200
" />
<path d="M170.0800 100.7200
L170.0800 101.3600
" />
<path d="M170.0800 100.7200
L171.9000 100.7200
" />
<path d="M170.0800 101.3600
L171.9000 101.3600
" />
<path d="M171.9000 85.1650
L172.5350 84.5300
" />
<path d="M171.9000 102.3100
L171.9000 85.1650
" />
<path d="M172.5350 84.5300
L174.4400 84.5300
" />
<path d="M174.4400 84.5300
L174.4400 102.3100
" />
<path d="M174.4400 85.4800
L180.4400 85.4800
" />
<path d="M174.4400 86.1200
L180.4400 86.1200
" />
<path d="M174.4400 88.0200
L180.4400 88.0200
" />
<path d="M174.4400 88.6600
L180.4400 88.6600
" />
<path d="M174.4400 90.5600
L180.4400 90.5600
" />
<path d="M174.4400 91.2000
L180.4400 91.2000
" />
<path d="M174.4400 93.1000
L180.4400 93.1000
" />
<path d="M174.4400 93.7400
L180.4400 93.7400
" />
<path d="M174.4400 95.6400
L180.4400 95.6400
" />
<path d="M174.4400 96.2800
L180.4400 96.2800
" />
<path d="M174.4400 98.1800
L180.4400 98.1800
" />
<path d="M174.4400 98.8200
L180.4400 98.8200
" />
<path d="M174.4400 100.7200
L180.4400 100.7200
" />
<path d="M174.4400 101.3600
L180.4400 101.3600
" />
<path d="M174.4400 102.3100
L171.9000 102.3100
" />
<path d="M180.4400 85.4800
L180.4400 86.1200
" />
<path d="M180.4400 88.0200
L180.4400 88.6600
" />
<path d="M180.4400 90.5600
L180.4400 91.2000
" />
<path d="M180.4400 93.1000
L180.4400 93.7400
" />
<path d="M180.4400 95.6400
L180.4400 96.2800
" />
<path d="M180.4400 98.1800
L180.4400 98.8200
" />
<path d="M180.4400 100.7200
L180.4400 101.3600
" />
<path d="M147.0150 83.1500
L148.0150 82.1500
" />
<path d="M147.0150 102.4700
L147.0150 83.1500
" />
<path d="M148.0150 82.1500
L153.3650 82.1500
" />
<path d="M153.3650 82.1500
L153.3650 102.4700
" />
<path d="M153.3650 102.4700
L147.0150 102.4700
" />
<path d="M166.6400 99.1900
L163.1400 99.1900
" />
<path d="M164.8700 103.4200 A2.4800 2.4800 0.0 0 0 166.6236 99.1864" />
<path d="M163.1164 99.1864 A2.4800 2.4800 0.0 0 0 164.8700 103.4200" />
<path d="M139.8000 83.1200
L139.8000 85.0500
" />
<path d="M141.0500 85.0500
L138.5500 85.0500
" />
<path d="M138.5500 85.0500
L138.5500 91.3500
" />
<path d="M141.0500 91.3500
L141.0500 85.0500
" />
<path d="M138.5500 91.3500
L141.0500 91.3500
" />
<path d="M139.8000 93.2800
L139.8000 91.3500
" />
<path d="M153.3000 80.2000
L151.3700 80.2000
" />
<path d="M151.3700 81.4500
L151.3700 78.9500
" />
<path d="M151.3700 78.9500
L145.0700 78.9500
" />
<path d="M145.0700 81.4500
L151.3700 81.4500
" />
<path d="M145.0700 78.9500
L145.0700 81.4500
" />
<path d="M143.1400 80.2000
L145.0700 80.2000
" />
<path d="M136.6000 93.2800
L136.6000 91.3500
" />
<path d="M135.3500 91.3500
L137.8500 91.3500
" />
<path d="M137.8500 91.3500
L137.8500 85.0500
" />
<path d="M135.3500 85.0500
L135.3500 91.3500
" />
<path d="M137.8500 85.0500
L135.3500 85.0500
" />
<path d="M136.6000 83.1200
L136.6000 85.0500
" />
<path d="M166.5700 83.1300
L163.0700 83.1300
" />
<path d="M164.8000 87.3600 A2.4800 2.4800 0.0 0 0 166.5536 83.1264" />
<path d="M163.0464 83.1264 A2.4800 2.4800 0.0 0 0 164.8000 87.3600" />
<path d="M166.5700 88.5300
L163.0700 88.5300
" />
<path d="M164.8000 92.7600 A2.4800 2.4800 0.0 0 0 166.5536 88.5264" />
<path d="M163.0464 88.5264 A2.4800 2.4800 0.0 0 0 164.8000 92.7600" />
<path d="M158.9800 92.6200
L158.9800 90.6900
" />
<path d="M157.7300 90.6900
L160.2300 90.6900
" />
<path d="M160.2300 90.6900
L160.2300 84.3900
" />
<path d="M157.7300 84.3900
L157.7300 90.6900
" />
<path d="M160.2300 84.3900
L157.7300 84.3900
" />
<path d="M158.9800 82.4600
L158.9800 84.3900
" />
<path d="M143.1100 102.5400
L141.1800 102.5400
" />
<path d="M141.1800 103.7900
L141.1800 101.2900
" />
<path d="M141.1800 101.2900
L134.8800 101.2900
" />
<path d="M134.8800 103.7900
L141.1800 103.7900
" />
<path d="M134.8800 101.2900
L134.8800 103.7900
" />
<path d="M132.9500 102.5400
L134.8800 102.5400
" />
<path d="M143.0800 98.8000
L141.1500 98.8000
" />
<path d="M141.1500 100.0500
L141.1500 97.5500
" />
<path d="M141.1500 97.5500
L134.8500 97.5500
" />
<path d="M134.8500 100.0500
L141.1500 100.0500
" />
<path d="M134.8500 97.5500
L134.8500 100.0500
" />
<path d="M132.9200 98.8000
L134.8500 98.8000
" />
<path d="M143.0000 83.1200
L143.0000 85.0500
" />
<path d="M144.2500 85.0500
L141.7500 85.0500
" />
<path d="M141.7500 85.0500
L141.7500 91.3500
" />
<path d="M144.2500 91.3500
L144.2500 85.0500
" />
<path d="M141.7500 91.3500
L144.2500 91.3500
" />
<path d="M143.0000 93.2800
L143.0000 91.3500
" />
<path d="M156.0800 104.4000
L154.1500 104.4000
" />
<path d="M154.1500 105.6500
L154.1500 103.1500
" />
<path d="M154.1500 103.1500
L147.8500 103.1500
" />
<path d="M147.8500 105.6500
L154.1500 105.6500
" />
<path d="M147.8500 103.1500
L147.8500 105.6500
" />
<path d="M145.9200 104.4000
L147.8500 104.4000
" />
<path d="M143.6752 107.2675
L143.2752 107.2675
" />
<path d="M143.4752 107.4675
L143.4752 107.0675
" />
<circle cx="141.9726" cy="106.4000" r="2.0000" /> 
<path d="M166.5700 93.8700
L163.0700 93.8700
" />
<path d="M164.8000 98.1000 A2.4800 2.4800 0.0 0 0 166.5536 93.8664" />
<path d="M163.0464 93.8664 A2.4800 2.4800 0.0 0 0 164.8000 98.1000" />
<path d="M158.9800 94.8700
L158.9800 96.8000
" />
<path d="M160.2300 96.8000
L157.7300 96.8000
" />
<path d="M157.7300 96.8000
L157.7300 103.1000
" />
<path d="M160.2300 103.1000
L160.2300 96.8000
" />
<path d="M157.7300 103.1000
L160.2300 103.1000
" />
<path d="M158.9800 105.0300
L158.9800 103.1000
" />
<g >
</g>
<g >
</g>
<g >
</g>
<g >
</g>
<g >
</g>
<g >
</g>
<g >
</g>
<g >
</g>
<g >
</g>
<g >
</g>
<g >
</g>
<g >
</g>
<g >
</g>
<g >
</g>
<g >
</g>
<g >
</g>
<g >
</g>
<g >
</g>
<g >
</g>
<g >
</g>
</g>
<g style="fill:#FFFFFF; fill-opacity:0.0; 
stroke:#FFFFFF; stroke-width:0.1000; stroke-opacity:1; 
stroke-linecap:round; stroke-linejoin:round;">
<path style="fill:#FFFFFF; fill-opacity:0.0; 
stroke:#FFFFFF; stroke-width:0.1000; stroke-opacity:1; 
stroke-linecap:round; stroke-linejoin:round;fill:none"
d="M 130.5000,76.0000
174.5000,76.0000
174.5000,111.0000
130.5000,111.0000
Z" /> 
<g >
</g>
<g >
</g>
<g >
</g>
<g >
</g>
<g >
</g>
<g >
</g>
<g >
</g>
<g >
</g>
<g >
</g>
<g >
</g>
<g >
</g>
<g >
</g>
<g >
</g>
<g >
</g>
<g >
</g>
<g >
</g>
<g >
</g>
<g >
</g>
<g >
</g>
<g >
</g>
</g> 
</svg>
