<?xml version="1.0" encoding="UTF-8" standalone="no"?>
<!-- Created with Inkscape (http://www.inkscape.org/) -->

<svg
   width="297mm"
   height="210mm"
   viewBox="0 0 297 210"
   version="1.1"
   id="svg23664"
   xml:space="preserve"
   inkscape:export-filename="imprimir-fotolito.pdf"
   inkscape:export-xdpi="96"
   inkscape:export-ydpi="96"
   inkscape:version="1.2.2 (b0a8486, 2022-12-01)"
   sodipodi:docname="imprimible-fotolito-editable.svg"
   xmlns:inkscape="http://www.inkscape.org/namespaces/inkscape"
   xmlns:sodipodi="http://sodipodi.sourceforge.net/DTD/sodipodi-0.dtd"
   xmlns="http://www.w3.org/2000/svg"
   xmlns:svg="http://www.w3.org/2000/svg"><sodipodi:namedview
     id="namedview23666"
     pagecolor="#ffffff"
     bordercolor="#cccccc"
     borderopacity="1"
     inkscape:showpageshadow="0"
     inkscape:pageopacity="1"
     inkscape:pagecheckerboard="0"
     inkscape:deskcolor="#d1d1d1"
     inkscape:document-units="mm"
     showgrid="false"
     inkscape:zoom="0.95497112"
     inkscape:cx="441.3746"
     inkscape:cy="319.38139"
     inkscape:window-width="1920"
     inkscape:window-height="1012"
     inkscape:window-x="1920"
     inkscape:window-y="0"
     inkscape:window-maximized="1"
     inkscape:current-layer="layer1" /><defs
     id="defs23661" /><g
     inkscape:label="Capa 1"
     inkscape:groupmode="layer"
     id="layer1"><g
       style="fill:#000000;fill-opacity:1;stroke:#000000;stroke-linecap:round;stroke-linejoin:round;stroke-opacity:1"
       id="g26198"
       transform="translate(-85.671347,-48.972196)" /><g
       style="fill:#000000;fill-opacity:0;stroke:#000000;stroke-width:0;stroke-linecap:round;stroke-linejoin:round;stroke-opacity:1"
       id="g26200"
       transform="translate(-85.671347,-48.972196)" /><g
       style="fill:#ffffff;fill-opacity:1;stroke:#ffffff;stroke-width:0;stroke-linecap:round;stroke-linejoin:round;stroke-opacity:1"
       id="g26786"
       transform="translate(-85.671347,-48.972196)" /><rect
       style="opacity:1;fill:none;stroke-width:0.5;stroke-linejoin:round;stop-color:#000000;stroke:none;stroke-dasharray:none;paint-order:stroke fill markers;stroke-linecap:butt"
       id="rect27157"
       width="10"
       height="10"
       x="0"
       y="0" /><g
       style="fill:#000000;fill-opacity:1;stroke:#000000;stroke-linecap:round;stroke-linejoin:round;stroke-opacity:1"
       id="g31576"
       transform="translate(-87.652981,-6.2102855)" /><g
       style="fill:#000000;fill-opacity:0;stroke:#000000;stroke-width:0;stroke-linecap:round;stroke-linejoin:round;stroke-opacity:1"
       id="g31578"
       transform="translate(-87.652981,-6.2102855)" /><g
       style="fill:#000000;fill-opacity:1;stroke:#000000;stroke-width:0.0212;stroke-linecap:round;stroke-linejoin:round;stroke-opacity:1"
       id="g32168"
       transform="translate(-87.652981,-6.2102855)" /><g
       style="fill:#000000;fill-opacity:1;stroke:#000000;stroke-width:0.0212;stroke-linecap:round;stroke-linejoin:round;stroke-opacity:1"
       id="g32174"
       transform="translate(-87.652981,-6.2102855)" /><g
       style="fill:#000000;fill-opacity:1;stroke:#000000;stroke-width:0.0212;stroke-linecap:round;stroke-linejoin:round;stroke-opacity:1"
       id="g32180"
       transform="translate(-87.652981,-6.2102855)" /><g
       style="fill:#000000;fill-opacity:1;stroke:#000000;stroke-width:0.0212;stroke-linecap:round;stroke-linejoin:round;stroke-opacity:1"
       id="g32186"
       transform="translate(-87.652981,-6.2102855)" /><g
       style="fill:#000000;fill-opacity:1;stroke:#000000;stroke-width:0.0212;stroke-linecap:round;stroke-linejoin:round;stroke-opacity:1"
       id="g32192"
       transform="translate(-87.652981,-6.2102855)" /><g
       style="fill:#000000;fill-opacity:1;stroke:#000000;stroke-width:0.0212;stroke-linecap:round;stroke-linejoin:round;stroke-opacity:1"
       id="g32198"
       transform="translate(-87.652981,-6.2102855)" /><g
       style="fill:#000000;fill-opacity:1;stroke:#000000;stroke-width:0.0212;stroke-linecap:round;stroke-linejoin:round;stroke-opacity:1"
       id="g32204"
       transform="translate(-87.652981,-6.2102855)" /><g
       style="fill:#000000;fill-opacity:1;stroke:#000000;stroke-width:0.0212;stroke-linecap:round;stroke-linejoin:round;stroke-opacity:1"
       id="g32210"
       transform="translate(-87.652981,-6.2102855)" /><g
       style="fill:#000000;fill-opacity:1;stroke:#000000;stroke-width:0.0212;stroke-linecap:round;stroke-linejoin:round;stroke-opacity:1"
       id="g32216"
       transform="translate(-87.652981,-6.2102855)" /><g
       style="fill:#000000;fill-opacity:1;stroke:#000000;stroke-width:0.0212;stroke-linecap:round;stroke-linejoin:round;stroke-opacity:1"
       id="g32222"
       transform="translate(-87.652981,-6.2102855)" /><g
       style="fill:#000000;fill-opacity:1;stroke:#000000;stroke-width:0.0212;stroke-linecap:round;stroke-linejoin:round;stroke-opacity:1"
       id="g32228"
       transform="translate(-87.652981,-6.2102855)" /><g
       style="fill:#000000;fill-opacity:1;stroke:#000000;stroke-width:0.0212;stroke-linecap:round;stroke-linejoin:round;stroke-opacity:1"
       id="g32234"
       transform="translate(-87.652981,-6.2102855)" /><g
       style="fill:#000000;fill-opacity:1;stroke:#000000;stroke-width:0.0212;stroke-linecap:round;stroke-linejoin:round;stroke-opacity:1"
       id="g32240"
       transform="translate(-87.652981,-6.2102855)" /><g
       style="fill:#000000;fill-opacity:1;stroke:#000000;stroke-width:0.0212;stroke-linecap:round;stroke-linejoin:round;stroke-opacity:1"
       id="g32246"
       transform="translate(-87.652981,-6.2102855)" /><g
       style="fill:#000000;fill-opacity:1;stroke:#000000;stroke-width:0.0212;stroke-linecap:round;stroke-linejoin:round;stroke-opacity:1"
       id="g32252"
       transform="translate(-87.652981,-6.2102855)" /><g
       style="fill:#000000;fill-opacity:1;stroke:#000000;stroke-width:0.0212;stroke-linecap:round;stroke-linejoin:round;stroke-opacity:1"
       id="g32258"
       transform="translate(-87.652981,-6.2102855)" /><g
       style="fill:#000000;fill-opacity:1;stroke:#000000;stroke-width:0.0212;stroke-linecap:round;stroke-linejoin:round;stroke-opacity:1"
       id="g32264"
       transform="translate(-87.652981,-6.2102855)" /><g
       style="fill:#000000;fill-opacity:1;stroke:#000000;stroke-width:0.0212;stroke-linecap:round;stroke-linejoin:round;stroke-opacity:1"
       id="g32270"
       transform="translate(-87.652981,-6.2102855)" /><g
       style="fill:#000000;fill-opacity:1;stroke:#000000;stroke-width:0.0212;stroke-linecap:round;stroke-linejoin:round;stroke-opacity:1"
       id="g32276"
       transform="translate(-87.652981,-6.2102855)" /><g
       style="fill:#000000;fill-opacity:1;stroke:#000000;stroke-width:0.0212;stroke-linecap:round;stroke-linejoin:round;stroke-opacity:1"
       id="g32282"
       transform="translate(-87.652981,-6.2102855)" /><g
       style="fill:#000000;fill-opacity:1;stroke:#000000;stroke-width:0.0212;stroke-linecap:round;stroke-linejoin:round;stroke-opacity:1"
       id="g32288"
       transform="translate(-87.652981,-6.2102855)" /><g
       style="fill:#000000;fill-opacity:1;stroke:#000000;stroke-width:0.0212;stroke-linecap:round;stroke-linejoin:round;stroke-opacity:1"
       id="g32294"
       transform="translate(-87.652981,-6.2102855)" /><g
       style="fill:#000000;fill-opacity:1;stroke:#000000;stroke-width:0.0212;stroke-linecap:round;stroke-linejoin:round;stroke-opacity:1"
       id="g32300"
       transform="translate(-87.652981,-6.2102855)" /><g
       style="fill:#000000;fill-opacity:1;stroke:#000000;stroke-width:0.0212;stroke-linecap:round;stroke-linejoin:round;stroke-opacity:1"
       id="g32306"
       transform="translate(-87.652981,-6.2102855)" /><g
       style="fill:#000000;fill-opacity:1;stroke:#000000;stroke-width:0.0212;stroke-linecap:round;stroke-linejoin:round;stroke-opacity:1"
       id="g32312"
       transform="translate(-87.652981,-6.2102855)" /><g
       style="fill:#000000;fill-opacity:1;stroke:#000000;stroke-width:0.0212;stroke-linecap:round;stroke-linejoin:round;stroke-opacity:1"
       id="g32318"
       transform="translate(-87.652981,-6.2102855)" /><g
       style="fill:#000000;fill-opacity:1;stroke:#000000;stroke-width:0.0212;stroke-linecap:round;stroke-linejoin:round;stroke-opacity:1"
       id="g32324"
       transform="translate(-87.652981,-6.2102855)" /><g
       style="fill:#000000;fill-opacity:1;stroke:#000000;stroke-width:0.0212;stroke-linecap:round;stroke-linejoin:round;stroke-opacity:1"
       id="g32330"
       transform="translate(-87.652981,-6.2102855)" /><g
       style="fill:#000000;fill-opacity:1;stroke:#000000;stroke-width:0.0212;stroke-linecap:round;stroke-linejoin:round;stroke-opacity:1"
       id="g32336"
       transform="translate(-87.652981,-6.2102855)" /><g
       style="fill:#000000;fill-opacity:1;stroke:#000000;stroke-width:0.0212;stroke-linecap:round;stroke-linejoin:round;stroke-opacity:1"
       id="g32342"
       transform="translate(-87.652981,-6.2102855)" /><g
       style="fill:#000000;fill-opacity:1;stroke:#000000;stroke-width:0.0212;stroke-linecap:round;stroke-linejoin:round;stroke-opacity:1"
       id="g32348"
       transform="translate(-87.652981,-6.2102855)" /><g
       style="fill:#000000;fill-opacity:1;stroke:#000000;stroke-width:0.0212;stroke-linecap:round;stroke-linejoin:round;stroke-opacity:1"
       id="g32354"
       transform="translate(-87.652981,-6.2102855)" /><g
       style="fill:#000000;fill-opacity:1;stroke:#000000;stroke-width:0.0212;stroke-linecap:round;stroke-linejoin:round;stroke-opacity:1"
       id="g32360"
       transform="translate(-87.652981,-6.2102855)" /><g
       style="fill:#000000;fill-opacity:1;stroke:#000000;stroke-width:0.0212;stroke-linecap:round;stroke-linejoin:round;stroke-opacity:1"
       id="g32366"
       transform="translate(-87.652981,-6.2102855)" /><g
       style="fill:#000000;fill-opacity:1;stroke:#000000;stroke-width:0.0212;stroke-linecap:round;stroke-linejoin:round;stroke-opacity:1"
       id="g32372"
       transform="translate(-87.652981,-6.2102855)" /><g
       style="fill:#000000;fill-opacity:1;stroke:#000000;stroke-width:0.0212;stroke-linecap:round;stroke-linejoin:round;stroke-opacity:1"
       id="g32378"
       transform="translate(-87.652981,-6.2102855)" /><g
       style="fill:#000000;fill-opacity:1;stroke:#000000;stroke-width:0.0212;stroke-linecap:round;stroke-linejoin:round;stroke-opacity:1"
       id="g32384"
       transform="translate(-87.652981,-6.2102855)" /><g
       style="fill:#000000;fill-opacity:1;stroke:#000000;stroke-width:0.0212;stroke-linecap:round;stroke-linejoin:round;stroke-opacity:1"
       id="g32390"
       transform="translate(-87.652981,-6.2102855)" /><g
       style="fill:#000000;fill-opacity:1;stroke:#000000;stroke-width:0.0212;stroke-linecap:round;stroke-linejoin:round;stroke-opacity:1"
       id="g32396"
       transform="translate(-87.652981,-6.2102855)" /><g
       style="fill:#000000;fill-opacity:1;stroke:#000000;stroke-width:0.0212;stroke-linecap:round;stroke-linejoin:round;stroke-opacity:1"
       id="g32402"
       transform="translate(-87.652981,-6.2102855)" /><g
       style="fill:#000000;fill-opacity:1;stroke:#000000;stroke-width:0.0212;stroke-linecap:round;stroke-linejoin:round;stroke-opacity:1"
       id="g32408"
       transform="translate(-87.652981,-6.2102855)" /><g
       style="fill:#000000;fill-opacity:1;stroke:#000000;stroke-width:0.0212;stroke-linecap:round;stroke-linejoin:round;stroke-opacity:1"
       id="g32414"
       transform="translate(-87.652981,-6.2102855)" /><g
       style="fill:#000000;fill-opacity:1;stroke:#000000;stroke-width:0.0212;stroke-linecap:round;stroke-linejoin:round;stroke-opacity:1"
       id="g32420"
       transform="translate(-87.652981,-6.2102855)" /><g
       style="fill:#000000;fill-opacity:1;stroke:#000000;stroke-width:0.0212;stroke-linecap:round;stroke-linejoin:round;stroke-opacity:1"
       id="g32426"
       transform="translate(-87.652981,-6.2102855)" /><g
       style="fill:#000000;fill-opacity:1;stroke:#000000;stroke-width:0.0212;stroke-linecap:round;stroke-linejoin:round;stroke-opacity:1"
       id="g32432"
       transform="translate(-87.652981,-6.2102855)" /><g
       style="fill:#000000;fill-opacity:1;stroke:#000000;stroke-width:0.0212;stroke-linecap:round;stroke-linejoin:round;stroke-opacity:1"
       id="g32438"
       transform="translate(-87.652981,-6.2102855)" /><g
       style="fill:#000000;fill-opacity:1;stroke:#000000;stroke-width:0.0212;stroke-linecap:round;stroke-linejoin:round;stroke-opacity:1"
       id="g32444"
       transform="translate(-87.652981,-6.2102855)" /><g
       style="fill:#000000;fill-opacity:1;stroke:#000000;stroke-width:0.0212;stroke-linecap:round;stroke-linejoin:round;stroke-opacity:1"
       id="g32450"
       transform="translate(-87.652981,-6.2102855)" /><g
       style="fill:#000000;fill-opacity:1;stroke:#000000;stroke-width:0.0212;stroke-linecap:round;stroke-linejoin:round;stroke-opacity:1"
       id="g32456"
       transform="translate(-87.652981,-6.2102855)" /><g
       style="fill:#000000;fill-opacity:1;stroke:#000000;stroke-width:0.0212;stroke-linecap:round;stroke-linejoin:round;stroke-opacity:1"
       id="g32462"
       transform="translate(-87.652981,-6.2102855)" /><g
       style="fill:#000000;fill-opacity:1;stroke:#000000;stroke-width:0.0212;stroke-linecap:round;stroke-linejoin:round;stroke-opacity:1"
       id="g32468"
       transform="translate(-87.652981,-6.2102855)" /><g
       style="fill:#000000;fill-opacity:1;stroke:#000000;stroke-width:0.0212;stroke-linecap:round;stroke-linejoin:round;stroke-opacity:1"
       id="g32474"
       transform="translate(-87.652981,-6.2102855)" /><g
       style="fill:#000000;fill-opacity:1;stroke:#000000;stroke-width:0.0212;stroke-linecap:round;stroke-linejoin:round;stroke-opacity:1"
       id="g32480"
       transform="translate(-87.652981,-6.2102855)" /><g
       style="fill:#000000;fill-opacity:1;stroke:#000000;stroke-width:0.0212;stroke-linecap:round;stroke-linejoin:round;stroke-opacity:1"
       id="g32486"
       transform="translate(-87.652981,-6.2102855)" /><g
       style="fill:#000000;fill-opacity:1;stroke:#000000;stroke-width:0.0212;stroke-linecap:round;stroke-linejoin:round;stroke-opacity:1"
       id="g32492"
       transform="translate(-87.652981,-6.2102855)" /><g
       style="fill:#000000;fill-opacity:1;stroke:#000000;stroke-width:0.0212;stroke-linecap:round;stroke-linejoin:round;stroke-opacity:1"
       id="g32498"
       transform="translate(-87.652981,-6.2102855)" /><g
       style="fill:#000000;fill-opacity:1;stroke:#000000;stroke-width:0.0212;stroke-linecap:round;stroke-linejoin:round;stroke-opacity:1"
       id="g32504"
       transform="translate(-87.652981,-6.2102855)" /><g
       style="fill:#000000;fill-opacity:1;stroke:#000000;stroke-width:0.0212;stroke-linecap:round;stroke-linejoin:round;stroke-opacity:1"
       id="g32510"
       transform="translate(-87.652981,-6.2102855)" /><g
       style="fill:#000000;fill-opacity:1;stroke:#000000;stroke-width:0.0212;stroke-linecap:round;stroke-linejoin:round;stroke-opacity:1"
       id="g32516"
       transform="translate(-87.652981,-6.2102855)" /><g
       style="fill:#000000;fill-opacity:1;stroke:#000000;stroke-width:0.0212;stroke-linecap:round;stroke-linejoin:round;stroke-opacity:1"
       id="g32522"
       transform="translate(-87.652981,-6.2102855)" /><g
       style="fill:#000000;fill-opacity:1;stroke:#000000;stroke-width:0.0212;stroke-linecap:round;stroke-linejoin:round;stroke-opacity:1"
       id="g32528"
       transform="translate(-87.652981,-6.2102855)" /><g
       style="fill:#ffffff;fill-opacity:1;stroke:#ffffff;stroke-width:0.0212;stroke-linecap:round;stroke-linejoin:round;stroke-opacity:1"
       id="g32530"
       transform="translate(-87.652981,-6.2102855)" /><g
       id="g36441"
       transform="translate(-32.797019,-59.739714)"><g
         style="fill:#000000;fill-opacity:1;stroke:#000000;stroke-width:0.0314722;stroke-linecap:round;stroke-linejoin:round;stroke-opacity:1"
         id="g31582"
         transform="matrix(0.64223228,0,0,0.70652063,-32.585077,22.518292)"><rect
           x="117.45298"
           y="66.852501"
           width="68.522018"
           height="49.647499"
           rx="0.000000"
           id="rect31580"
           style="stroke-width:0.0314722" /></g><g
         style="fill:#ffffff;fill-opacity:1;stroke:#ffffff;stroke-width:0.0212;stroke-linecap:round;stroke-linejoin:round;stroke-opacity:1"
         id="g32162"
         transform="translate(-87.652981,-6.2102855)"><g
           id="g31584" /><g
           style="fill:#ffffff;fill-opacity:1;stroke:#ffffff;stroke-width:0;stroke-linecap:round;stroke-linejoin:round;stroke-opacity:1"
           id="g31588"><circle
             cx="143.10001"
             cy="95.800003"
             r="0.80000001"
             id="circle31586" /></g><g
           style="fill:#ffffff;fill-opacity:1;stroke:#ffffff;stroke-width:0.0212;stroke-linecap:round;stroke-linejoin:round;stroke-opacity:1"
           id="g31590" /><g
           style="fill:#ffffff;fill-opacity:1;stroke:#ffffff;stroke-width:0;stroke-linecap:round;stroke-linejoin:round;stroke-opacity:1"
           id="g31594"><circle
             cx="138.10001"
             cy="95.800003"
             r="0.80000001"
             id="circle31592" /></g><g
           style="fill:#ffffff;fill-opacity:1;stroke:#ffffff;stroke-width:0.0212;stroke-linecap:round;stroke-linejoin:round;stroke-opacity:1"
           id="g31596" /><g
           id="g31598" /><g
           style="fill:#ffffff;fill-opacity:1;stroke:#ffffff;stroke-width:0.0212;stroke-linecap:round;stroke-linejoin:round;stroke-opacity:1"
           id="g31600" /><g
           style="fill:#ffffff;fill-opacity:1;stroke:#ffffff;stroke-width:0;stroke-linecap:round;stroke-linejoin:round;stroke-opacity:1"
           id="g31616"><path
             style="fill:#ffffff;fill-opacity:1;fill-rule:evenodd;stroke:#ffffff;stroke-width:0;stroke-linecap:round;stroke-linejoin:round;stroke-opacity:1"
             d="m 169.55,86.65 v -1.7 h 1.7 v 1.7 z"
             id="path31602" /><circle
             cx="170.39999"
             cy="88.339996"
             r="0.85000002"
             id="circle31604" /><circle
             cx="170.39999"
             cy="90.879997"
             r="0.85000002"
             id="circle31606" /><circle
             cx="170.39999"
             cy="93.419998"
             r="0.85000002"
             id="circle31608" /><circle
             cx="170.39999"
             cy="95.959999"
             r="0.85000002"
             id="circle31610" /><circle
             cx="170.39999"
             cy="98.5"
             r="0.85000002"
             id="circle31612" /><circle
             cx="170.39999"
             cy="101.04"
             r="0.85000002"
             id="circle31614" /></g><g
           id="g31618" /><g
           style="fill:#ffffff;fill-opacity:1;stroke:#ffffff;stroke-width:0;stroke-linecap:round;stroke-linejoin:round;stroke-opacity:1"
           id="g31622"><path
             style="fill:#ffffff;fill-opacity:1;fill-rule:evenodd;stroke:#ffffff;stroke-width:0;stroke-linecap:round;stroke-linejoin:round;stroke-opacity:1"
             d="m 145.18,84.22 v -1.6 h 2.4 v 1.6 z"
             id="path31620" /></g><g
           style="fill:#ffffff;fill-opacity:1;stroke:#ffffff;stroke-width:1.6;stroke-linecap:round;stroke-linejoin:round;stroke-opacity:1"
           id="g31624" /><g
           style="fill:#ffffff;fill-opacity:0;stroke:#ffffff;stroke-width:1.6;stroke-linecap:round;stroke-linejoin:round;stroke-opacity:1"
           id="g31656"><path
             d="m 145.98,85.96 h 0.8"
             id="path31626" /><path
             d="m 145.98,88.5 h 0.8"
             id="path31628" /><path
             d="m 145.98,91.04 h 0.8"
             id="path31630" /><path
             d="m 145.98,93.58 h 0.8"
             id="path31632" /><path
             d="m 145.98,96.12 h 0.8"
             id="path31634" /><path
             d="m 145.98,98.66 h 0.8"
             id="path31636" /><path
             d="m 145.98,101.2 h 0.8"
             id="path31638" /><path
             d="m 153.6,101.2 h 0.8"
             id="path31640" /><path
             d="m 153.6,98.66 h 0.8"
             id="path31642" /><path
             d="m 153.6,96.12 h 0.8"
             id="path31644" /><path
             d="m 153.6,93.58 h 0.8"
             id="path31646" /><path
             d="m 153.6,91.04 h 0.8"
             id="path31648" /><path
             d="m 153.6,88.5 h 0.8"
             id="path31650" /><path
             d="m 153.6,85.96 h 0.8"
             id="path31652" /><path
             d="m 153.6,83.42 h 0.8"
             id="path31654" /></g><g
           id="g31658" /><g
           style="fill:#ffffff;fill-opacity:0;stroke:#ffffff;stroke-width:1.6;stroke-linecap:round;stroke-linejoin:round;stroke-opacity:1"
           id="g31660" /><g
           style="fill:#ffffff;fill-opacity:0;stroke:#ffffff;stroke-width:0;stroke-linecap:round;stroke-linejoin:round;stroke-opacity:1"
           id="g31662" /><g
           style="fill:#ffffff;fill-opacity:1;stroke:#ffffff;stroke-width:0;stroke-linecap:round;stroke-linejoin:round;stroke-opacity:1"
           id="g31670"><path
             style="fill:#ffffff;fill-opacity:1;fill-rule:evenodd;stroke:#ffffff;stroke-width:0;stroke-linecap:round;stroke-linejoin:round;stroke-opacity:1"
             d="m 166.69,99.64 v 1.8 h -1.1 v -1.8 z"
             id="path31664" /><path
             style="fill:#ffffff;fill-opacity:1;fill-rule:evenodd;stroke:#ffffff;stroke-width:0;stroke-linecap:round;stroke-linejoin:round;stroke-opacity:1"
             d="m 165.42,103.235 -0.0209,0.1052 -0.0596,0.0893 -0.0893,0.0596 -0.1052,0.0209 h -0.55 l -0.1052,-0.0209 -0.0893,-0.0596 -0.0596,-0.0893 -0.0209,-0.1052 v -1.25 l 0.0209,-0.1052 0.0596,-0.0893 0.0893,-0.0596 0.1052,-0.0209 h 0.55 l 0.1052,0.0209 0.0893,0.0596 0.0596,0.0893 0.0209,0.1052 z"
             id="path31666" /><path
             style="fill:#ffffff;fill-opacity:1;fill-rule:evenodd;stroke:#ffffff;stroke-width:0;stroke-linecap:round;stroke-linejoin:round;stroke-opacity:1"
             d="m 164.15,101.165 -0.0209,0.1052 -0.0596,0.0893 -0.0893,0.0596 -0.1052,0.0209 h -0.55 l -0.1052,-0.0209 -0.0893,-0.0596 -0.0596,-0.0893 -0.0209,-0.1052 v -1.25 l 0.0209,-0.1052 0.0596,-0.0893 0.0893,-0.0596 0.1052,-0.0209 h 0.55 l 0.1052,0.0209 0.0893,0.0596 0.0596,0.0893 0.0209,0.1052 z"
             id="path31668" /></g><g
           id="g31672" /><g
           style="fill:#ffffff;fill-opacity:1;stroke:#ffffff;stroke-width:0;stroke-linecap:round;stroke-linejoin:round;stroke-opacity:1"
           id="g31676"><circle
             cx="139.8"
             cy="83.120003"
             r="0.80000001"
             id="circle31674" /></g><g
           style="fill:#ffffff;fill-opacity:1;stroke:#ffffff;stroke-width:0.0212;stroke-linecap:round;stroke-linejoin:round;stroke-opacity:1"
           id="g31678" /><g
           style="fill:#ffffff;fill-opacity:1;stroke:#ffffff;stroke-width:0;stroke-linecap:round;stroke-linejoin:round;stroke-opacity:1"
           id="g31682"><circle
             cx="139.8"
             cy="93.279999"
             r="0.80000001"
             id="circle31680" /></g><g
           id="g31684" /><g
           style="fill:#ffffff;fill-opacity:1;stroke:#ffffff;stroke-width:0;stroke-linecap:round;stroke-linejoin:round;stroke-opacity:1"
           id="g31688"><circle
             cx="153.3"
             cy="80.199997"
             r="0.80000001"
             id="circle31686" /></g><g
           style="fill:#ffffff;fill-opacity:1;stroke:#ffffff;stroke-width:0.0212;stroke-linecap:round;stroke-linejoin:round;stroke-opacity:1"
           id="g31690" /><g
           style="fill:#ffffff;fill-opacity:1;stroke:#ffffff;stroke-width:0;stroke-linecap:round;stroke-linejoin:round;stroke-opacity:1"
           id="g31694"><circle
             cx="143.14"
             cy="80.199997"
             r="0.80000001"
             id="circle31692" /></g><g
           id="g31696" /><g
           style="fill:#ffffff;fill-opacity:1;stroke:#ffffff;stroke-width:0;stroke-linecap:round;stroke-linejoin:round;stroke-opacity:1"
           id="g31700"><circle
             cx="136.60001"
             cy="93.279999"
             r="0.80000001"
             id="circle31698" /></g><g
           style="fill:#ffffff;fill-opacity:1;stroke:#ffffff;stroke-width:0.0212;stroke-linecap:round;stroke-linejoin:round;stroke-opacity:1"
           id="g31702" /><g
           style="fill:#ffffff;fill-opacity:1;stroke:#ffffff;stroke-width:0;stroke-linecap:round;stroke-linejoin:round;stroke-opacity:1"
           id="g31706"><circle
             cx="136.60001"
             cy="83.120003"
             r="0.80000001"
             id="circle31704" /></g><g
           id="g31708" /><g
           style="fill:#ffffff;fill-opacity:1;stroke:#ffffff;stroke-width:0;stroke-linecap:round;stroke-linejoin:round;stroke-opacity:1"
           id="g31716"><path
             style="fill:#ffffff;fill-opacity:1;fill-rule:evenodd;stroke:#ffffff;stroke-width:0;stroke-linecap:round;stroke-linejoin:round;stroke-opacity:1"
             d="m 166.62,83.58 v 1.8 h -1.1 v -1.8 z"
             id="path31710" /><path
             style="fill:#ffffff;fill-opacity:1;fill-rule:evenodd;stroke:#ffffff;stroke-width:0;stroke-linecap:round;stroke-linejoin:round;stroke-opacity:1"
             d="m 165.35,87.175 -0.0209,0.1052 -0.0596,0.0893 -0.0893,0.0596 -0.1052,0.0209 h -0.55 l -0.1052,-0.0209 -0.0893,-0.0596 -0.0596,-0.0893 -0.0209,-0.1052 v -1.25 l 0.0209,-0.1052 0.0596,-0.0893 0.0893,-0.0596 0.1052,-0.0209 h 0.55 l 0.1052,0.0209 0.0893,0.0596 0.0596,0.0893 0.0209,0.1052 z"
             id="path31712" /><path
             style="fill:#ffffff;fill-opacity:1;fill-rule:evenodd;stroke:#ffffff;stroke-width:0;stroke-linecap:round;stroke-linejoin:round;stroke-opacity:1"
             d="m 164.08,85.105 -0.0209,0.1052 -0.0596,0.0893 -0.0893,0.0596 -0.1052,0.0209 h -0.55 l -0.1052,-0.0209 -0.0893,-0.0596 -0.0596,-0.0893 -0.0209,-0.1052 v -1.25 l 0.0209,-0.1052 0.0596,-0.0893 0.0893,-0.0596 0.1052,-0.0209 h 0.55 l 0.1052,0.0209 0.0893,0.0596 0.0596,0.0893 0.0209,0.1052 z"
             id="path31714" /></g><g
           id="g31718" /><g
           style="fill:#ffffff;fill-opacity:1;stroke:#ffffff;stroke-width:0;stroke-linecap:round;stroke-linejoin:round;stroke-opacity:1"
           id="g31726"><path
             style="fill:#ffffff;fill-opacity:1;fill-rule:evenodd;stroke:#ffffff;stroke-width:0;stroke-linecap:round;stroke-linejoin:round;stroke-opacity:1"
             d="m 166.62,88.98 v 1.8 h -1.1 v -1.8 z"
             id="path31720" /><path
             style="fill:#ffffff;fill-opacity:1;fill-rule:evenodd;stroke:#ffffff;stroke-width:0;stroke-linecap:round;stroke-linejoin:round;stroke-opacity:1"
             d="m 165.35,92.575 -0.0209,0.1052 -0.0596,0.0893 -0.0893,0.0596 -0.1052,0.0209 h -0.55 l -0.1052,-0.0209 -0.0893,-0.0596 -0.0596,-0.0893 -0.0209,-0.1052 v -1.25 l 0.0209,-0.1052 0.0596,-0.0893 0.0893,-0.0596 0.1052,-0.0209 h 0.55 l 0.1052,0.0209 0.0893,0.0596 0.0596,0.0893 0.0209,0.1052 z"
             id="path31722" /><path
             style="fill:#ffffff;fill-opacity:1;fill-rule:evenodd;stroke:#ffffff;stroke-width:0;stroke-linecap:round;stroke-linejoin:round;stroke-opacity:1"
             d="m 164.08,90.505 -0.0209,0.1052 -0.0596,0.0893 -0.0893,0.0596 -0.1052,0.0209 h -0.55 l -0.1052,-0.0209 -0.0893,-0.0596 -0.0596,-0.0893 -0.0209,-0.1052 v -1.25 l 0.0209,-0.1052 0.0596,-0.0893 0.0893,-0.0596 0.1052,-0.0209 h 0.55 l 0.1052,0.0209 0.0893,0.0596 0.0596,0.0893 0.0209,0.1052 z"
             id="path31724" /></g><g
           id="g31728" /><g
           style="fill:#ffffff;fill-opacity:1;stroke:#ffffff;stroke-width:0;stroke-linecap:round;stroke-linejoin:round;stroke-opacity:1"
           id="g31732"><circle
             cx="158.98"
             cy="92.620003"
             r="0.80000001"
             id="circle31730" /></g><g
           style="fill:#ffffff;fill-opacity:1;stroke:#ffffff;stroke-width:0.0212;stroke-linecap:round;stroke-linejoin:round;stroke-opacity:1"
           id="g31734" /><g
           style="fill:#ffffff;fill-opacity:1;stroke:#ffffff;stroke-width:0;stroke-linecap:round;stroke-linejoin:round;stroke-opacity:1"
           id="g31738"><circle
             cx="158.98"
             cy="82.459999"
             r="0.80000001"
             id="circle31736" /></g><g
           id="g31740" /><g
           style="fill:#ffffff;fill-opacity:1;stroke:#ffffff;stroke-width:0;stroke-linecap:round;stroke-linejoin:round;stroke-opacity:1"
           id="g31744"><circle
             cx="143.11"
             cy="102.54"
             r="0.80000001"
             id="circle31742" /></g><g
           style="fill:#ffffff;fill-opacity:1;stroke:#ffffff;stroke-width:0.0212;stroke-linecap:round;stroke-linejoin:round;stroke-opacity:1"
           id="g31746" /><g
           style="fill:#ffffff;fill-opacity:1;stroke:#ffffff;stroke-width:0;stroke-linecap:round;stroke-linejoin:round;stroke-opacity:1"
           id="g31750"><circle
             cx="132.95"
             cy="102.54"
             r="0.80000001"
             id="circle31748" /></g><g
           id="g31752" /><g
           style="fill:#ffffff;fill-opacity:1;stroke:#ffffff;stroke-width:0;stroke-linecap:round;stroke-linejoin:round;stroke-opacity:1"
           id="g31756"><circle
             cx="143.08"
             cy="98.800003"
             r="0.80000001"
             id="circle31754" /></g><g
           style="fill:#ffffff;fill-opacity:1;stroke:#ffffff;stroke-width:0.0212;stroke-linecap:round;stroke-linejoin:round;stroke-opacity:1"
           id="g31758" /><g
           style="fill:#ffffff;fill-opacity:1;stroke:#ffffff;stroke-width:0;stroke-linecap:round;stroke-linejoin:round;stroke-opacity:1"
           id="g31762"><circle
             cx="132.92"
             cy="98.800003"
             r="0.80000001"
             id="circle31760" /></g><g
           id="g31764" /><g
           style="fill:#ffffff;fill-opacity:1;stroke:#ffffff;stroke-width:0;stroke-linecap:round;stroke-linejoin:round;stroke-opacity:1"
           id="g31768"><circle
             cx="143"
             cy="83.120003"
             r="0.80000001"
             id="circle31766" /></g><g
           style="fill:#ffffff;fill-opacity:1;stroke:#ffffff;stroke-width:0.0212;stroke-linecap:round;stroke-linejoin:round;stroke-opacity:1"
           id="g31770" /><g
           style="fill:#ffffff;fill-opacity:1;stroke:#ffffff;stroke-width:0;stroke-linecap:round;stroke-linejoin:round;stroke-opacity:1"
           id="g31774"><circle
             cx="143"
             cy="93.279999"
             r="0.80000001"
             id="circle31772" /></g><g
           id="g31776" /><g
           style="fill:#ffffff;fill-opacity:1;stroke:#ffffff;stroke-width:0;stroke-linecap:round;stroke-linejoin:round;stroke-opacity:1"
           id="g31780"><circle
             cx="156.08"
             cy="104.4"
             r="0.80000001"
             id="circle31778" /></g><g
           style="fill:#ffffff;fill-opacity:1;stroke:#ffffff;stroke-width:0.0212;stroke-linecap:round;stroke-linejoin:round;stroke-opacity:1"
           id="g31782" /><g
           style="fill:#ffffff;fill-opacity:1;stroke:#ffffff;stroke-width:0;stroke-linecap:round;stroke-linejoin:round;stroke-opacity:1"
           id="g31786"><circle
             cx="145.92"
             cy="104.4"
             r="0.80000001"
             id="circle31784" /></g><g
           id="g31788" /><g
           style="fill:#ffffff;fill-opacity:1;stroke:#ffffff;stroke-width:0;stroke-linecap:round;stroke-linejoin:round;stroke-opacity:1"
           id="g31794"><path
             style="fill:#ffffff;fill-opacity:1;fill-rule:evenodd;stroke:#ffffff;stroke-width:0;stroke-linecap:round;stroke-linejoin:round;stroke-opacity:1"
             d="m 143.5726,105.8 v 1.2 h -1.2 v -1.2 z"
             id="path31790" /><circle
             cx="140.9726"
             cy="106.4"
             r="0.60000002"
             id="circle31792" /></g><g
           style="fill:#ffffff;fill-opacity:1;stroke:#ffffff;stroke-width:0.0212;stroke-linecap:round;stroke-linejoin:round;stroke-opacity:1"
           id="g31796" /><g
           id="g31798" /><g
           style="fill:#ffffff;fill-opacity:1;stroke:#ffffff;stroke-width:0.0212;stroke-linecap:round;stroke-linejoin:round;stroke-opacity:1"
           id="g31800" /><g
           style="fill:#ffffff;fill-opacity:1;stroke:#ffffff;stroke-width:0;stroke-linecap:round;stroke-linejoin:round;stroke-opacity:1"
           id="g31808"><path
             style="fill:#ffffff;fill-opacity:1;fill-rule:evenodd;stroke:#ffffff;stroke-width:0;stroke-linecap:round;stroke-linejoin:round;stroke-opacity:1"
             d="m 166.62,94.32 v 1.8 h -1.1 v -1.8 z"
             id="path31802" /><path
             style="fill:#ffffff;fill-opacity:1;fill-rule:evenodd;stroke:#ffffff;stroke-width:0;stroke-linecap:round;stroke-linejoin:round;stroke-opacity:1"
             d="m 165.35,97.915 -0.0209,0.1052 -0.0596,0.0893 -0.0893,0.0596 -0.1052,0.0209 h -0.55 l -0.1052,-0.0209 -0.0893,-0.0596 -0.0596,-0.0893 -0.0209,-0.1052 v -1.25 l 0.0209,-0.1052 0.0596,-0.0893 0.0893,-0.0596 0.1052,-0.0209 h 0.55 l 0.1052,0.0209 0.0893,0.0596 0.0596,0.0893 0.0209,0.1052 z"
             id="path31804" /><path
             style="fill:#ffffff;fill-opacity:1;fill-rule:evenodd;stroke:#ffffff;stroke-width:0;stroke-linecap:round;stroke-linejoin:round;stroke-opacity:1"
             d="m 164.08,95.845 -0.0209,0.1052 -0.0596,0.0893 -0.0893,0.0596 -0.1052,0.0209 h -0.55 l -0.1052,-0.0209 -0.0893,-0.0596 -0.0596,-0.0893 -0.0209,-0.1052 v -1.25 l 0.0209,-0.1052 0.0596,-0.0893 0.0893,-0.0596 0.1052,-0.0209 h 0.55 l 0.1052,0.0209 0.0893,0.0596 0.0596,0.0893 0.0209,0.1052 z"
             id="path31806" /></g><g
           id="g31810" /><g
           style="fill:#ffffff;fill-opacity:1;stroke:#ffffff;stroke-width:0;stroke-linecap:round;stroke-linejoin:round;stroke-opacity:1"
           id="g31814"><circle
             cx="158.98"
             cy="94.870003"
             r="0.80000001"
             id="circle31812" /></g><g
           style="fill:#ffffff;fill-opacity:1;stroke:#ffffff;stroke-width:0.0212;stroke-linecap:round;stroke-linejoin:round;stroke-opacity:1"
           id="g31816" /><g
           style="fill:#ffffff;fill-opacity:1;stroke:#ffffff;stroke-width:0;stroke-linecap:round;stroke-linejoin:round;stroke-opacity:1"
           id="g31820"><circle
             cx="158.98"
             cy="105.03"
             r="0.80000001"
             id="circle31818" /></g><g
           id="g31822" /><g
           style="fill:#ffffff;fill-opacity:1;stroke:#ffffff;stroke-width:0;stroke-linecap:round;stroke-linejoin:round;stroke-opacity:1"
           id="g31826"><circle
             cx="169.60001"
             cy="77.260002"
             r="0.75"
             id="circle31824" /></g><g
           style="fill:#ffffff;fill-opacity:1;stroke:#ffffff;stroke-width:0.0212;stroke-linecap:round;stroke-linejoin:round;stroke-opacity:1"
           id="g31828" /><g
           style="fill:#ffffff;fill-opacity:1;stroke:#ffffff;stroke-width:0;stroke-linecap:round;stroke-linejoin:round;stroke-opacity:1"
           id="g31832"><circle
             cx="161.5"
             cy="86"
             r="0.75"
             id="circle31830" /></g><g
           style="fill:#ffffff;fill-opacity:1;stroke:#ffffff;stroke-width:0.0212;stroke-linecap:round;stroke-linejoin:round;stroke-opacity:1"
           id="g31834" /><g
           style="fill:#ffffff;fill-opacity:1;stroke:#ffffff;stroke-width:0;stroke-linecap:round;stroke-linejoin:round;stroke-opacity:1"
           id="g31838"><circle
             cx="161.5"
             cy="94.900002"
             r="0.75"
             id="circle31836" /></g><g
           style="fill:#ffffff;fill-opacity:1;stroke:#ffffff;stroke-width:0.0212;stroke-linecap:round;stroke-linejoin:round;stroke-opacity:1"
           id="g31840" /><g
           style="fill:#ffffff;fill-opacity:1;stroke:#ffffff;stroke-width:0;stroke-linecap:round;stroke-linejoin:round;stroke-opacity:1"
           id="g31844"><circle
             cx="164.8"
             cy="81.970001"
             r="0.75"
             id="circle31842" /></g><g
           style="fill:#ffffff;fill-opacity:1;stroke:#ffffff;stroke-width:0.0212;stroke-linecap:round;stroke-linejoin:round;stroke-opacity:1"
           id="g31846" /><g
           id="g31848" /><g
           style="fill:#ffffff;fill-opacity:1;stroke:#ffffff;stroke-width:0.0212;stroke-linecap:round;stroke-linejoin:round;stroke-opacity:1"
           id="g31850" /><g
           style="fill:#ffffff;fill-opacity:1;stroke:#ffffff;stroke-width:0.5;stroke-linecap:round;stroke-linejoin:round;stroke-opacity:1"
           id="g31852" /><g
           style="fill:#ffffff;fill-opacity:0;stroke:#ffffff;stroke-width:0.5;stroke-linecap:round;stroke-linejoin:round;stroke-opacity:1"
           id="g31924"><path
             d="m 154,88.5 h -1.39"
             id="path31854" /><path
             d="m 153.5,104.4 h 2.58"
             id="path31856" /><path
             d="m 154,88.5 h -1.5"
             id="path31858" /><path
             d="m 151.8,89.2 v 1.04"
             id="path31860" /><path
             d="m 166.75,80.2 3.65,3.65"
             id="path31862" /><path
             d="m 151.8,81.07 0.87,-0.87"
             id="path31864" /><path
             d="M 142.9726,106.4 H 150"
             id="path31866" /><path
             d="M 151.8,87.69 V 81.07"
             id="path31868" /><path
             d="m 152,104.4 h 1.5"
             id="path31870" /><path
             d="m 151.8,90.24 0.8,0.8"
             id="path31872" /><path
             d="m 150,106.4 2,-2"
             id="path31874" /><path
             d="m 152.67,80.2 h 0.63"
             id="path31876" /><path
             d="m 153.5,104.4 h -1.43"
             id="path31878" /><path
             d="M 150.6,102.93 V 92.79"
             id="path31880" /><path
             d="M 152.61,88.5 151.8,87.69"
             id="path31882" /><path
             d="m 152.07,104.4 -1.47,-1.47"
             id="path31884" /><path
             d="M 152.6,91.04 H 154"
             id="path31886" /><path
             d="m 150.6,92.79 1.75,-1.75"
             id="path31888" /><path
             d="m 153.3,80.2 h 13.45"
             id="path31890" /><path
             d="M 170.4,83.85 V 85.8"
             id="path31892" /><path
             d="m 152.5,88.5 -0.7,0.7"
             id="path31894" /><path
             d="M 152.35,91.04 H 154"
             id="path31896" /><path
             d="m 149.5,92.2 -1.16,-1.16"
             id="path31898" /><path
             d="M 149.5,102.7 V 92.2"
             id="path31900" /><path
             d="m 143.11,102.54 h 0.41"
             id="path31902" /><path
             d="m 147.8,104.4 1.7,-1.7"
             id="path31904" /><path
             d="m 148.34,91.04 h -1.96"
             id="path31906" /><path
             d="m 145.92,104.4 h 1.88"
             id="path31908" /><path
             d="m 140.9726,106.4 v -3.1726"
             id="path31910" /><path
             d="m 143.52,102.54 1.86,1.86"
             id="path31912" /><path
             d="m 141.66,102.54 h 1.45"
             id="path31914" /><path
             d="m 145.38,104.4 h 0.54"
             id="path31916" /><path
             d="M 140.9726,103.2274 141.66,102.54"
             id="path31918" /><path
             d="m 145.32,93.58 h 1.06"
             id="path31920" /><path
             d="m 143.1,95.8 2.22,-2.22"
             id="path31922" /></g><g
           style="fill:#ffffff;fill-opacity:0;stroke:#ffffff;stroke-width:0.25;stroke-linecap:round;stroke-linejoin:round;stroke-opacity:1"
           id="g31996"><path
             d="m 158.98,82.46 0.15,-0.15"
             id="path31926" /><path
             d="M 139.74,100.24 138.1,98.6"
             id="path31928" /><path
             d="m 132.95,102.54 -0.03,-0.03"
             id="path31930" /><path
             d="M 138.1,107.44 V 95.8"
             id="path31932" /><path
             d="m 144.16,100.24 h -4.42"
             id="path31934" /><path
             d="m 163.53,95.62 h -0.41"
             id="path31936" /><path
             d="M 159.12,108.85 H 139.51"
             id="path31938" /><path
             d="m 164.4,81.97 -0.87,0.87"
             id="path31940" /><path
             d="m 137,77 -4.08,4.08"
             id="path31942" /><path
             d="M 132.92,98.8 V 97.18"
             id="path31944" /><path
             d="m 138.1,95.8 v -2"
             id="path31946" /><path
             d="M 171.96,101.04 173.5,99.5"
             id="path31948" /><path
             d="m 158.98,106.61 1.19,1.19"
             id="path31950" /><path
             d="M 173.5,81.16 169.34,77"
             id="path31952" /><path
             d="m 170.4,101.04 v 3.06"
             id="path31954" /><path
             d="M 159.13,82.31 H 163"
             id="path31956" /><path
             d="m 163,82.31 0.53,0.53"
             id="path31958" /><path
             d="M 169.34,77 H 137"
             id="path31960" /><path
             d="M 132.92,97.18 134.3,95.8"
             id="path31962" /><path
             d="M 132.92,81.08 V 98.8"
             id="path31964" /><path
             d="M 132.92,102.51 V 98.8"
             id="path31966" /><path
             d="m 146.38,98.66 h -0.64"
             id="path31968" /><path
             d="m 166.7,107.8 h -6.53"
             id="path31970" /><path
             d="m 170.4,104.1 -3.7,3.7"
             id="path31972" /><path
             d="m 134.3,95.8 h 3.8"
             id="path31974" /><path
             d="m 139.51,108.85 -1.41,-1.41"
             id="path31976" /><path
             d="m 138.62,93.28 h 1.18"
             id="path31978" /><path
             d="M 173.5,99.5 V 81.16"
             id="path31980" /><path
             d="m 138.1,93.8 0.52,-0.52"
             id="path31982" /><path
             d="M 138.1,98.6 V 95.8"
             id="path31984" /><path
             d="m 163.53,82.84 v 2.04"
             id="path31986" /><path
             d="m 160.17,107.8 -1.05,1.05"
             id="path31988" /><path
             d="m 164.8,81.97 h -0.4"
             id="path31990" /><path
             d="m 158.98,105.03 v 1.58"
             id="path31992" /><path
             d="m 170.4,101.04 h 1.56"
             id="path31994" /></g><g
           style="fill:#ffffff;fill-opacity:0;stroke:#ffffff;stroke-width:0.5;stroke-linecap:round;stroke-linejoin:round;stroke-opacity:1"
           id="g32146"><path
             d="m 144.21,85.96 h 2.17"
             id="path31998" /><path
             d="m 143,83.12 v 1.63"
             id="path32000" /><path
             d="m 136.6,89.64 3.68,-3.68"
             id="path32002" /><path
             d="m 140.28,85.96 h 6.1"
             id="path32004" /><path
             d="M 136.6,93.28 V 89.64"
             id="path32006" /><path
             d="m 143,84.75 1.21,1.21"
             id="path32008" /><path
             d="m 143,90.38 1.88,-1.88"
             id="path32010" /><path
             d="m 144.88,88.5 h 1.5"
             id="path32012" /><path
             d="m 143,93.28 v -2.9"
             id="path32014" /><path
             d="m 145.76,96.12 -2.68,2.68"
             id="path32016" /><path
             d="m 146.38,96.12 h -0.62"
             id="path32018" /><path
             d="m 167.5,103.59 -1,1"
             id="path32020" /><path
             d="m 151.74,97.28 v 5.06"
             id="path32022" /><path
             d="m 154,96.12 h -1.1"
             id="path32024" /><path
             d="m 154.46,93.58 3.3,-3.3"
             id="path32026" /><path
             d="m 146.38,101.2 -0.05,-0.05"
             id="path32028" /><path
             d="m 157.51,101.98 1.04,-1.04"
             id="path32030" /><path
             d="m 166.5,104.59 h -2.055"
             id="path32032" /><path
             d="m 170.4,98.5 h -2.07"
             id="path32034" /><path
             d="m 140.7,101.15 -1.49,1.49"
             id="path32036" /><path
             d="m 152.9,96.12 -1.16,1.16"
             id="path32038" /><path
             d="m 158.55,100.94 h 5.05"
             id="path32040" /><path
             d="M 146.33,101.15 H 140.7"
             id="path32042" /><path
             d="m 167.5,99.33 v 4.26"
             id="path32044" /><path
             d="M 164.445,104.59 163.6,103.745"
             id="path32046" /><path
             d="m 154.9,103.15 0.69,-0.69"
             id="path32048" /><path
             d="M 154,96.12 V 93.58"
             id="path32050" /><path
             d="m 157.51,106.2 v -4.22"
             id="path32052" /><path
             d="m 139.21,106.6736 1.3464,1.3464"
             id="path32054" /><path
             d="M 140.5564,108.02 H 155.69"
             id="path32056" /><path
             d="m 139.21,102.64 v 4.0336"
             id="path32058" /><path
             d="m 152.55,103.15 h 2.35"
             id="path32060" /><path
             d="m 151.74,102.34 0.81,0.81"
             id="path32062" /><path
             d="m 155.59,102.46 h 1.44"
             id="path32064" /><path
             d="m 168.33,98.5 -0.83,0.83"
             id="path32066" /><path
             d="m 154,93.58 h 0.46"
             id="path32068" /><path
             d="m 157.03,102.46 0.48,-0.48"
             id="path32070" /><path
             d="M 163.6,103.745 V 100.94"
             id="path32072" /><path
             d="m 157.76,90.28 h 5.77"
             id="path32074" /><path
             d="m 155.69,108.02 1.82,-1.82"
             id="path32076" /><path
             d="m 155.98,101.2 3,-3"
             id="path32078" /><path
             d="M 158.98,98.2 V 94.87"
             id="path32080" /><path
             d="M 164.87,96.96 164.8,96.89"
             id="path32082" /><path
             d="m 158.98,94.87 v 1.35"
             id="path32084" /><path
             d="M 164.87,102.21 V 96.96"
             id="path32086" /><path
             d="m 158.98,96.22 0.67,0.67"
             id="path32088" /><path
             d="m 159.65,96.89 h 5.15"
             id="path32090" /><path
             d="m 154,101.2 h 1.98"
             id="path32092" /><path
             d="m 158.98,92.62 h 4.75"
             id="path32094" /><path
             d="m 157.32,92.62 h 1.66"
             id="path32096" /><path
             d="m 164.8,86.15 v 5.4"
             id="path32098" /><path
             d="m 155.62,98.66 0.97,-0.97"
             id="path32100" /><path
             d="m 154,98.66 h 1.62"
             id="path32102" /><path
             d="m 156.59,93.35 0.73,-0.73"
             id="path32104" /><path
             d="m 163.73,92.62 1.07,-1.07"
             id="path32106" /><path
             d="M 156.59,97.69 V 93.35"
             id="path32108" /><path
             d="m 139.8,81.58 1.38,-1.38"
             id="path32110" /><path
             d="m 141.18,80.2 h 1.96"
             id="path32112" /><path
             d="m 139.8,83.12 h -3.2"
             id="path32114" /><path
             d="M 139.8,83.12 V 81.58"
             id="path32116" /><path
             d="m 166.99,78.95 5.21,5.21"
             id="path32118" /><path
             d="m 146.38,80.79 1.84,-1.84"
             id="path32120" /><path
             d="M 146.38,83.42 V 80.79"
             id="path32122" /><path
             d="M 171.61,93.42 H 170.4"
             id="path32124" /><path
             d="m 172.2,92.83 -0.59,0.59"
             id="path32126" /><path
             d="m 148.22,78.95 h 18.77"
             id="path32128" /><path
             d="m 172.2,84.16 v 8.67"
             id="path32130" /><path
             d="m 168.01,88.34 h 2.39"
             id="path32132" /><path
             d="m 166.07,84.88 v 5.4"
             id="path32134" /><path
             d="m 166.07,90.28 1.94,-1.94"
             id="path32136" /><path
             d="m 166.07,95.62 0.07,0.07"
             id="path32138" /><path
             d="m 170.06,95.62 0.34,0.34"
             id="path32140" /><path
             d="m 166.07,95.62 h 3.99"
             id="path32142" /><path
             d="m 166.14,95.69 v 5.25"
             id="path32144" /></g><g
           id="g32148" /><g
           style="fill:#ffffff;fill-opacity:0;stroke:#ffffff;stroke-width:0.5;stroke-linecap:round;stroke-linejoin:round;stroke-opacity:1"
           id="g32160"><g
             id="g32150" /><g
             style="fill:#ffffff;fill-opacity:1;stroke:#ffffff;stroke-width:0;stroke-linecap:round;stroke-linejoin:round;stroke-opacity:1"
             id="g32158"><path
               style="fill:#ffffff;fill-opacity:1;fill-rule:evenodd;stroke:#ffffff;stroke-width:0;stroke-linecap:round;stroke-linejoin:round;stroke-opacity:1"
               d="m 169.2696,89.1045 0.0443,0.0389 0.0476,0.068 0.1671,0.1671 0.1856,0.1299 0.0388,0.0443 0.014,0.0573 -0.014,0.0573 -0.0388,0.0443 -0.1786,0.125 -0.007,0.0049 -0.1671,0.1671 -0.1355,0.1936 -0.0999,0.2141 -0.0612,0.2283 -0.0206,0.2354 0.0206,0.2354 0.0249,0.0927 0.0363,0.1356 0.0999,0.2141 0.1355,0.1936 0.1671,0.1671 0.1856,0.1299 0.0388,0.0443 0.014,0.0573 -0.014,0.0573 -0.0388,0.0443 -0.1786,0.125 -0.007,0.0049 -0.1671,0.1671 -0.1355,0.1936 -0.0999,0.2141 -0.0612,0.2283 -0.0206,0.2354 0.0206,0.2354 0.0394,0.1469 0.0218,0.0814 0.0999,0.2141 0.1355,0.1936 0.1671,0.1671 0.1856,0.1299 0.0388,0.0443 0.014,0.0573 -0.014,0.0573 -0.0388,0.0443 -0.0793,0.0555 -0.0338,0.0167 -0.0373,0.0057 h -2.3193 l -0.062,-0.0166 -0.0454,-0.0454 -0.0166,-0.062 v -0.4734 0 l -0.006,-0.0596 -0.0503,-0.1348 -0.0863,-0.1152 -0.1152,-0.0863 -0.1348,-0.0503 -0.0596,-0.0064 v 0 h -1.1958 l -0.0596,0.0064 -0.1348,0.0503 -0.1152,0.0863 -0.0863,0.1152 -0.0503,0.1348 v 0 l -0.006,0.0596 v 0.8024 0.691 l -0.0166,0.062 -0.0454,0.0454 -0.062,0.0166 h -0.1915 l -0.062,-0.0166 -0.0454,-0.0454 -0.0166,-0.062 V 95.47 h -2.1 v 0.4185 l 0.0127,0.1131 -0.0115,0.0677 -0.0457,0.0512 -0.066,0.019 h -2.3573 l -0.0474,-0.0094 -0.0403,-0.0269 -0.0815,-0.0816 -0.0321,-0.0556 v -0.0642 l 0.0321,-0.0556 0.137,-0.1371 0.1306,-0.1864 0.0961,-0.2062 0.0589,-0.2198 0.0111,-0.1267 h 2.2033 0.8 v -1.15 h 0.5 v 1.15 h 0.8 v -0.4185 l -0.0147,-0.13 -0.0576,-0.1649 -0.0929,-0.1479 -0.1235,-0.1235 -0.1479,-0.0929 -0.1649,-0.0577 -0.13,-0.0146 h -0.0685 -0.5 -0.0685 l -0.13,0.0146 -0.1649,0.0577 -0.1479,0.0929 -0.1235,0.1235 -0.0929,0.1479 -0.0577,0.1649 -0.0146,0.13 V 94.97 h -2.2033 l 0.009,-0.1 -0.0199,-0.2267 -0.0589,-0.2198 -0.0961,-0.2062 -0.003,-0.0048 -0.1272,-0.1816 -0.1609,-0.1609 v 0 l -0.0334,-0.0234 -0.0388,-0.0443 -0.014,-0.0573 0.014,-0.0573 0.0388,-0.0443 0.0334,-0.0234 0.1609,-0.1609 0.0251,-0.0357 0.0443,-0.0389 0.0573,-0.014 h 3.5596 l 0.018,0.0013 0.004,6e-4 0.0197,0.0029 0.0494,-0.0043 0.0108,-5e-4 h 0.005 v 0 l 0.0309,-0.0036 0.003,-4e-4 0.0748,-0.0065 v 0 l 0.001,-1e-4 0.019,-0.0042 0.001,-5e-4 h 1e-4 l 0.0705,-0.0256 0.003,-0.0012 0.0712,-0.0236 v 0 l 10e-4,-4e-4 0.0176,-0.0085 0.001,-7e-4 v 0 l 0.007,-0.0042 0.053,-0.0195 0.0561,0.006 0.1666,0.0583 0.1301,0.0147 v 0 h 0.6372 v 0 l 0.1151,-0.013 0.015,-0.0017 0.1649,-0.0577 0.148,-0.093 0.1235,-0.1235 0.093,-0.148 0.0577,-0.1649 0.0137,-0.1212 10e-4,-0.0089 v -1.2141 l 0.0166,-0.062 0.0454,-0.0454 0.062,-0.0166 h 0.6934 v 0 l 0.0596,-0.0064 0.1348,-0.0503 0.1152,-0.0863 0.0863,-0.1152 0.0503,-0.1348 0.006,-0.0596 v -0.4857 l 0.009,-0.0474 0.0269,-0.0403 1.1277,-1.1277 0.0403,-0.0269 0.0474,-0.0094 h 0.8401 z"
               id="path32152" /><path
               style="fill:#ffffff;fill-opacity:1;fill-rule:evenodd;stroke:#ffffff;stroke-width:0;stroke-linecap:round;stroke-linejoin:round;stroke-opacity:1"
               d="m 158.7061,80.9645 0.0443,0.0389 0.0214,0.0549 -0.006,0.0586 -0.0328,0.049 -0.0517,0.0284 -0.1472,0.0394 -0.2062,0.0962 -0.1863,0.1304 -0.1609,0.1609 -0.1304,0.1863 -0.0962,0.2062 -0.0526,0.1963 v 0 h 2.5578 v 0 l -0.0526,-0.1963 -0.0962,-0.2062 -0.1304,-0.1863 -0.1609,-0.1609 -0.1863,-0.1304 -0.2062,-0.0962 -0.1472,-0.0394 -0.0517,-0.0284 -0.0328,-0.049 -0.006,-0.0586 0.0214,-0.0549 0.0443,-0.0389 0.0573,-0.014 h 7.0766 l 0.0474,0.0094 0.0403,0.0269 3.1377,3.1377 0.0269,0.0403 0.009,0.0474 v 0.1133 l -0.0166,0.062 -0.0454,0.0454 -0.062,0.0166 h -0.0234 l -0.0298,0.0032 -0.0298,0.0032 -0.1348,0.0503 -0.1152,0.0863 -0.0863,0.1152 -0.0503,0.1348 -0.006,0.0596 v 1.7958 l 0.006,0.0596 0.0503,0.1348 0.0863,0.1152 0.1152,0.0863 0.1122,0.0419 0.0192,0.0071 0.0504,0.035 0.0274,0.0548 -0.002,0.0613 -0.0313,0.0528 -0.1219,0.1219 -0.0476,0.068 -0.0443,0.0389 -0.0573,0.014 h -1.1386 l -0.018,-0.0013 -0.0138,-0.002 -0.01,-0.0015 v 0 l -0.0494,0.0043 -0.0108,5e-4 h -0.006 l -0.0308,0.0036 -0.004,4e-4 -0.076,0.0066 -0.019,0.0042 -0.0716,0.0261 -0.003,0.0012 -0.0724,0.024 -0.0176,0.0085 -0.0637,0.0419 -0.003,0.0019 -0.0649,0.04 -0.0151,0.0124 -0.0524,0.0554 -0.002,0.0026 -0.4381,0.4382 -0.0494,0.0302 -0.0577,0.0045 -0.0535,-0.0221 -0.0376,-0.044 -0.0135,-0.0563 v -2.2516 l 0.0131,-0.0555 0.0366,-0.0438 0.1073,-0.0804 0.0863,-0.1152 0.0503,-0.1348 0.006,-0.0596 v -1.8958 l -0.006,-0.0596 -0.0503,-0.1348 -0.0863,-0.1152 -0.1152,-0.0863 -0.1348,-0.0503 -0.0596,-0.0064 v 0 h -1.1958 l -0.0596,0.0064 -0.1348,0.0503 -0.1152,0.0863 -0.0863,0.1152 -0.0503,0.1348 v 0 l -0.006,0.0596 v 0.7954 0.698 l -0.0166,0.062 -0.0454,0.0454 -0.062,0.0166 h -0.1915 l -0.062,-0.0166 -0.0454,-0.0454 -0.0166,-0.062 V 84.73 h -0.8 v 0.955 l -0.007,0.041 -0.009,0.0253 -0.0147,0.1301 v 1.3372 l 0.0147,0.1301 0.0577,0.1649 0.093,0.148 v 0 0 l 0.0983,0.0983 0.0269,0.0402 0.009,0.0475 v 0.5158 l -0.019,0.066 -0.0512,0.0457 -0.0677,0.0115 -0.063,-0.0071 v 0 h -0.6372 v 0 l -0.1301,0.0147 -0.1649,0.0577 -0.148,0.093 -0.1235,0.1235 -0.093,0.148 -0.0577,0.1649 -0.0147,0.1301 v 0.1941 l -0.0166,0.062 -0.0454,0.0454 -0.062,0.0166 h -4.5318 l -0.018,-0.0013 -0.0138,-0.002 -0.01,-0.0015 v 0 l -0.0494,0.0043 -0.0108,5e-4 h -0.006 l -0.0308,0.0036 -0.004,4e-4 -0.0759,0.0066 -0.0191,0.0042 -0.0717,0.0261 -0.003,0.0012 -0.0723,0.024 -0.0176,0.0085 -0.0637,0.0419 -0.003,0.0019 -0.0649,0.04 -0.0151,0.0124 -0.0524,0.0554 -0.002,0.0026 -1.308,1.3081 -0.0609,0.0334 -0.0692,-0.0046 -0.056,-0.041 -0.0252,-0.0647 -0.0154,-0.1762 v 0 l -0.0589,-0.2198 -0.0961,-0.2062 -0.0316,-0.0451 -0.099,-0.1413 -0.1609,-0.1609 -0.1864,-0.1306 -0.058,-0.027 -0.0522,-0.0458 -0.0194,-0.0666 0.0194,-0.0666 0.0522,-0.0458 0.058,-0.027 0.1864,-0.1306 0.1609,-0.1609 0.1306,-0.1864 0.0961,-0.2062 0.0589,-0.2198 0.0199,-0.2267 -0.002,-0.0205 -0.0181,-0.2062 v 0 l -0.0589,-0.2198 -0.0961,-0.2062 -0.0158,-0.0225 -0.1148,-0.1639 -0.1609,-0.1609 -0.1864,-0.1306 -0.058,-0.027 -0.0522,-0.0458 -0.0194,-0.0666 0.0194,-0.0666 0.0522,-0.0458 0.058,-0.027 0.1864,-0.1306 0.1609,-0.1609 0.1306,-0.1864 0.0961,-0.2062 0.0589,-0.2198 0.0199,-0.2267 -0.0199,-0.2267 -0.0589,-0.2198 -0.0961,-0.2062 -0.0158,-0.0225 -0.1148,-0.1639 -0.1609,-0.1609 -0.1864,-0.1306 -0.058,-0.027 -0.0522,-0.0458 -0.008,-0.0266 h 7.5452 v 0.4185 l 0.0146,0.13 0.0577,0.1649 0.0929,0.1479 0.1235,0.1235 0.1479,0.0929 0.1649,0.0576 0.13,0.0147 h 0.0685 v -1.15 h -0.8 -7.5452 l -0.0117,-0.04 0.0194,-0.0666 0.0522,-0.0458 0.058,-0.027 0.1864,-0.1306 0.1609,-0.1609 0.0204,-0.0291 h 7.0596 0.8 v -1.15 h 0.5 v 1.15 h 0.8 v -0.4185 l -0.0147,-0.13 -0.0576,-0.1649 -0.0929,-0.1479 -0.1235,-0.1235 -0.1479,-0.0929 -0.1649,-0.0577 -0.13,-0.0146 h -0.0685 -0.5 -0.0685 l -0.13,0.0146 -0.1649,0.0577 -0.1479,0.0929 -0.1235,0.1235 -0.0929,0.1479 -0.0577,0.1649 -0.0146,0.13 V 84.23 h -7.0596 l 0.1102,-0.1573 0.0961,-0.2062 0.0589,-0.2198 0.0199,-0.2267 -0.0199,-0.2267 -0.0589,-0.2198 -0.0961,-0.2062 -0.0401,-0.0573 h 2.2106 l 0.0526,0.1963 0.0962,0.2062 0.1304,0.1863 0.1609,0.1609 0.1863,0.1304 0.2062,0.0962 0.1963,0.0526 v 0 -1.0289 h 0.5 v 1.0289 l 0.1963,-0.0526 0.2062,-0.0962 0.1863,-0.1304 0.1609,-0.1609 0.1304,-0.1863 0.0962,-0.2062 0.0526,-0.1963 h -1.0289 -0.5 -1.0289 -2.2106 L 155.4,82.5809 155.2391,82.42 l -0.1864,-0.1306 -0.2062,-0.0961 -0.2198,-0.0589 -0.1699,-0.0149 v 0 h -0.9136 v 0 l -0.1699,0.0149 -0.2198,0.0589 -0.2062,0.0961 -0.1953,0.1368 -7e-4,-9e-4 -0.0385,0.0236 -0.0577,0.0045 -0.0535,-0.0221 -0.0376,-0.0441 -0.0135,-0.0562 v -0.8509 l 0.0153,-0.0597 0.0421,-0.0449 0.0585,-0.0191 0.0605,0.0113 0.1266,0.059 0.2198,0.0589 0.2267,0.0199 0.2267,-0.0199 0.2198,-0.0589 0.2062,-0.0961 0.1864,-0.1306 0.1609,-0.1609 0.0245,-0.0348 6e-4,-9e-4 0.0443,-0.0389 0.0573,-0.014 h 4.2221 z"
               id="path32154" /><path
               style="fill:#ffffff;fill-opacity:1;fill-rule:evenodd;stroke:#ffffff;stroke-width:0;stroke-linecap:round;stroke-linejoin:round;stroke-opacity:1"
               d="m 174.4375,76.0171 0.0454,0.0454 0.0166,0.062 v 34.751 l -0.0166,0.062 -0.0454,0.0454 -0.062,0.0166 h -43.751 l -0.062,-0.0166 -0.0454,-0.0454 -0.0166,-0.062 V 102.79 h 1.1706 l 0.0526,0.1963 0.0962,0.2062 0.1304,0.1863 0.1609,0.1609 0.1863,0.1304 0.2062,0.0962 0.1963,0.0526 v 0 -1.0289 h 0.5 v 1.0289 l 0.1963,-0.0526 0.2062,-0.0962 0.1863,-0.1304 0.1609,-0.1609 0.1304,-0.1863 0.0962,-0.2062 0.0526,-0.1963 h -1.0289 -0.5 -1.0289 -1.1706 v -0.5 h 1.1706 1.0289 v -1.0289 h 0.5 v 1.0289 h 1.0289 v 0 l -0.0526,-0.1963 -0.0962,-0.2062 -0.1304,-0.1863 -0.1609,-0.1609 -0.1863,-0.1304 -0.2062,-0.0962 -0.1963,-0.0526 h -0.5 v 0 l -0.1963,0.0526 -0.2062,0.0962 -0.1863,0.1304 -0.1609,0.1609 -0.1304,0.1863 -0.0962,0.2062 -0.0526,0.1963 v 0 h -1.1706 v -3.24 h 1.1406 l 0.0526,0.1963 0.0962,0.2062 0.1304,0.1863 0.1609,0.1609 0.1863,0.1304 0.2062,0.0962 0.1963,0.0526 v 0 -1.0289 h 0.5 v 1.0289 l 0.1963,-0.0526 0.2062,-0.0962 0.1863,-0.1304 0.1609,-0.1609 0.1304,-0.1863 0.0962,-0.2062 0.0526,-0.1963 h -1.0289 -0.5 -1.0289 -1.1406 v -0.5 h 1.1406 1.0289 v -1.0289 h 0.5 V 98.55 h 1.0289 v 0 l -0.0526,-0.1963 -0.0962,-0.2062 -0.1304,-0.1863 -0.1609,-0.1609 -0.1863,-0.1304 -0.2062,-0.0962 -0.1963,-0.0526 h -0.5 v 0 l -0.1963,0.0526 -0.2062,0.0962 -0.1863,0.1304 -0.1609,0.1609 -0.1304,0.1863 -0.0962,0.2062 -0.0526,0.1963 v 0 h -1.1406 v -1.671 h 6.874 l 0.073,0.0511 0.2062,0.0962 0.2197,0.0588 0.2266,0.0199 0.2266,-0.0199 0.2197,-0.0588 0.2062,-0.0962 0.073,-0.0511 -0.7255,-0.7254 v 0 l -0.7255,0.7254 v 0 h -6.874 V 95.8 h 6.2945 l 0.0199,0.2266 0.0588,0.2197 0.0962,0.2062 0.0511,0.073 v 0 L 137.7464,95.8 h 0.7072 l 0.7254,0.7255 0.0511,-0.073 0.0962,-0.2062 0.0588,-0.2197 0.0199,-0.2266 -0.0199,-0.2266 -0.0588,-0.2197 -0.0962,-0.2062 -0.0511,-0.073 -0.7254,0.7255 h -0.7072 v 0 l -0.7254,-0.7255 -0.0511,0.073 -0.0962,0.2062 -0.0588,0.2197 -0.0199,0.2266 h -6.2945 v -1.079 h 6.874 l 0.7255,0.7254 v 0 l 0.7255,-0.7254 v 0 l -0.073,-0.0511 -0.2062,-0.0962 -0.2197,-0.0588 -0.2266,-0.0199 -0.2266,0.0199 -0.2197,0.0588 -0.2062,0.0962 -0.073,0.0511 v 0 h -6.874 V 93.28 h 4.794 l 0.0199,0.2267 0.0589,0.2198 0.0961,0.2062 0.1306,0.1864 0.1609,0.1609 0.1864,0.1306 v 0 0 l 0.2062,0.0961 0.2198,0.0589 0.2267,0.0199 0.2267,-0.0199 0.2198,-0.0589 0.2062,-0.0961 0.1864,-0.1306 0.1609,-0.1609 0.1306,-0.1864 0.0961,-0.2062 0.0527,-0.1965 h 0.6417 l 0.0526,0.1963 0.0962,0.2062 0.1304,0.1863 0.1609,0.1609 0.1863,0.1304 0.2062,0.0962 0.1963,0.0526 v 0 -1.0289 h 0.5 v 1.0289 l 0.1963,-0.0526 0.2062,-0.0962 0.1863,-0.1304 0.1609,-0.1609 0.1304,-0.1863 0.0962,-0.2062 0.0526,-0.1963 h -1.0289 -0.5 -1.0289 -0.6417 l 0.006,-0.0233 0.0199,-0.2267 -8e-4,-0.0085 -0.0191,-0.2182 v 0 l -0.006,-0.0233 h 0.6417 1.0289 v -1.0289 h 0.5 V 93.03 h 1.0289 v 0 l -0.0526,-0.1963 -0.0962,-0.2062 -0.1304,-0.1863 -0.1609,-0.1609 -0.1863,-0.1304 -0.2062,-0.0962 -0.1963,-0.0526 h -0.5 v 0 l -0.1963,0.0526 -0.2062,0.0962 -0.1863,0.1304 -0.1609,0.1609 -0.1304,0.1863 -0.0962,0.2062 -0.0526,0.1963 v 0 h -0.6417 l -0.0527,-0.1965 -0.0961,-0.2062 -0.006,-0.0087 -0.1245,-0.1777 -0.1609,-0.1609 -0.0357,-0.0251 -0.0389,-0.0443 -0.014,-0.0573 v -2.1511 l 0.009,-0.0474 0.0269,-0.0403 3.1677,-3.1677 0.0403,-0.0269 0.0474,-0.0094 h 3.4785 l 0.0222,0.0023 0.001,-1e-4 v 0 l 0.075,-0.0021 0.004,-1e-4 h 0.6306 l 0.0573,0.014 0.0443,0.0389 0.0251,0.0357 0.1609,0.1609 0.0678,0.0475 0.1186,0.0831 0.058,0.027 0.0521,0.0458 0.0195,0.0666 -0.0194,0.0666 -0.0522,0.0458 -0.058,0.027 -0.1864,0.1306 -0.1609,0.1609 -0.0243,0.0347 -0.0396,0.0362 -0.0512,0.0162 -0.0123,10e-4 -0.0108,5e-4 h -0.006 l -0.0308,0.0036 -0.004,4e-4 -0.076,0.0066 -0.019,0.0042 -0.0716,0.0261 -0.004,0.0012 -0.0723,0.024 -0.0176,0.0085 -0.0637,0.0419 -0.003,0.0019 -0.0649,0.04 -0.0151,0.0124 -0.0524,0.0554 -0.002,0.0026 -1.8259,1.826 -0.0137,0.0118 -0.0192,0.0143 -0.0319,0.0379 -0.007,0.008 -0.004,0.0039 -0.0192,0.0243 -0.002,0.0028 -0.049,0.0584 -0.0105,0.0165 -0.0322,0.0691 -0.002,0.0032 -0.0342,0.0682 -0.006,0.0184 -0.0154,0.0747 -8e-4,0.0035 -0.0176,0.0742 -0.002,0.0194 0.002,0.0762 10e-5,0.0036 v 1.7606 l -0.014,0.0573 -0.0389,0.0443 -0.0357,0.0251 -0.1609,0.1609 -0.1306,0.1864 -0.0961,0.2062 -0.0589,0.2198 -0.0199,0.2267 0.0199,0.2267 0.0589,0.2198 0.0961,0.2062 0.1306,0.1864 0.1609,0.1609 0.1864,0.1306 v 0 0 l 0.0873,0.0407 0.0491,0.0412 0.022,0.0603 -0.0112,0.0633 -0.0412,0.0491 -0.1924,0.1348 -0.1609,0.1609 -0.1306,0.1864 -0.0961,0.2062 -0.0589,0.2198 -0.0199,0.2267 0.0199,0.2267 0.0589,0.2198 0.0961,0.2062 0.1306,0.1864 0.1609,0.1609 0.1864,0.1306 v 0 0 l 0.2062,0.0961 0.2198,0.0589 0.2267,0.0199 0.2267,-0.0199 0.108,-0.0289 h 0.0642 l 0.0556,0.0321 0.0321,0.0556 v 0.0642 l -0.0321,0.0555 -0.2092,0.2092 -0.0452,0.0288 -0.0532,0.007 -0.1669,-0.0146 -0.2267,0.0199 -0.2198,0.0589 -0.2062,0.0961 -0.1864,0.1306 -0.1609,0.1609 -0.1306,0.1864 -0.0961,0.2062 -0.0589,0.2198 -0.0199,0.2267 0.0199,0.2267 0.0589,0.2198 0.0961,0.2062 0.1306,0.1864 0.1609,0.1609 0.1864,0.1306 v 0 0 l 0.2062,0.0961 0.2198,0.0589 0.2267,0.0199 0.2267,-0.0199 0.2198,-0.0589 0.2062,-0.0961 0.1864,-0.1306 0.1609,-0.1609 0.1306,-0.1864 0.0961,-0.2062 0.0589,-0.2198 0.0199,-0.2267 -0.0146,-0.1669 0.007,-0.0532 0.0288,-0.0452 0.1207,-0.1208 0.0609,-0.0334 0.0692,0.0046 0.034,0.0249 h 3.3674 v 0 l -0.0526,-0.1963 -0.0962,-0.2062 -0.1304,-0.1863 -0.1609,-0.1609 -0.1863,-0.1304 -0.0584,-0.0272 -0.0521,-0.0458 -0.0195,-0.0666 0.0195,-0.0667 0.0521,-0.0457 0.0586,-0.0273 0.1864,-0.1306 0.1609,-0.1609 0.1306,-0.1864 0.0961,-0.2062 0.0589,-0.2198 0.0199,-0.2267 -0.005,-0.0507 -0.0154,-0.176 v 0 l -0.0589,-0.2198 -0.0961,-0.2062 -0.0796,-0.1136 -0.051,-0.0728 -0.1609,-0.1609 -0.1864,-0.1306 -0.058,-0.027 -0.0522,-0.0458 -0.0194,-0.0666 0.0194,-0.0666 0.0522,-0.0458 0.0357,-0.0166 0.0223,-0.0104 0.1864,-0.1306 0.1609,-0.1609 0.1306,-0.1864 0.0961,-0.2062 0.0589,-0.2198 0.0199,-0.2267 -0.0199,-0.2267 -0.0589,-0.2198 -0.0961,-0.2062 -0.01,-0.0137 -0.121,-0.1727 -0.1609,-0.1609 -0.1864,-0.1306 -0.058,-0.027 -0.0522,-0.0458 -0.0194,-0.0666 0.0194,-0.0666 0.0522,-0.0458 0.058,-0.027 0.1864,-0.1306 0.1609,-0.1609 0.0128,-0.0182 0.0123,-0.0175 0.0443,-0.0389 0.0573,-0.014 h 0.0711 l 0.0474,0.0094 0.0403,0.0269 0.6477,0.6477 0.0269,0.0403 0.009,0.0474 v 9.7756 l -0.009,0.0474 -0.0269,0.0403 -1.1877,1.1877 -0.0403,0.0269 -0.0474,0.009 h -0.3911 l -0.0573,-0.014 -0.0443,-0.0389 -0.0251,-0.0357 -0.1609,-0.1609 -0.1864,-0.1306 -0.2062,-0.0961 -0.2198,-0.0589 -0.2267,-0.0199 -0.2267,0.0199 -0.2198,0.0589 -0.0979,0.0456 -0.0488,0.0116 -0.0493,-0.009 -0.0419,-0.0275 -0.8041,-0.8041 -0.0247,-0.0353 -0.008,-0.031 h -1e-4 l -0.0617,-0.2303 -0.008,-0.0166 -0.0114,-0.0605 0.0192,-0.0585 0.0449,-0.0421 0.0597,-0.0153 h 0.3769 l 0.0573,0.014 0.0443,0.0389 0.0601,0.0857 0.1609,0.1609 0.1864,0.1306 v 0 0 l 0.2062,0.0961 0.2198,0.0589 0.085,0.007 0.0849,0.007 v 0 h 0.9136 v 0 l 0.0679,-0.006 0.102,-0.009 0.2198,-0.0589 0.2062,-0.0961 0.1864,-0.1306 0.1609,-0.1609 0.1306,-0.1864 0.0961,-0.2062 0.0589,-0.2198 0.0199,-0.2267 -0.0199,-0.2267 -0.0589,-0.2198 -0.0961,-0.2062 -0.0206,-0.0294 -0.11,-0.157 -0.1609,-0.1609 -0.1864,-0.1306 -0.058,-0.027 -6e-4,-3e-4 -0.0521,-0.0458 -0.0195,-0.0666 0.0195,-0.0666 0.0521,-0.0458 0.0584,-0.0272 0.1863,-0.1304 0.1609,-0.1609 0.1304,-0.1863 0.0962,-0.2062 0.0526,-0.1963 h -3.3578 l 0.0526,0.1963 0.0962,0.2062 0.1304,0.1863 0.1609,0.1609 0.1863,0.1304 0.0584,0.0272 0.0521,0.0458 0.0195,0.0666 -0.0195,0.0666 -0.0521,0.0458 -0.0586,0.0273 -0.1864,0.1306 -0.1633,0.1632 -0.0402,0.0269 -0.0474,0.009 h -4.1263 l -0.018,-10e-4 -0.0138,-0.002 -0.01,-10e-4 v 0 l -0.0494,0.004 -0.0108,5e-4 h -0.006 l -0.0308,0.004 -0.004,4e-4 -0.0759,0.007 -0.0191,0.004 -0.0717,0.0261 -0.003,0.001 -0.0723,0.024 -0.0176,0.009 -0.0637,0.0419 -0.003,0.002 -0.0649,0.04 -0.0151,0.0124 -0.0524,0.0554 -0.002,0.003 -1.4359,1.436 -0.0137,0.0118 -0.0192,0.0143 -0.0319,0.0379 -0.007,0.008 -0.004,0.004 -0.0192,0.0243 -0.002,0.003 -0.049,0.0584 -0.0105,0.0165 -0.0322,0.0691 -0.002,0.003 -0.0342,0.0682 -0.006,0.0184 -0.0154,0.0747 -8e-4,0.003 -0.0176,0.0742 -0.002,0.0194 0.002,0.0762 1e-4,0.004 v 3.9572 l -0.001,0.018 -0.004,0.0237 0.004,0.0494 5e-4,0.0108 v 0.005 l 0.004,0.0308 4e-4,0.004 0.007,0.0759 0.004,0.0191 5e-4,10e-4 v 0 l 0.0256,0.0704 0.001,0.003 0.024,0.0724 0.008,0.0176 0.0419,0.0637 0.002,0.003 0.0394,0.0639 7e-4,0.001 0.0123,0.0151 9e-4,9e-4 v 0 l 0.0537,0.0507 8e-4,8e-4 0.003,0.002 1.2924,1.2923 0.0117,0.0137 0.0144,0.0192 0.038,0.0319 0.008,0.007 0.004,0.004 0.0243,0.0192 0.003,0.002 0.0584,0.049 0.0165,0.0105 0.001,5e-4 v 0 l 0.068,0.0317 0.003,0.001 0.0663,0.0333 0.002,0.001 0.0184,0.006 0.001,3e-4 v 0 l 0.0736,0.0151 0.003,8e-4 0.0731,0.0173 v 0 l 10e-4,3e-4 0.0194,0.002 0.001,-1e-4 v 0 l 0.075,-0.002 0.004,-1e-4 h 15.0572 l 0.018,0.001 0.004,6e-4 0.0197,0.003 0.0494,-0.004 0.0108,-5e-4 h 0.006 v 0 l 0.0308,-0.004 0.004,-4e-4 0.0748,-0.006 v 0 l 10e-4,-1e-4 0.019,-0.004 0.001,-5e-4 h 1e-4 l 0.0705,-0.0256 0.003,-0.001 0.0712,-0.0236 v 0 l 0.001,-4e-4 0.0176,-0.009 0.001,-7e-4 v 0 l 0.0627,-0.0412 0.003,-0.002 0.0639,-0.0394 v 0 l 10e-4,-7e-4 0.0151,-0.0122 9e-4,-0.001 v 0 l 0.0515,-0.0545 0.002,-0.003 1.766,-1.766 0.0137,-0.0117 0.0192,-0.0144 0.0319,-0.038 0.007,-0.008 0.004,-0.004 0.0192,-0.0243 0.002,-0.003 0.0176,-0.0211 0.0306,-0.0364 v 0 l 8e-4,-0.001 0.0105,-0.0164 5e-4,-10e-4 v 0 l 0.0317,-0.0681 0.002,-0.003 0.0336,-0.0671 v 0 l 6e-4,-0.001 0.006,-0.0184 3e-4,-0.001 v 0 l 0.0151,-0.0735 8e-4,-0.004 0.0161,-0.0679 0.0239,-0.049 0.0427,-0.034 0.0531,-0.0124 0.0534,0.0116 0.1013,0.0473 0.1963,0.0526 v 0 -1.0289 h 0.5 v 1.0289 l 0.1963,-0.0526 0.2062,-0.0962 0.1863,-0.1304 0.1609,-0.1609 0.1304,-0.1863 0.0962,-0.2062 0.0526,-0.1963 h -1.0289 -0.5 v -1.5289 h 0.5 v 1.0289 h 1.0289 v 0 l -0.0526,-0.1963 -0.0962,-0.2062 -0.1304,-0.1863 -0.1609,-0.1609 -0.1863,-0.1304 -0.2062,-0.0962 -0.1963,-0.0526 h -0.5 v 0 l -0.1963,0.0526 -0.0968,0.0452 -0.0605,0.0113 -0.0585,-0.0191 -0.0421,-0.045 -0.0153,-0.0596 v -1.3943 l 0.009,-0.0474 0.0269,-0.0403 0.5277,-0.5277 0.0403,-0.0269 0.0474,-0.009 h 3.7902 l 0.0475,0.009 0.0402,0.0269 0.0231,0.0231 0.0269,0.0402 0.009,0.0475 v 1.8437 l -0.001,0.018 -0.004,0.0237 0.004,0.0494 5e-4,0.0108 v 0.006 l 0.004,0.0308 4e-4,0.004 0.007,0.0759 0.004,0.0191 5e-4,0.001 v 0 l 0.0256,0.0704 0.001,0.003 0.024,0.0724 0.008,0.0176 0.0419,0.0637 0.002,0.003 0.0394,0.0639 7e-4,0.001 0.0123,0.0151 0.0554,0.0524 0.003,0.002 0.791,0.7909 0.0117,0.0137 0.0144,0.0192 v 0 0 l 0.0379,0.0319 0.008,0.007 0.004,0.004 0.0243,0.0192 0.003,0.002 0.0585,0.049 0.0164,0.0105 10e-4,5e-4 v 0 l 0.068,0.0317 0.003,0.002 0.066,0.0332 0.002,10e-4 0.0184,0.006 10e-4,3e-4 v 0 l 0.0736,0.0151 0.003,8e-4 0.0731,0.0173 v 0 l 10e-4,3e-4 0.0194,0.002 0.001,-1e-4 v 0 l 0.075,-0.002 0.004,-1e-4 h 1.9786 l 0.018,0.001 0.004,6e-4 0.0197,0.003 0.0494,-0.004 0.0108,-5e-4 h 0.006 v 0 l 0.0308,-0.004 0.004,-4e-4 0.0748,-0.007 v 0 l 0.001,-10e-5 0.019,-0.004 0.001,-5e-4 v 0 l 0.0705,-0.0256 0.003,-0.001 0.0712,-0.0236 v 0 l 0.001,-4e-4 0.0176,-0.008 0.001,-7e-4 v 0 l 0.0627,-0.0412 0.003,-0.002 0.0639,-0.0394 v 0 l 0.001,-7e-4 0.0151,-0.0122 9e-4,-0.001 v 0 l 0.0515,-0.0546 0.002,-0.002 0.946,-0.946 0.0137,-0.0117 0.0192,-0.0144 0.0319,-0.038 0.007,-0.008 0.004,-0.004 0.0192,-0.0243 0.002,-0.003 0.0271,-0.0324 0.0211,-0.0251 v 0 l 8e-4,-0.001 0.0105,-0.0164 5e-4,-0.001 v 0 l 0.0317,-0.0681 0.002,-0.003 0.0336,-0.0671 v 0 l 6e-4,-0.001 0.006,-0.0184 7e-4,-0.003 0.008,-0.0385 0.007,-0.0329 8e-4,-0.004 0.007,-0.0277 0.0107,-0.0453 3e-4,-0.001 0.002,-0.0194 -1e-4,-10e-4 v 0 l -0.002,-0.075 -1e-4,-0.004 V 101.29 h 0.8189 l 0.0572,0.2135 0.0998,0.2141 0.1355,0.1935 0.167,0.167 0.1935,0.1355 0.2141,0.0998 0.2135,0.0572 v 0 -1.0806 h 0.5 v 1.0806 l 0.2135,-0.0572 0.2141,-0.0998 0.1935,-0.1355 0.167,-0.167 0.1355,-0.1935 0.0998,-0.2141 0.0572,-0.2135 h -1.0806 -0.5 -1.0806 -0.8189 v -1.5978 l 0.009,-0.0474 0.0269,-0.0403 0.3177,-0.3177 0.0403,-0.0269 0.0474,-0.0094 h 0.5201 l 0.0573,0.014 0.0443,0.0389 0.0476,0.068 0.1671,0.1671 0.186,0.1302 0.0389,0.0443 0.014,0.0573 -0.014,0.0573 -0.0389,0.0443 -0.1857,0.13 -0.167,0.167 -0.1355,0.1935 -0.0998,0.2141 -0.0572,0.2135 v 0 h 2.6612 v 0 l -0.0572,-0.2135 -0.0998,-0.2141 -0.1355,-0.1935 -0.167,-0.167 -0.1857,-0.13 -0.0389,-0.0443 -0.014,-0.0573 0.014,-0.0573 0.0389,-0.0443 0.186,-0.1302 0.1671,-0.1671 0.1355,-0.1936 0.0999,-0.2141 0.0612,-0.2283 0.0206,-0.2354 -0.0206,-0.2354 -0.0612,-0.2283 -0.0999,-0.2141 -0.1355,-0.1936 -0.1671,-0.1671 -0.1856,-0.1299 -0.0388,-0.0443 -0.014,-0.0573 0.014,-0.0573 0.0388,-0.0443 0.1856,-0.1299 0.1671,-0.1671 0.1355,-0.1936 0.0999,-0.2141 0.0612,-0.2283 0.0206,-0.2354 -0.0206,-0.2354 -0.0612,-0.2283 -0.0999,-0.2141 -0.1355,-0.1936 -0.1671,-0.1671 -0.1856,-0.1299 -0.0388,-0.0443 -0.014,-0.0573 0.014,-0.0573 0.0388,-0.0443 0.1856,-0.1299 0.1671,-0.1671 0.0438,-0.0625 0.0525,-0.0428 0.0392,-0.0051 -4e-4,-0.0044 0.0144,-0.0013 v 0 l 0.0494,-0.0043 0.0108,-5e-4 h 0.005 v 0 l 0.0309,-0.0036 0.003,-4e-4 0.0748,-0.0065 v 0 l 10e-4,-1e-4 0.019,-0.0042 0.001,-5e-4 h 1e-4 l 0.0705,-0.0256 0.003,-0.0012 0.0712,-0.0236 v 0 l 0.001,-4e-4 0.0176,-0.0085 0.001,-7e-4 v 0 l 0.0627,-0.0412 0.003,-0.0019 0.0639,-0.0394 v 0 l 0.001,-6e-4 0.0151,-0.0123 9e-4,-10e-4 v 0 l 0.0515,-0.0545 0.002,-0.0026 0.536,-0.536 0.0137,-0.0117 0.0192,-0.0144 0.0319,-0.0379 0.007,-0.008 0.004,-0.0039 0.0192,-0.0244 0.002,-0.0027 0.0211,-0.0252 0.0271,-0.0323 v 0 l 8e-4,-10e-4 0.0105,-0.0164 5e-4,-0.0011 v 0 l 0.0317,-0.0681 0.002,-0.0031 0.0336,-0.0671 v 0 l 6e-4,-0.0011 0.006,-0.0184 3e-4,-0.0012 v 0 l 0.0151,-0.0736 8e-4,-0.0033 0.0173,-0.0731 v 0 l 3e-4,-0.0012 0.002,-0.0194 -1e-4,-0.0012 v 0 l -0.002,-0.075 -1e-4,-0.0036 v -8.5936 l 0.001,-0.018 5e-4,-0.0036 0.003,-0.0201 -0.004,-0.0494 -5e-4,-0.0108 v -0.0055 l -0.004,-0.0308 -4e-4,-0.0036 -0.007,-0.076 -0.004,-0.019 -0.0261,-0.0716 -0.001,-0.0034 -0.0137,-0.0414 -0.01,-0.0298 v 0 l -4e-4,-0.0012 -0.008,-0.0176 -7e-4,-0.001 v 0 l -0.0412,-0.0627 -0.002,-0.003 -0.0401,-0.0649 -0.0123,-0.0151 -0.0554,-0.0524 -0.003,-0.0025 -5.156,-5.1559 -0.0118,-0.0137 -0.0143,-0.0192 -0.0379,-0.0319 -0.008,-0.0073 -0.004,-0.0039 v 0 0 l -0.0244,-0.0192 -0.003,-0.0023 -0.0583,-0.049 -0.0165,-0.0105 -0.0691,-0.0322 -0.003,-0.0016 -0.0681,-0.0342 -0.0184,-0.0064 -0.0747,-0.0154 -0.004,-8e-4 -0.0742,-0.0176 -0.0194,-0.002 -0.0762,0.0022 -0.004,1e-4 H 148.275 l -0.018,-0.0013 -0.0138,-0.002 -0.01,-0.0015 v 0 l -0.0494,0.0043 -0.0108,5e-4 h -0.006 l -0.0308,0.0036 -0.004,4e-4 -0.0759,0.0066 -0.0191,0.0042 -0.0717,0.0261 -0.003,0.0012 -0.0723,0.024 -0.0176,0.0085 -0.0637,0.0419 -0.003,0.0019 -0.0649,0.04 -0.0151,0.0124 -0.0524,0.0554 -0.002,0.0026 -1.7859,1.786 -0.0137,0.0118 -0.0192,0.0143 -0.0319,0.0379 -0.007,0.008 -0.004,0.0039 -0.0192,0.0243 -0.002,0.0028 -0.049,0.0584 -0.0105,0.0165 -0.0322,0.0691 -0.002,0.0032 -0.0342,0.0682 -0.006,0.0184 -0.0154,0.0747 -8e-4,0.0035 -0.0176,0.0742 -0.002,0.0194 0.002,0.0762 1e-4,0.0036 v 1.1928 l -0.0166,0.062 -0.0454,0.0454 -0.062,0.0166 h -0.3734 l -0.0298,0.0032 -0.0298,0.0032 -0.1348,0.0503 -0.1152,0.0863 -0.0863,0.1152 -0.0503,0.1348 -0.006,0.0596 v 1.6958 l 0.006,0.0596 0.007,0.0192 0.0431,0.1156 0.0863,0.1152 0.1152,0.0863 0.1348,0.0503 0.0351,0.0038 0.0559,0.0203 0.04,0.0441 0.0148,0.0577 -0.0137,0.0579 -0.0391,0.0448 -0.0246,0.0173 -0.1609,0.1609 -0.0251,0.0357 -0.0443,0.0389 -0.0573,0.014 h -0.2811 l -0.0474,-0.0094 -0.0403,-0.0269 -0.6977,-0.6977 -0.0269,-0.0403 -0.009,-0.0474 v -0.1411 l 0.014,-0.0573 0.0389,-0.0443 0.0357,-0.0251 0.1609,-0.1609 0.0251,-0.0357 0.1055,-0.1507 0.0961,-0.2062 0.0589,-0.2198 0.0199,-0.2267 -0.0199,-0.2267 -0.0589,-0.2198 -0.0961,-0.2062 -0.0294,-0.042 L 144,82.2809 143.8391,82.12 143.6527,81.9894 143.4465,81.8933 143.2267,81.8344 143,81.8145 l -0.2267,0.0199 -0.2198,0.0589 -0.2062,0.0961 -0.1864,0.1306 -0.1609,0.1609 -0.1306,0.1864 -0.0961,0.2062 -0.0589,0.2198 -0.0199,0.2267 0.0199,0.2267 0.0589,0.2198 0.0961,0.2062 0.1306,0.1864 0.1609,0.1609 0.0357,0.0251 0.0389,0.0443 0.014,0.0573 v 0.4396 l -0.001,0.018 -0.004,0.0237 0.004,0.0494 5e-4,0.0108 v 0.0055 l 0.004,0.0308 4e-4,0.0036 0.006,0.074 2e-4,0.0019 0.004,0.0191 5e-4,0.0012 v 0 l 0.0256,0.0704 10e-4,0.0034 0.016,0.0484 0.005,0.0579 -0.0221,0.0537 -0.044,0.0378 -0.0565,0.0136 h -1.8462 l -0.018,-0.0013 -0.0138,-0.002 -0.01,-0.0015 v 0 l -0.0494,0.0043 -0.0108,5e-4 h -0.006 l -0.0308,0.0036 -0.004,4e-4 -0.0759,0.0066 -0.0191,0.0042 -0.0717,0.0261 -0.003,0.0012 -0.0723,0.024 -0.0176,0.0085 -0.0637,0.0419 -0.003,0.0019 -0.0649,0.04 -0.0151,0.0124 -0.0524,0.0554 -0.002,0.0026 -3.6259,3.626 -0.0137,0.0118 -0.0192,0.0143 -0.0319,0.0379 -0.007,0.008 -0.004,0.0039 -0.0192,0.0243 -0.002,0.0028 -0.049,0.0584 -0.0105,0.0165 -0.0322,0.0691 -0.002,0.0032 -0.0342,0.0682 -0.006,0.0184 -0.0154,0.0747 -8e-4,0.0035 -0.0176,0.0742 -0.002,0.0194 0.002,0.0762 10e-5,0.0036 v 2.5006 l -0.014,0.0573 -0.0389,0.0443 -0.0357,0.0251 -0.1609,0.1609 -0.1306,0.1864 -0.0961,0.2062 -0.0589,0.2198 -0.0199,0.2267 h -4.794 V 83.12 h 4.794 l 0.0199,0.2267 0.0589,0.2198 0.0961,0.2062 0.1306,0.1864 0.1609,0.1609 0.1864,0.1306 v 0 0 l 0.2062,0.0961 0.2198,0.0589 0.2267,0.0199 0.2267,-0.0199 0.2198,-0.0589 0.2062,-0.0961 0.1864,-0.1306 0.1609,-0.1609 0.0251,-0.0357 0.0443,-0.0389 0.0573,-0.014 h 0.9466 l 0.0573,0.014 0.0443,0.0389 0.0251,0.0357 0.1609,0.1609 0.1864,0.1306 v 0 0 l 0.2062,0.0961 0.2198,0.0589 0.2267,0.0199 0.2267,-0.0199 0.2198,-0.0589 0.2062,-0.0961 0.1864,-0.1306 0.1609,-0.1609 0.1306,-0.1864 0.0961,-0.2062 0.0589,-0.2198 0.0199,-0.2267 -0.0199,-0.2267 -0.0589,-0.2198 -0.0961,-0.2062 -0.0294,-0.042 -0.1012,-0.1444 -0.1609,-0.1609 -0.0357,-0.0251 -0.0389,-0.0443 -0.014,-0.0573 v -0.0511 l 0.009,-0.0474 0.0269,-0.0403 0.8677,-0.8677 0.0403,-0.0269 0.0474,-0.0094 h 0.4711 l 0.0573,0.014 0.0443,0.0389 0.0251,0.0357 0.1609,0.1609 0.1864,0.1306 v 0 0 l 0.2062,0.0961 0.2198,0.0589 0.2267,0.0199 0.2267,-0.0199 0.2198,-0.0589 0.2062,-0.0961 0.1864,-0.1306 0.1609,-0.1609 0.1306,-0.1864 0.0961,-0.2062 0.0589,-0.2198 0.0199,-0.2267 -0.0199,-0.2267 -0.0589,-0.2198 -0.0961,-0.2062 -0.0158,-0.0225 -0.1148,-0.1639 -0.1609,-0.1609 -0.1864,-0.1306 -0.2062,-0.0961 -0.2198,-0.0589 -0.2267,-0.0199 -0.2267,0.0199 -0.2198,0.0589 -0.2062,0.0961 -0.1864,0.1306 -0.1609,0.1609 -0.0251,0.0357 -0.0443,0.0389 -0.0573,0.014 h -0.7696 l -0.018,-0.0013 -0.0138,-0.002 -0.01,-0.0015 v 0 l -0.0494,0.0043 -0.0108,5e-4 h -0.005 l -0.0308,0.0036 -0.004,4e-4 -0.0759,0.0066 -0.0191,0.0042 -0.0717,0.0261 -0.003,0.0012 -0.0723,0.024 -0.0176,0.0085 -0.0637,0.0419 -0.003,0.0019 -0.0649,0.04 -0.0151,0.0124 -0.0524,0.0554 -0.002,0.0026 -1.3259,1.326 -0.0137,0.0118 -0.0192,0.0143 -0.0319,0.0379 -0.007,0.008 -0.004,0.0039 -0.0192,0.0243 -0.002,0.0028 -0.049,0.0584 -0.0105,0.0165 -0.0322,0.0691 -0.002,0.0032 -0.0342,0.0682 -0.006,0.0184 -0.0154,0.0747 -8e-4,0.0035 -0.0176,0.0742 -0.002,0.0194 0.002,0.0762 1e-4,0.0036 v 0.4006 l -0.014,0.0573 -0.0389,0.0443 -0.0357,0.0251 -0.1609,0.1609 -0.0251,0.0357 -0.0443,0.0389 -0.0573,0.014 h -0.9466 l -0.0573,-0.014 -0.0443,-0.0389 -0.0251,-0.0357 -0.1609,-0.1609 -0.1864,-0.1306 -0.2062,-0.0961 -0.2198,-0.0589 -0.2267,-0.0199 -0.2267,0.0199 -0.2198,0.0589 -0.2062,0.0961 -0.1864,0.1306 -0.1609,0.1609 -0.1306,0.1864 -0.0961,0.2062 -0.0589,0.2198 -0.0199,0.2267 h -4.794 v -6.9955 l 0.0166,-0.062 0.0454,-0.0454 0.062,-0.0166 h 43.751 z"
               id="path32156" /></g></g></g><g
         style="fill:#000000;fill-opacity:1;stroke:#000000;stroke-width:0;stroke-linecap:round;stroke-linejoin:round;stroke-opacity:1"
         id="g32166"
         transform="translate(-87.652981,-6.2102855)"><circle
           cx="169.60001"
           cy="77.260002"
           r="0.5"
           id="circle32164" /></g><g
         style="fill:#000000;fill-opacity:1;stroke:#000000;stroke-width:0;stroke-linecap:round;stroke-linejoin:round;stroke-opacity:1"
         id="g32172"
         transform="translate(-87.652981,-6.2102855)"><circle
           cx="161.5"
           cy="86"
           r="0.5"
           id="circle32170" /></g><g
         style="fill:#000000;fill-opacity:1;stroke:#000000;stroke-width:0;stroke-linecap:round;stroke-linejoin:round;stroke-opacity:1"
         id="g32178"
         transform="translate(-87.652981,-6.2102855)"><circle
           cx="161.5"
           cy="94.900002"
           r="0.5"
           id="circle32176" /></g><g
         style="fill:#000000;fill-opacity:1;stroke:#000000;stroke-width:0;stroke-linecap:round;stroke-linejoin:round;stroke-opacity:1"
         id="g32184"
         transform="translate(-87.652981,-6.2102855)"><circle
           cx="164.8"
           cy="81.970001"
           r="0.5"
           id="circle32182" /></g><g
         style="fill:#000000;fill-opacity:1;stroke:#000000;stroke-width:0;stroke-linecap:round;stroke-linejoin:round;stroke-opacity:1"
         id="g32190"
         transform="translate(-87.652981,-6.2102855)"><circle
           cx="143.10001"
           cy="95.800003"
           r="0.40000001"
           id="circle32188" /></g><g
         style="fill:#000000;fill-opacity:1;stroke:#000000;stroke-width:0;stroke-linecap:round;stroke-linejoin:round;stroke-opacity:1"
         id="g32196"
         transform="translate(-87.652981,-6.2102855)"><circle
           cx="138.10001"
           cy="95.800003"
           r="0.40000001"
           id="circle32194" /></g><g
         style="fill:#000000;fill-opacity:1;stroke:#000000;stroke-width:0;stroke-linecap:round;stroke-linejoin:round;stroke-opacity:1"
         id="g32202"
         transform="translate(-87.652981,-6.2102855)"><circle
           cx="170.39999"
           cy="85.800003"
           r="0.5"
           id="circle32200" /></g><g
         style="fill:#000000;fill-opacity:1;stroke:#000000;stroke-width:0;stroke-linecap:round;stroke-linejoin:round;stroke-opacity:1"
         id="g32208"
         transform="translate(-87.652981,-6.2102855)"><circle
           cx="170.39999"
           cy="88.339996"
           r="0.5"
           id="circle32206" /></g><g
         style="fill:#000000;fill-opacity:1;stroke:#000000;stroke-width:0;stroke-linecap:round;stroke-linejoin:round;stroke-opacity:1"
         id="g32214"
         transform="translate(-87.652981,-6.2102855)"><circle
           cx="170.39999"
           cy="90.879997"
           r="0.5"
           id="circle32212" /></g><g
         style="fill:#000000;fill-opacity:1;stroke:#000000;stroke-width:0;stroke-linecap:round;stroke-linejoin:round;stroke-opacity:1"
         id="g32220"
         transform="translate(-87.652981,-6.2102855)"><circle
           cx="170.39999"
           cy="93.419998"
           r="0.5"
           id="circle32218" /></g><g
         style="fill:#000000;fill-opacity:1;stroke:#000000;stroke-width:0;stroke-linecap:round;stroke-linejoin:round;stroke-opacity:1"
         id="g32226"
         transform="translate(-87.652981,-6.2102855)"><circle
           cx="170.39999"
           cy="95.959999"
           r="0.5"
           id="circle32224" /></g><g
         style="fill:#000000;fill-opacity:1;stroke:#000000;stroke-width:0;stroke-linecap:round;stroke-linejoin:round;stroke-opacity:1"
         id="g32232"
         transform="translate(-87.652981,-6.2102855)"><circle
           cx="170.39999"
           cy="98.5"
           r="0.5"
           id="circle32230" /></g><g
         style="fill:#000000;fill-opacity:1;stroke:#000000;stroke-width:0;stroke-linecap:round;stroke-linejoin:round;stroke-opacity:1"
         id="g32238"
         transform="translate(-87.652981,-6.2102855)"><circle
           cx="170.39999"
           cy="101.04"
           r="0.5"
           id="circle32236" /></g><g
         style="fill:#000000;fill-opacity:1;stroke:#000000;stroke-width:0;stroke-linecap:round;stroke-linejoin:round;stroke-opacity:1"
         id="g32244"
         transform="translate(-87.652981,-6.2102855)"><circle
           cx="146.38"
           cy="83.419998"
           r="0.40000001"
           id="circle32242" /></g><g
         style="fill:#000000;fill-opacity:1;stroke:#000000;stroke-width:0;stroke-linecap:round;stroke-linejoin:round;stroke-opacity:1"
         id="g32250"
         transform="translate(-87.652981,-6.2102855)"><circle
           cx="146.38"
           cy="85.959999"
           r="0.40000001"
           id="circle32248" /></g><g
         style="fill:#000000;fill-opacity:1;stroke:#000000;stroke-width:0;stroke-linecap:round;stroke-linejoin:round;stroke-opacity:1"
         id="g32256"
         transform="translate(-87.652981,-6.2102855)"><circle
           cx="146.38"
           cy="88.5"
           r="0.40000001"
           id="circle32254" /></g><g
         style="fill:#000000;fill-opacity:1;stroke:#000000;stroke-width:0;stroke-linecap:round;stroke-linejoin:round;stroke-opacity:1"
         id="g32262"
         transform="translate(-87.652981,-6.2102855)"><circle
           cx="146.38"
           cy="91.040001"
           r="0.40000001"
           id="circle32260" /></g><g
         style="fill:#000000;fill-opacity:1;stroke:#000000;stroke-width:0;stroke-linecap:round;stroke-linejoin:round;stroke-opacity:1"
         id="g32268"
         transform="translate(-87.652981,-6.2102855)"><circle
           cx="146.38"
           cy="93.580002"
           r="0.40000001"
           id="circle32266" /></g><g
         style="fill:#000000;fill-opacity:1;stroke:#000000;stroke-width:0;stroke-linecap:round;stroke-linejoin:round;stroke-opacity:1"
         id="g32274"
         transform="translate(-87.652981,-6.2102855)"><circle
           cx="146.38"
           cy="96.120003"
           r="0.40000001"
           id="circle32272" /></g><g
         style="fill:#000000;fill-opacity:1;stroke:#000000;stroke-width:0;stroke-linecap:round;stroke-linejoin:round;stroke-opacity:1"
         id="g32280"
         transform="translate(-87.652981,-6.2102855)"><circle
           cx="146.38"
           cy="98.660004"
           r="0.40000001"
           id="circle32278" /></g><g
         style="fill:#000000;fill-opacity:1;stroke:#000000;stroke-width:0;stroke-linecap:round;stroke-linejoin:round;stroke-opacity:1"
         id="g32286"
         transform="translate(-87.652981,-6.2102855)"><circle
           cx="146.38"
           cy="101.2"
           r="0.40000001"
           id="circle32284" /></g><g
         style="fill:#000000;fill-opacity:1;stroke:#000000;stroke-width:0;stroke-linecap:round;stroke-linejoin:round;stroke-opacity:1"
         id="g32292"
         transform="translate(-87.652981,-6.2102855)"><circle
           cx="154"
           cy="101.2"
           r="0.40000001"
           id="circle32290" /></g><g
         style="fill:#000000;fill-opacity:1;stroke:#000000;stroke-width:0;stroke-linecap:round;stroke-linejoin:round;stroke-opacity:1"
         id="g32298"
         transform="translate(-87.652981,-6.2102855)"><circle
           cx="154"
           cy="98.660004"
           r="0.40000001"
           id="circle32296" /></g><g
         style="fill:#000000;fill-opacity:1;stroke:#000000;stroke-width:0;stroke-linecap:round;stroke-linejoin:round;stroke-opacity:1"
         id="g32304"
         transform="translate(-87.652981,-6.2102855)"><circle
           cx="154"
           cy="96.120003"
           r="0.40000001"
           id="circle32302" /></g><g
         style="fill:#000000;fill-opacity:1;stroke:#000000;stroke-width:0;stroke-linecap:round;stroke-linejoin:round;stroke-opacity:1"
         id="g32310"
         transform="translate(-87.652981,-6.2102855)"><circle
           cx="154"
           cy="93.580002"
           r="0.40000001"
           id="circle32308" /></g><g
         style="fill:#000000;fill-opacity:1;stroke:#000000;stroke-width:0;stroke-linecap:round;stroke-linejoin:round;stroke-opacity:1"
         id="g32316"
         transform="translate(-87.652981,-6.2102855)"><circle
           cx="154"
           cy="91.040001"
           r="0.40000001"
           id="circle32314" /></g><g
         style="fill:#000000;fill-opacity:1;stroke:#000000;stroke-width:0;stroke-linecap:round;stroke-linejoin:round;stroke-opacity:1"
         id="g32322"
         transform="translate(-87.652981,-6.2102855)"><circle
           cx="154"
           cy="88.5"
           r="0.40000001"
           id="circle32320" /></g><g
         style="fill:#000000;fill-opacity:1;stroke:#000000;stroke-width:0;stroke-linecap:round;stroke-linejoin:round;stroke-opacity:1"
         id="g32328"
         transform="translate(-87.652981,-6.2102855)"><circle
           cx="154"
           cy="85.959999"
           r="0.40000001"
           id="circle32326" /></g><g
         style="fill:#000000;fill-opacity:1;stroke:#000000;stroke-width:0;stroke-linecap:round;stroke-linejoin:round;stroke-opacity:1"
         id="g32334"
         transform="translate(-87.652981,-6.2102855)"><circle
           cx="154"
           cy="83.419998"
           r="0.40000001"
           id="circle32332" /></g><g
         style="fill:#000000;fill-opacity:1;stroke:#000000;stroke-width:0;stroke-linecap:round;stroke-linejoin:round;stroke-opacity:1"
         id="g32340"
         transform="translate(-87.652981,-6.2102855)"><circle
           cx="166.14"
           cy="100.94"
           r="0.375"
           id="circle32338" /></g><g
         style="fill:#000000;fill-opacity:1;stroke:#000000;stroke-width:0;stroke-linecap:round;stroke-linejoin:round;stroke-opacity:1"
         id="g32346"
         transform="translate(-87.652981,-6.2102855)"><circle
           cx="164.87"
           cy="102.21"
           r="0.375"
           id="circle32344" /></g><g
         style="fill:#000000;fill-opacity:1;stroke:#000000;stroke-width:0;stroke-linecap:round;stroke-linejoin:round;stroke-opacity:1"
         id="g32352"
         transform="translate(-87.652981,-6.2102855)"><circle
           cx="163.60001"
           cy="100.94"
           r="0.375"
           id="circle32350" /></g><g
         style="fill:#000000;fill-opacity:1;stroke:#000000;stroke-width:0;stroke-linecap:round;stroke-linejoin:round;stroke-opacity:1"
         id="g32358"
         transform="translate(-87.652981,-6.2102855)"><circle
           cx="139.8"
           cy="83.120003"
           r="0.40000001"
           id="circle32356" /></g><g
         style="fill:#000000;fill-opacity:1;stroke:#000000;stroke-width:0;stroke-linecap:round;stroke-linejoin:round;stroke-opacity:1"
         id="g32364"
         transform="translate(-87.652981,-6.2102855)"><circle
           cx="139.8"
           cy="93.279999"
           r="0.40000001"
           id="circle32362" /></g><g
         style="fill:#000000;fill-opacity:1;stroke:#000000;stroke-width:0;stroke-linecap:round;stroke-linejoin:round;stroke-opacity:1"
         id="g32370"
         transform="translate(-87.652981,-6.2102855)"><circle
           cx="153.3"
           cy="80.199997"
           r="0.40000001"
           id="circle32368" /></g><g
         style="fill:#000000;fill-opacity:1;stroke:#000000;stroke-width:0;stroke-linecap:round;stroke-linejoin:round;stroke-opacity:1"
         id="g32376"
         transform="translate(-87.652981,-6.2102855)"><circle
           cx="143.14"
           cy="80.199997"
           r="0.40000001"
           id="circle32374" /></g><g
         style="fill:#000000;fill-opacity:1;stroke:#000000;stroke-width:0;stroke-linecap:round;stroke-linejoin:round;stroke-opacity:1"
         id="g32382"
         transform="translate(-87.652981,-6.2102855)"><circle
           cx="136.60001"
           cy="93.279999"
           r="0.40000001"
           id="circle32380" /></g><g
         style="fill:#000000;fill-opacity:1;stroke:#000000;stroke-width:0;stroke-linecap:round;stroke-linejoin:round;stroke-opacity:1"
         id="g32388"
         transform="translate(-87.652981,-6.2102855)"><circle
           cx="136.60001"
           cy="83.120003"
           r="0.40000001"
           id="circle32386" /></g><g
         style="fill:#000000;fill-opacity:1;stroke:#000000;stroke-width:0;stroke-linecap:round;stroke-linejoin:round;stroke-opacity:1"
         id="g32394"
         transform="translate(-87.652981,-6.2102855)"><circle
           cx="166.07001"
           cy="84.879997"
           r="0.375"
           id="circle32392" /></g><g
         style="fill:#000000;fill-opacity:1;stroke:#000000;stroke-width:0;stroke-linecap:round;stroke-linejoin:round;stroke-opacity:1"
         id="g32400"
         transform="translate(-87.652981,-6.2102855)"><circle
           cx="164.8"
           cy="86.150002"
           r="0.375"
           id="circle32398" /></g><g
         style="fill:#000000;fill-opacity:1;stroke:#000000;stroke-width:0;stroke-linecap:round;stroke-linejoin:round;stroke-opacity:1"
         id="g32406"
         transform="translate(-87.652981,-6.2102855)"><circle
           cx="163.53"
           cy="84.879997"
           r="0.375"
           id="circle32404" /></g><g
         style="fill:#000000;fill-opacity:1;stroke:#000000;stroke-width:0;stroke-linecap:round;stroke-linejoin:round;stroke-opacity:1"
         id="g32412"
         transform="translate(-87.652981,-6.2102855)"><circle
           cx="166.07001"
           cy="90.279999"
           r="0.375"
           id="circle32410" /></g><g
         style="fill:#000000;fill-opacity:1;stroke:#000000;stroke-width:0;stroke-linecap:round;stroke-linejoin:round;stroke-opacity:1"
         id="g32418"
         transform="translate(-87.652981,-6.2102855)"><circle
           cx="164.8"
           cy="91.550003"
           r="0.375"
           id="circle32416" /></g><g
         style="fill:#000000;fill-opacity:1;stroke:#000000;stroke-width:0;stroke-linecap:round;stroke-linejoin:round;stroke-opacity:1"
         id="g32424"
         transform="translate(-87.652981,-6.2102855)"><circle
           cx="163.53"
           cy="90.279999"
           r="0.375"
           id="circle32422" /></g><g
         style="fill:#000000;fill-opacity:1;stroke:#000000;stroke-width:0;stroke-linecap:round;stroke-linejoin:round;stroke-opacity:1"
         id="g32430"
         transform="translate(-87.652981,-6.2102855)"><circle
           cx="158.98"
           cy="92.620003"
           r="0.40000001"
           id="circle32428" /></g><g
         style="fill:#000000;fill-opacity:1;stroke:#000000;stroke-width:0;stroke-linecap:round;stroke-linejoin:round;stroke-opacity:1"
         id="g32436"
         transform="translate(-87.652981,-6.2102855)"><circle
           cx="158.98"
           cy="82.459999"
           r="0.40000001"
           id="circle32434" /></g><g
         style="fill:#000000;fill-opacity:1;stroke:#000000;stroke-width:0;stroke-linecap:round;stroke-linejoin:round;stroke-opacity:1"
         id="g32442"
         transform="translate(-87.652981,-6.2102855)"><circle
           cx="143.11"
           cy="102.54"
           r="0.40000001"
           id="circle32440" /></g><g
         style="fill:#000000;fill-opacity:1;stroke:#000000;stroke-width:0;stroke-linecap:round;stroke-linejoin:round;stroke-opacity:1"
         id="g32448"
         transform="translate(-87.652981,-6.2102855)"><circle
           cx="132.95"
           cy="102.54"
           r="0.40000001"
           id="circle32446" /></g><g
         style="fill:#000000;fill-opacity:1;stroke:#000000;stroke-width:0;stroke-linecap:round;stroke-linejoin:round;stroke-opacity:1"
         id="g32454"
         transform="translate(-87.652981,-6.2102855)"><circle
           cx="143.08"
           cy="98.800003"
           r="0.40000001"
           id="circle32452" /></g><g
         style="fill:#000000;fill-opacity:1;stroke:#000000;stroke-width:0;stroke-linecap:round;stroke-linejoin:round;stroke-opacity:1"
         id="g32460"
         transform="translate(-87.652981,-6.2102855)"><circle
           cx="132.92"
           cy="98.800003"
           r="0.40000001"
           id="circle32458" /></g><g
         style="fill:#000000;fill-opacity:1;stroke:#000000;stroke-width:0;stroke-linecap:round;stroke-linejoin:round;stroke-opacity:1"
         id="g32466"
         transform="translate(-87.652981,-6.2102855)"><circle
           cx="143"
           cy="83.120003"
           r="0.40000001"
           id="circle32464" /></g><g
         style="fill:#000000;fill-opacity:1;stroke:#000000;stroke-width:0;stroke-linecap:round;stroke-linejoin:round;stroke-opacity:1"
         id="g32472"
         transform="translate(-87.652981,-6.2102855)"><circle
           cx="143"
           cy="93.279999"
           r="0.40000001"
           id="circle32470" /></g><g
         style="fill:#000000;fill-opacity:1;stroke:#000000;stroke-width:0;stroke-linecap:round;stroke-linejoin:round;stroke-opacity:1"
         id="g32478"
         transform="translate(-87.652981,-6.2102855)"><circle
           cx="156.08"
           cy="104.4"
           r="0.40000001"
           id="circle32476" /></g><g
         style="fill:#000000;fill-opacity:1;stroke:#000000;stroke-width:0;stroke-linecap:round;stroke-linejoin:round;stroke-opacity:1"
         id="g32484"
         transform="translate(-87.652981,-6.2102855)"><circle
           cx="145.92"
           cy="104.4"
           r="0.40000001"
           id="circle32482" /></g><g
         style="fill:#000000;fill-opacity:1;stroke:#000000;stroke-width:0;stroke-linecap:round;stroke-linejoin:round;stroke-opacity:1"
         id="g32490"
         transform="translate(-87.652981,-6.2102855)"><circle
           cx="142.9726"
           cy="106.4"
           r="0.30000001"
           id="circle32488" /></g><g
         style="fill:#000000;fill-opacity:1;stroke:#000000;stroke-width:0;stroke-linecap:round;stroke-linejoin:round;stroke-opacity:1"
         id="g32496"
         transform="translate(-87.652981,-6.2102855)"><circle
           cx="140.9726"
           cy="106.4"
           r="0.30000001"
           id="circle32494" /></g><g
         style="fill:#000000;fill-opacity:1;stroke:#000000;stroke-width:0;stroke-linecap:round;stroke-linejoin:round;stroke-opacity:1"
         id="g32502"
         transform="translate(-87.652981,-6.2102855)"><circle
           cx="166.07001"
           cy="95.620003"
           r="0.375"
           id="circle32500" /></g><g
         style="fill:#000000;fill-opacity:1;stroke:#000000;stroke-width:0;stroke-linecap:round;stroke-linejoin:round;stroke-opacity:1"
         id="g32508"
         transform="translate(-87.652981,-6.2102855)"><circle
           cx="164.8"
           cy="96.889999"
           r="0.375"
           id="circle32506" /></g><g
         style="fill:#000000;fill-opacity:1;stroke:#000000;stroke-width:0;stroke-linecap:round;stroke-linejoin:round;stroke-opacity:1"
         id="g32514"
         transform="translate(-87.652981,-6.2102855)"><circle
           cx="163.53"
           cy="95.620003"
           r="0.375"
           id="circle32512" /></g><g
         style="fill:#000000;fill-opacity:1;stroke:#000000;stroke-width:0;stroke-linecap:round;stroke-linejoin:round;stroke-opacity:1"
         id="g32520"
         transform="translate(-87.652981,-6.2102855)"><circle
           cx="158.98"
           cy="94.870003"
           r="0.40000001"
           id="circle32518" /></g><g
         style="fill:#000000;fill-opacity:1;stroke:#000000;stroke-width:0;stroke-linecap:round;stroke-linejoin:round;stroke-opacity:1"
         id="g32526"
         transform="translate(-87.652981,-6.2102855)"><circle
           cx="158.98"
           cy="105.03"
           r="0.40000001"
           id="circle32524" /></g><g
         style="fill:#ffffff;fill-opacity:0;stroke:#ffffff;stroke-width:0.1;stroke-linecap:round;stroke-linejoin:round;stroke-opacity:1"
         id="g32574"
         transform="translate(-87.652981,-6.2102855)"><path
           style="fill:none;fill-opacity:0;stroke:#ffffff;stroke-width:0.1;stroke-linecap:round;stroke-linejoin:round;stroke-opacity:1"
           d="m 130.5,76 h 44 v 35 h -44 z"
           id="path32532" /><g
           id="g32534" /><g
           id="g32536" /><g
           id="g32538" /><g
           id="g32540" /><g
           id="g32542" /><g
           id="g32544" /><g
           id="g32546" /><g
           id="g32548" /><g
           id="g32550" /><g
           id="g32552" /><g
           id="g32554" /><g
           id="g32556" /><g
           id="g32558" /><g
           id="g32560" /><g
           id="g32562" /><g
           id="g32564" /><g
           id="g32566" /><g
           id="g32568" /><g
           id="g32570" /><g
           id="g32572" /></g></g><path
       style="opacity:1;fill:none;stroke:#000000;stroke-width:0.499999;stroke-linecap:butt;stroke-linejoin:round;stroke-dasharray:none;paint-order:stroke fill markers;stop-color:#000000"
       d="M 10,0 V 10 H 0"
       id="path36447" /></g></svg>
